G04 Layer_Color=8388736*
%FSLAX44Y44*%
%MOMM*%
G71*
G01*
G75*
%ADD51R,1.1532X1.0032*%
%ADD52R,1.1532X1.1532*%
%ADD53R,1.5532X0.6032*%
%ADD54R,1.5532X0.5032*%
%ADD55R,2.1032X2.5032*%
%ADD56R,2.1032X2.0032*%
%ADD57R,1.0032X1.1532*%
%ADD58R,2.0032X3.1032*%
%ADD59R,1.1532X1.1532*%
%ADD60R,1.1032X2.7432*%
%ADD61R,2.7432X1.1032*%
%ADD62R,5.2032X5.2032*%
%ADD63R,3.1032X2.0032*%
%ADD64R,1.1532X1.9532*%
%ADD65R,3.4032X1.9532*%
%ADD66R,1.7532X2.6032*%
%ADD67R,0.8032X1.2032*%
%ADD68C,1.8032*%
%ADD69R,1.8032X1.8032*%
%ADD70R,1.8032X1.8032*%
%ADD71C,5.2032*%
%ADD72O,2.7032X2.2032*%
%ADD73C,2.7032*%
%ADD74O,2.7032X1.7032*%
%ADD75R,3.0032X2.2032*%
%ADD76O,3.0032X2.2032*%
%ADD77C,2.2032*%
D51*
X164000Y458000D02*
D03*
Y474000D02*
D03*
X297000Y115000D02*
D03*
Y131000D02*
D03*
X313000Y115000D02*
D03*
Y131000D02*
D03*
X425000Y138000D02*
D03*
Y122000D02*
D03*
D52*
X148000Y473000D02*
D03*
Y457000D02*
D03*
D53*
X37500Y407000D02*
D03*
Y433000D02*
D03*
D54*
Y413500D02*
D03*
Y420000D02*
D03*
Y426500D02*
D03*
D55*
X10750Y382500D02*
D03*
Y457500D02*
D03*
D56*
Y408500D02*
D03*
Y431500D02*
D03*
D57*
X207000Y486000D02*
D03*
X223000D02*
D03*
X314000Y488000D02*
D03*
X298000D02*
D03*
X359000D02*
D03*
X375000D02*
D03*
X34000Y256610D02*
D03*
X50000D02*
D03*
X34000Y282010D02*
D03*
X50000D02*
D03*
X408750Y136500D02*
D03*
X392750D02*
D03*
D58*
X248500Y478000D02*
D03*
X277500D02*
D03*
X103400Y375920D02*
D03*
X74400D02*
D03*
X134000Y357250D02*
D03*
X163000D02*
D03*
D59*
X265000Y452000D02*
D03*
X281000D02*
D03*
X314000Y472000D02*
D03*
X298000D02*
D03*
X358000D02*
D03*
X374000D02*
D03*
X358000Y456000D02*
D03*
X374000D02*
D03*
D60*
Y220800D02*
D03*
X361300D02*
D03*
X348600D02*
D03*
X335900D02*
D03*
X323200D02*
D03*
X310500D02*
D03*
X297800D02*
D03*
X285100D02*
D03*
X272400D02*
D03*
X259700D02*
D03*
X247000D02*
D03*
X234300D02*
D03*
X221600D02*
D03*
X208900D02*
D03*
Y396000D02*
D03*
X221600D02*
D03*
X234300D02*
D03*
X247000D02*
D03*
X259700D02*
D03*
X348600D02*
D03*
X361300D02*
D03*
X374000D02*
D03*
D61*
X196200Y251150D02*
D03*
Y352750D02*
D03*
Y365450D02*
D03*
D62*
X299000Y318300D02*
D03*
D63*
X40000Y305500D02*
D03*
Y334500D02*
D03*
D64*
X156350Y321060D02*
D03*
X133350D02*
D03*
X110350D02*
D03*
D65*
X133350Y258060D02*
D03*
D66*
X300000Y50250D02*
D03*
Y19750D02*
D03*
D67*
X295300Y75630D02*
D03*
X314300D02*
D03*
X304800Y99630D02*
D03*
X410870Y154370D02*
D03*
X429870D02*
D03*
X420370Y178370D02*
D03*
D68*
X186900Y485280D02*
D03*
X336000D02*
D03*
X75000Y256610D02*
D03*
Y282010D02*
D03*
Y307410D02*
D03*
X161500Y430600D02*
D03*
X339300D02*
D03*
X313900D02*
D03*
X212300D02*
D03*
X186900D02*
D03*
X237700D02*
D03*
X263100D02*
D03*
X49600Y205810D02*
D03*
X75000D02*
D03*
X100400D02*
D03*
X125800D02*
D03*
D69*
X186900Y459880D02*
D03*
X336000D02*
D03*
D70*
X75000Y332810D02*
D03*
X288500Y430600D02*
D03*
X151200Y205810D02*
D03*
D71*
X85160Y424250D02*
D03*
X364560Y167710D02*
D03*
D72*
X259500Y80000D02*
D03*
D73*
X117500Y20000D02*
D03*
X239500Y140000D02*
D03*
X117500Y140000D02*
D03*
D74*
X239500Y20000D02*
D03*
D75*
X59000Y115000D02*
D03*
D76*
Y80000D02*
D03*
Y45000D02*
D03*
D77*
X355000Y62500D02*
D03*
X420000D02*
D03*
M02*
