G04 Layer_Physical_Order=2*
G04 Layer_Color=16711680*
%FSLAX44Y44*%
%MOMM*%
G71*
G01*
G75*
%ADD11R,0.9500X0.9500*%
%ADD16R,0.8000X0.9500*%
%ADD18R,0.9500X0.9500*%
%ADD27C,2.0000*%
%ADD29C,0.2540*%
%ADD32C,1.6000*%
%ADD33R,1.6000X1.6000*%
%ADD34R,1.6000X1.6000*%
%ADD35C,5.0000*%
%ADD36O,2.5000X2.0000*%
%ADD37C,2.5000*%
%ADD38O,2.5000X1.5000*%
%ADD39R,2.8000X2.0000*%
%ADD40O,2.8000X2.0000*%
%ADD41C,2.0000*%
%ADD42C,0.8000*%
%ADD43R,1.5000X0.9000*%
%ADD44R,0.9000X1.5000*%
G36*
X379910Y446910D02*
X377370Y445658D01*
X377298Y445713D01*
X375707Y446372D01*
X375270Y446429D01*
Y440000D01*
Y433571D01*
X375707Y433628D01*
X377298Y434287D01*
X377370Y434343D01*
X379910Y433090D01*
Y367684D01*
X377370Y367125D01*
X377212Y367467D01*
X377191Y367518D01*
X377134Y367655D01*
X376553Y369058D01*
X375504Y370424D01*
X374138Y371473D01*
X372547Y372132D01*
X372110Y372189D01*
Y365760D01*
Y359331D01*
X372547Y359388D01*
X374138Y360047D01*
X375504Y361096D01*
X376553Y362462D01*
X377134Y363865D01*
X377191Y364002D01*
X377212Y364053D01*
X377370Y364395D01*
X379910Y363836D01*
X379910Y347364D01*
X377370Y346805D01*
X377212Y347147D01*
X377191Y347198D01*
X377134Y347335D01*
X376553Y348738D01*
X375504Y350104D01*
X374138Y351153D01*
X372547Y351812D01*
X372110Y351869D01*
Y345440D01*
Y339011D01*
X372547Y339068D01*
X374138Y339727D01*
X375504Y340776D01*
X376553Y342142D01*
X377134Y343545D01*
X377191Y343682D01*
X377212Y343733D01*
X377370Y344075D01*
X379910Y343516D01*
Y327044D01*
X377370Y326485D01*
X377212Y326827D01*
X377191Y326878D01*
X377134Y327015D01*
X376553Y328418D01*
X375504Y329784D01*
X374138Y330833D01*
X372547Y331492D01*
X372110Y331549D01*
Y325120D01*
Y318691D01*
X372547Y318748D01*
X374138Y319407D01*
X375504Y320456D01*
X376553Y321822D01*
X377134Y323225D01*
X377191Y323362D01*
X377212Y323413D01*
X377370Y323755D01*
X379910Y323196D01*
Y306724D01*
X377370Y306165D01*
X377212Y306507D01*
X377191Y306558D01*
X377134Y306695D01*
X376553Y308098D01*
X375504Y309464D01*
X374138Y310513D01*
X372547Y311172D01*
X372110Y311229D01*
Y304800D01*
Y298371D01*
X372547Y298428D01*
X374138Y299087D01*
X375504Y300136D01*
X376553Y301502D01*
X377134Y302905D01*
X377191Y303042D01*
X377212Y303093D01*
X377370Y303435D01*
X379910Y302876D01*
Y286404D01*
X377370Y285845D01*
X377212Y286187D01*
X377191Y286238D01*
X377134Y286375D01*
X376553Y287778D01*
X375504Y289144D01*
X374138Y290193D01*
X372547Y290852D01*
X372110Y290909D01*
Y284480D01*
Y278051D01*
X372547Y278108D01*
X374138Y278767D01*
X375504Y279816D01*
X376553Y281182D01*
X377134Y282585D01*
X377191Y282722D01*
X377212Y282773D01*
X377370Y283115D01*
X379910Y282556D01*
Y266084D01*
X377370Y265525D01*
X377212Y265867D01*
X377191Y265918D01*
X377134Y266055D01*
X376553Y267458D01*
X375504Y268824D01*
X374138Y269873D01*
X372547Y270532D01*
X372110Y270589D01*
Y264160D01*
Y257731D01*
X372547Y257788D01*
X374138Y258447D01*
X375504Y259496D01*
X376553Y260862D01*
X377134Y262265D01*
X377191Y262402D01*
X377212Y262453D01*
X377370Y262795D01*
X379910Y262236D01*
Y245764D01*
X377370Y245205D01*
X377212Y245547D01*
X377191Y245598D01*
X377134Y245735D01*
X376553Y247138D01*
X375504Y248504D01*
X374138Y249553D01*
X372547Y250212D01*
X372110Y250269D01*
Y243840D01*
Y237411D01*
X372547Y237468D01*
X374138Y238127D01*
X375504Y239176D01*
X376553Y240542D01*
X377134Y241945D01*
X377191Y242082D01*
X377212Y242133D01*
X377370Y242475D01*
X379910Y241916D01*
Y195000D01*
X380107Y194009D01*
X380669Y193169D01*
X381509Y192607D01*
X382500Y192410D01*
X398460D01*
Y185420D01*
X405500D01*
Y184150D01*
X406770D01*
Y174110D01*
X412540D01*
Y179959D01*
X413517Y180895D01*
X414980Y181749D01*
Y188250D01*
X416250D01*
Y189520D01*
X422679D01*
X422633Y189870D01*
X422629Y189968D01*
X424355Y192410D01*
X431460D01*
Y179144D01*
X423841Y171525D01*
X416560D01*
X415073Y171229D01*
X413813Y170387D01*
X379391Y135965D01*
X349589D01*
X331735Y153819D01*
Y180191D01*
X355997Y204453D01*
X356839Y205713D01*
X357135Y207200D01*
Y436750D01*
X356839Y438237D01*
X355997Y439497D01*
X348063Y447431D01*
X347563Y448057D01*
X346540Y449787D01*
X346540Y451168D01*
Y470420D01*
X325460D01*
Y451425D01*
X325460Y449340D01*
X323109Y448885D01*
X316609D01*
X306757Y458737D01*
X305497Y459579D01*
X304010Y459875D01*
X297055D01*
Y463030D01*
X276975D01*
Y448950D01*
X297055D01*
Y452105D01*
X302401D01*
X311084Y443422D01*
X311103Y442672D01*
X310368Y440546D01*
X308584Y439807D01*
X306383Y438117D01*
X304693Y435915D01*
X303631Y433352D01*
X303269Y430600D01*
X303631Y427849D01*
X304693Y425285D01*
X306383Y423083D01*
X308584Y421393D01*
X311148Y420331D01*
X313900Y419969D01*
X316651Y420331D01*
X319216Y421393D01*
X321417Y423083D01*
X323107Y425285D01*
X324169Y427849D01*
X324531Y430600D01*
X324169Y433352D01*
X323107Y435915D01*
X321417Y438117D01*
X320820Y438575D01*
X321682Y441115D01*
X331518D01*
X332380Y438575D01*
X331783Y438117D01*
X330093Y435915D01*
X329031Y433352D01*
X328669Y430600D01*
X329031Y427849D01*
X330093Y425285D01*
X331783Y423083D01*
X333984Y421393D01*
X335415Y420801D01*
Y279949D01*
X328634Y273168D01*
X327660Y273296D01*
X325953Y273072D01*
X324362Y272413D01*
X322996Y271364D01*
X321947Y269998D01*
X321288Y268407D01*
X321064Y266700D01*
X321288Y264993D01*
X321947Y263402D01*
X322996Y262036D01*
X324362Y260987D01*
X325953Y260328D01*
X327660Y260104D01*
X329367Y260328D01*
X330958Y260987D01*
X332324Y262036D01*
X333373Y263402D01*
X334032Y264993D01*
X334256Y266700D01*
X334128Y267674D01*
X342047Y275593D01*
X342889Y276853D01*
X343185Y278340D01*
Y420801D01*
X344616Y421393D01*
X346817Y423083D01*
X346825Y423093D01*
X349365Y422231D01*
Y208809D01*
X335469Y194913D01*
X332787Y195823D01*
X332762Y196017D01*
X332103Y197608D01*
X331054Y198974D01*
X329688Y200023D01*
X328097Y200682D01*
X326390Y200906D01*
X324683Y200682D01*
X323092Y200023D01*
X321726Y198974D01*
X321127Y198195D01*
X303530D01*
X302043Y197899D01*
X300783Y197057D01*
X298111Y194385D01*
X163913D01*
X161740Y195270D01*
Y204540D01*
X151200D01*
X140660D01*
Y199762D01*
X138313Y198790D01*
X135476Y201628D01*
X136069Y203058D01*
X136431Y205810D01*
X136069Y208561D01*
X135007Y211126D01*
X133317Y213327D01*
X131116Y215017D01*
X128552Y216079D01*
X125800Y216441D01*
X123048Y216079D01*
X120485Y215017D01*
X118283Y213327D01*
X116593Y211126D01*
X115531Y208561D01*
X115169Y205810D01*
X115531Y203058D01*
X116593Y200494D01*
X118283Y198293D01*
X120485Y196603D01*
X123048Y195541D01*
X125800Y195179D01*
X128552Y195541D01*
X129982Y196134D01*
X134465Y191651D01*
X133493Y189305D01*
X122399D01*
X110076Y201628D01*
X110669Y203058D01*
X111031Y205810D01*
X110669Y208561D01*
X109607Y211126D01*
X107917Y213327D01*
X105716Y215017D01*
X103152Y216079D01*
X100400Y216441D01*
X97648Y216079D01*
X95084Y215017D01*
X92883Y213327D01*
X91193Y211126D01*
X90131Y208561D01*
X89769Y205810D01*
X90131Y203058D01*
X91193Y200494D01*
X92883Y198293D01*
X95084Y196603D01*
X97648Y195541D01*
X100400Y195179D01*
X103152Y195541D01*
X104582Y196134D01*
X118043Y182673D01*
X119303Y181831D01*
X120790Y181535D01*
X307157D01*
X307756Y180756D01*
X309122Y179707D01*
X310713Y179048D01*
X312420Y178824D01*
X313398Y178952D01*
X314739Y177066D01*
X314852Y176702D01*
X314327Y176018D01*
X313668Y174427D01*
X313611Y173990D01*
X320040D01*
Y172720D01*
X321310D01*
Y166291D01*
X321425Y166306D01*
X322005Y166136D01*
X323965Y164518D01*
Y152210D01*
X324261Y150723D01*
X325103Y149463D01*
X345233Y129333D01*
X346493Y128491D01*
X347980Y128195D01*
X381000D01*
X382487Y128491D01*
X383747Y129333D01*
X396113Y141700D01*
X398460Y140728D01*
Y130604D01*
X388413Y120557D01*
X387571Y119297D01*
X387275Y117810D01*
Y65769D01*
X359080Y37574D01*
X356577Y38283D01*
X356397Y38482D01*
X356429Y38730D01*
X351270D01*
Y33571D01*
X351517Y33603D01*
X351717Y33423D01*
X352426Y30920D01*
X339831Y18325D01*
X288290D01*
Y30290D01*
X288290D01*
Y31710D01*
X288290D01*
Y46290D01*
X288290Y46290D01*
X289002Y48535D01*
X289713Y49462D01*
X290372Y51053D01*
X290596Y52760D01*
X290468Y53734D01*
X295349Y58615D01*
X343036D01*
X344046Y56176D01*
X346056Y53556D01*
X348676Y51546D01*
X351726Y50283D01*
X355000Y49852D01*
X358274Y50283D01*
X361324Y51546D01*
X363944Y53556D01*
X365954Y56176D01*
X367217Y59226D01*
X367648Y62500D01*
X367217Y65774D01*
X365954Y68824D01*
X363944Y71444D01*
X361324Y73454D01*
X358274Y74717D01*
X355000Y75148D01*
X351726Y74717D01*
X348676Y73454D01*
X346056Y71444D01*
X344046Y68824D01*
X343036Y66385D01*
X293740D01*
X292253Y66089D01*
X290993Y65247D01*
X286040Y60294D01*
X283500Y61346D01*
X283500Y140533D01*
X262381Y161652D01*
X0Y161652D01*
Y500000D01*
X379910D01*
Y446910D01*
D02*
G37*
G36*
X450000Y0D02*
X283500D01*
Y10555D01*
X341440D01*
X342927Y10851D01*
X344187Y11693D01*
X393907Y61413D01*
X394749Y62673D01*
X395045Y64160D01*
Y116201D01*
X403954Y125110D01*
X412540D01*
Y145190D01*
X402922D01*
X401950Y147537D01*
X418169Y163755D01*
X425450D01*
X426937Y164051D01*
X428197Y164893D01*
X437414Y174110D01*
X445540D01*
Y192410D01*
X450000D01*
Y0D01*
D02*
G37*
%LPC*%
G36*
X49600Y216441D02*
X46849Y216079D01*
X44285Y215017D01*
X42083Y213327D01*
X40393Y211126D01*
X39331Y208561D01*
X38969Y205810D01*
X39331Y203058D01*
X40393Y200494D01*
X42083Y198293D01*
X44285Y196603D01*
X46849Y195541D01*
X49600Y195179D01*
X52351Y195541D01*
X54915Y196603D01*
X57117Y198293D01*
X58807Y200494D01*
X59869Y203058D01*
X60231Y205810D01*
X59869Y208561D01*
X58807Y211126D01*
X57117Y213327D01*
X54915Y215017D01*
X52351Y216079D01*
X49600Y216441D01*
D02*
G37*
G36*
X75000D02*
X72249Y216079D01*
X69685Y215017D01*
X67483Y213327D01*
X65793Y211126D01*
X64731Y208561D01*
X64369Y205810D01*
X64731Y203058D01*
X65793Y200494D01*
X67483Y198293D01*
X69685Y196603D01*
X72249Y195541D01*
X75000Y195179D01*
X77751Y195541D01*
X80316Y196603D01*
X82517Y198293D01*
X84207Y200494D01*
X85269Y203058D01*
X85631Y205810D01*
X85269Y208561D01*
X84207Y211126D01*
X82517Y213327D01*
X80316Y215017D01*
X77751Y216079D01*
X75000Y216441D01*
D02*
G37*
G36*
X422679Y186980D02*
X417520D01*
Y181821D01*
X417957Y181878D01*
X419548Y182537D01*
X420914Y183586D01*
X421963Y184952D01*
X422622Y186543D01*
X422679Y186980D01*
D02*
G37*
G36*
X13970Y184229D02*
X13533Y184172D01*
X11942Y183513D01*
X10576Y182464D01*
X9527Y181098D01*
X8868Y179507D01*
X8811Y179070D01*
X13970D01*
Y184229D01*
D02*
G37*
G36*
X16510D02*
Y179070D01*
X21669D01*
X21612Y179507D01*
X20953Y181098D01*
X19904Y182464D01*
X18538Y183513D01*
X16947Y184172D01*
X16510Y184229D01*
D02*
G37*
G36*
X34290Y232410D02*
X29131D01*
X29188Y231973D01*
X29847Y230382D01*
X30896Y229016D01*
X32262Y227967D01*
X33853Y227308D01*
X34290Y227251D01*
Y232410D01*
D02*
G37*
G36*
X41989D02*
X36830D01*
Y227251D01*
X37267Y227308D01*
X38858Y227967D01*
X40224Y229016D01*
X41273Y230382D01*
X41932Y231973D01*
X41989Y232410D01*
D02*
G37*
G36*
X162480Y238730D02*
X157321D01*
X157378Y238293D01*
X158037Y236702D01*
X159086Y235336D01*
X160452Y234287D01*
X162043Y233628D01*
X162480Y233571D01*
Y238730D01*
D02*
G37*
G36*
X149930Y216350D02*
X140660D01*
Y207080D01*
X149930D01*
Y216350D01*
D02*
G37*
G36*
X161740D02*
X152470D01*
Y207080D01*
X161740D01*
Y216350D01*
D02*
G37*
G36*
X42540Y300290D02*
X29460D01*
Y285710D01*
X32615D01*
Y263220D01*
X32911Y261733D01*
X33753Y260473D01*
X70913Y223313D01*
X72173Y222471D01*
X73660Y222175D01*
X167301D01*
X174782Y214694D01*
X174654Y213720D01*
X174878Y212013D01*
X175537Y210422D01*
X176586Y209056D01*
X177952Y208007D01*
X179543Y207348D01*
X181250Y207124D01*
X182957Y207348D01*
X184548Y208007D01*
X185914Y209056D01*
X186963Y210422D01*
X187622Y212013D01*
X187846Y213720D01*
X187622Y215427D01*
X186963Y217018D01*
X185914Y218384D01*
X184548Y219433D01*
X182957Y220092D01*
X181250Y220316D01*
X180276Y220188D01*
X171657Y228807D01*
X170397Y229649D01*
X168910Y229945D01*
X75269D01*
X40385Y264829D01*
Y285710D01*
X42540D01*
Y300290D01*
D02*
G37*
G36*
X13970Y176530D02*
X8811D01*
X8868Y176093D01*
X9527Y174502D01*
X10576Y173136D01*
X11942Y172087D01*
X13533Y171428D01*
X13970Y171371D01*
Y176530D01*
D02*
G37*
G36*
X21669D02*
X16510D01*
Y171371D01*
X16947Y171428D01*
X18538Y172087D01*
X19904Y173136D01*
X20953Y174502D01*
X21612Y176093D01*
X21669Y176530D01*
D02*
G37*
G36*
X56980Y177429D02*
X56543Y177372D01*
X54952Y176713D01*
X53586Y175664D01*
X52537Y174298D01*
X51878Y172707D01*
X51821Y172270D01*
X56980D01*
Y177429D01*
D02*
G37*
G36*
X271250Y170210D02*
X266091D01*
X266148Y169773D01*
X266807Y168182D01*
X267856Y166816D01*
X269222Y165767D01*
X270813Y165108D01*
X271250Y165051D01*
Y170210D01*
D02*
G37*
G36*
X278949D02*
X273790D01*
Y165051D01*
X274227Y165108D01*
X275818Y165767D01*
X277184Y166816D01*
X278233Y168182D01*
X278892Y169773D01*
X278949Y170210D01*
D02*
G37*
G36*
X318770Y171450D02*
X313611D01*
X313668Y171013D01*
X314327Y169422D01*
X315376Y168056D01*
X316742Y167007D01*
X318333Y166348D01*
X318770Y166291D01*
Y171450D01*
D02*
G37*
G36*
X271250Y177909D02*
X270813Y177852D01*
X269222Y177193D01*
X267856Y176144D01*
X266807Y174778D01*
X266148Y173187D01*
X266091Y172750D01*
X271250D01*
Y177909D01*
D02*
G37*
G36*
X273790D02*
Y172750D01*
X278949D01*
X278892Y173187D01*
X278233Y174778D01*
X277184Y176144D01*
X275818Y177193D01*
X274227Y177852D01*
X273790Y177909D01*
D02*
G37*
G36*
X404230Y182880D02*
X398460D01*
Y174110D01*
X404230D01*
Y182880D01*
D02*
G37*
G36*
X59520Y177429D02*
Y172270D01*
X64679D01*
X64622Y172707D01*
X63963Y174298D01*
X62914Y175664D01*
X61548Y176713D01*
X59957Y177372D01*
X59520Y177429D01*
D02*
G37*
G36*
X232980Y177909D02*
X232543Y177852D01*
X230952Y177193D01*
X229586Y176144D01*
X228537Y174778D01*
X227878Y173187D01*
X227821Y172750D01*
X232980D01*
Y177909D01*
D02*
G37*
G36*
X235520D02*
Y172750D01*
X240679D01*
X240622Y173187D01*
X239963Y174778D01*
X238914Y176144D01*
X237548Y177193D01*
X235957Y177852D01*
X235520Y177909D01*
D02*
G37*
G36*
X369570Y283210D02*
X364411D01*
X364468Y282773D01*
X365127Y281182D01*
X366176Y279816D01*
X367542Y278767D01*
X369133Y278108D01*
X369570Y278051D01*
Y283210D01*
D02*
G37*
G36*
X237700Y441231D02*
X234949Y440869D01*
X232384Y439807D01*
X230183Y438117D01*
X228493Y435915D01*
X227431Y433352D01*
X227069Y430600D01*
X227431Y427849D01*
X228493Y425285D01*
X230183Y423083D01*
X232384Y421393D01*
X233815Y420801D01*
Y289953D01*
X233036Y289354D01*
X231987Y287988D01*
X231328Y286397D01*
X231104Y284690D01*
X231328Y282983D01*
X231987Y281392D01*
X233036Y280026D01*
X234402Y278977D01*
X235993Y278318D01*
X237700Y278094D01*
X239407Y278318D01*
X240998Y278977D01*
X242364Y280026D01*
X243413Y281392D01*
X244072Y282983D01*
X244296Y284690D01*
X244072Y286397D01*
X243413Y287988D01*
X242364Y289354D01*
X241585Y289953D01*
Y420801D01*
X243015Y421393D01*
X245217Y423083D01*
X246907Y425285D01*
X247969Y427849D01*
X248331Y430600D01*
X247969Y433352D01*
X246907Y435915D01*
X245217Y438117D01*
X243015Y439807D01*
X240452Y440869D01*
X237700Y441231D01*
D02*
G37*
G36*
X273050Y285829D02*
X272613Y285772D01*
X271022Y285113D01*
X269656Y284064D01*
X268607Y282698D01*
X267948Y281107D01*
X267891Y280670D01*
X273050D01*
Y285829D01*
D02*
G37*
G36*
X280749Y278130D02*
X275590D01*
Y272971D01*
X276027Y273028D01*
X277618Y273687D01*
X278984Y274736D01*
X280033Y276102D01*
X280692Y277693D01*
X280749Y278130D01*
D02*
G37*
G36*
X298450D02*
X293291D01*
X293348Y277693D01*
X294007Y276102D01*
X295056Y274736D01*
X296422Y273687D01*
X298013Y273028D01*
X298450Y272971D01*
Y278130D01*
D02*
G37*
G36*
X306149D02*
X300990D01*
Y272971D01*
X301427Y273028D01*
X303018Y273687D01*
X304384Y274736D01*
X305433Y276102D01*
X306092Y277693D01*
X306149Y278130D01*
D02*
G37*
G36*
X18490Y324475D02*
X4410D01*
Y304395D01*
X12922D01*
X14480Y302475D01*
X13546Y300290D01*
X13460D01*
Y285710D01*
X26540D01*
Y300290D01*
X23884D01*
Y303001D01*
X23588Y304487D01*
X22746Y305748D01*
X18490Y310004D01*
Y324475D01*
D02*
G37*
G36*
X369570Y290909D02*
X369133Y290852D01*
X367542Y290193D01*
X366176Y289144D01*
X365127Y287778D01*
X364468Y286187D01*
X364411Y285750D01*
X369570D01*
Y290909D01*
D02*
G37*
G36*
X257810Y298450D02*
X252651D01*
X252708Y298013D01*
X253367Y296422D01*
X254416Y295056D01*
X255782Y294007D01*
X257373Y293348D01*
X257810Y293291D01*
Y298450D01*
D02*
G37*
G36*
X275590Y285829D02*
Y280670D01*
X280749D01*
X280692Y281107D01*
X280033Y282698D01*
X278984Y284064D01*
X277618Y285113D01*
X276027Y285772D01*
X275590Y285829D01*
D02*
G37*
G36*
X298450D02*
X298013Y285772D01*
X296422Y285113D01*
X295056Y284064D01*
X294007Y282698D01*
X293348Y281107D01*
X293291Y280670D01*
X298450D01*
Y285829D01*
D02*
G37*
G36*
X300990D02*
Y280670D01*
X306149D01*
X306092Y281107D01*
X305433Y282698D01*
X304384Y284064D01*
X303018Y285113D01*
X301427Y285772D01*
X300990Y285829D01*
D02*
G37*
G36*
X75000Y292641D02*
X72249Y292279D01*
X69685Y291217D01*
X67483Y289527D01*
X65793Y287325D01*
X64731Y284762D01*
X64369Y282010D01*
X64731Y279258D01*
X65793Y276695D01*
X67483Y274493D01*
X69685Y272803D01*
X72249Y271741D01*
X75000Y271379D01*
X77751Y271741D01*
X80316Y272803D01*
X82517Y274493D01*
X84207Y276695D01*
X84799Y278125D01*
X91436D01*
X91793Y275622D01*
X90202Y274963D01*
X88836Y273914D01*
X87787Y272548D01*
X87128Y270957D01*
X87071Y270520D01*
X99929D01*
X99872Y270957D01*
X99213Y272548D01*
X98164Y273914D01*
X96798Y274963D01*
X95207Y275622D01*
X95564Y278125D01*
X161686D01*
X162043Y275622D01*
X160452Y274963D01*
X159086Y273914D01*
X158037Y272548D01*
X157378Y270957D01*
X157321Y270520D01*
X170179D01*
X170122Y270957D01*
X169463Y272548D01*
X168414Y273914D01*
X167048Y274963D01*
X165457Y275622D01*
X165814Y278125D01*
X175131D01*
X212163Y241093D01*
X213423Y240251D01*
X214910Y239955D01*
X298267D01*
X298866Y239176D01*
X300232Y238127D01*
X301823Y237468D01*
X303530Y237244D01*
X305237Y237468D01*
X306828Y238127D01*
X308194Y239176D01*
X309243Y240542D01*
X309902Y242133D01*
X310126Y243840D01*
X309902Y245547D01*
X309243Y247138D01*
X308194Y248504D01*
X306828Y249553D01*
X305237Y250212D01*
X303530Y250436D01*
X301823Y250212D01*
X300232Y249553D01*
X298866Y248504D01*
X298267Y247725D01*
X216519D01*
X179487Y284757D01*
X178227Y285599D01*
X176740Y285895D01*
X84799D01*
X84207Y287325D01*
X82517Y289527D01*
X80316Y291217D01*
X77751Y292279D01*
X75000Y292641D01*
D02*
G37*
G36*
X369570Y242570D02*
X364411D01*
X364468Y242133D01*
X365127Y240542D01*
X366176Y239176D01*
X367542Y238127D01*
X369133Y237468D01*
X369570Y237411D01*
Y242570D01*
D02*
G37*
G36*
X162480Y246429D02*
X162043Y246372D01*
X160452Y245713D01*
X159086Y244664D01*
X158037Y243298D01*
X157378Y241707D01*
X157321Y241270D01*
X162480D01*
Y246429D01*
D02*
G37*
G36*
X170179Y238730D02*
X165020D01*
Y233571D01*
X165457Y233628D01*
X167048Y234287D01*
X168414Y235336D01*
X169463Y236702D01*
X170122Y238293D01*
X170179Y238730D01*
D02*
G37*
G36*
X34290Y240109D02*
X33853Y240052D01*
X32262Y239393D01*
X30896Y238344D01*
X29847Y236978D01*
X29188Y235387D01*
X29131Y234950D01*
X34290D01*
Y240109D01*
D02*
G37*
G36*
X36830D02*
Y234950D01*
X41989D01*
X41932Y235387D01*
X41273Y236978D01*
X40224Y238344D01*
X38858Y239393D01*
X37267Y240052D01*
X36830Y240109D01*
D02*
G37*
G36*
X170179Y267980D02*
X157321D01*
X157378Y267543D01*
X158037Y265952D01*
X159086Y264586D01*
X160452Y263537D01*
X162043Y262878D01*
X161478Y260495D01*
X95772D01*
X95207Y262878D01*
X96798Y263537D01*
X98164Y264586D01*
X99213Y265952D01*
X99872Y267543D01*
X99929Y267980D01*
X87071D01*
X87128Y267543D01*
X87787Y265952D01*
X88836Y264586D01*
X90202Y263537D01*
X91793Y262878D01*
X91228Y260495D01*
X84799D01*
X84207Y261926D01*
X82517Y264127D01*
X80316Y265817D01*
X77751Y266879D01*
X75000Y267241D01*
X72249Y266879D01*
X69685Y265817D01*
X67483Y264127D01*
X65793Y261926D01*
X64731Y259361D01*
X64369Y256610D01*
X64731Y253859D01*
X65793Y251294D01*
X67483Y249093D01*
X69685Y247403D01*
X72249Y246341D01*
X75000Y245979D01*
X77751Y246341D01*
X80316Y247403D01*
X82517Y249093D01*
X84207Y251294D01*
X84799Y252725D01*
X172281D01*
X198253Y226753D01*
X199513Y225911D01*
X201000Y225615D01*
X321250D01*
X322737Y225911D01*
X323997Y226753D01*
X335776Y238532D01*
X336750Y238404D01*
X338457Y238628D01*
X340048Y239287D01*
X341414Y240336D01*
X342463Y241702D01*
X343122Y243293D01*
X343346Y245000D01*
X343122Y246707D01*
X342463Y248298D01*
X341414Y249664D01*
X340048Y250713D01*
X338457Y251372D01*
X336750Y251596D01*
X335043Y251372D01*
X333452Y250713D01*
X332086Y249664D01*
X331037Y248298D01*
X330378Y246707D01*
X330154Y245000D01*
X330282Y244026D01*
X319641Y233385D01*
X202609D01*
X176637Y259357D01*
X175377Y260199D01*
X173890Y260495D01*
X166022D01*
X165457Y262878D01*
X167048Y263537D01*
X168414Y264586D01*
X169463Y265952D01*
X170122Y267543D01*
X170179Y267980D01*
D02*
G37*
G36*
X369570Y270589D02*
X369133Y270532D01*
X367542Y269873D01*
X366176Y268824D01*
X365127Y267458D01*
X364468Y265867D01*
X364411Y265430D01*
X369570D01*
Y270589D01*
D02*
G37*
G36*
X273050Y278130D02*
X267891D01*
X267948Y277693D01*
X268607Y276102D01*
X269656Y274736D01*
X271022Y273687D01*
X272613Y273028D01*
X273050Y272971D01*
Y278130D01*
D02*
G37*
G36*
X165020Y246429D02*
Y241270D01*
X170179D01*
X170122Y241707D01*
X169463Y243298D01*
X168414Y244664D01*
X167048Y245713D01*
X165457Y246372D01*
X165020Y246429D01*
D02*
G37*
G36*
X369570Y250269D02*
X369133Y250212D01*
X367542Y249553D01*
X366176Y248504D01*
X365127Y247138D01*
X364468Y245547D01*
X364411Y245110D01*
X369570D01*
Y250269D01*
D02*
G37*
G36*
Y262890D02*
X364411D01*
X364468Y262453D01*
X365127Y260862D01*
X366176Y259496D01*
X367542Y258447D01*
X369133Y257788D01*
X369570Y257731D01*
Y262890D01*
D02*
G37*
G36*
X323730Y46429D02*
X323293Y46372D01*
X321702Y45713D01*
X320336Y44664D01*
X319287Y43298D01*
X318628Y41707D01*
X318571Y41270D01*
X323730D01*
Y46429D01*
D02*
G37*
G36*
X326270D02*
Y41270D01*
X331429D01*
X331372Y41707D01*
X330713Y43298D01*
X329664Y44664D01*
X328298Y45713D01*
X326707Y46372D01*
X326270Y46429D01*
D02*
G37*
G36*
X348730Y38730D02*
X343571D01*
X343628Y38293D01*
X344287Y36702D01*
X345336Y35336D01*
X346702Y34287D01*
X348293Y33628D01*
X348730Y33571D01*
Y38730D01*
D02*
G37*
G36*
X323730D02*
X318571D01*
X318628Y38293D01*
X319287Y36702D01*
X320336Y35336D01*
X321702Y34287D01*
X323293Y33628D01*
X323730Y33571D01*
Y38730D01*
D02*
G37*
G36*
X331429D02*
X326270D01*
Y33571D01*
X326707Y33628D01*
X328298Y34287D01*
X329664Y35336D01*
X330713Y36702D01*
X331372Y38293D01*
X331429Y38730D01*
D02*
G37*
G36*
X348730Y46429D02*
X348293Y46372D01*
X346702Y45713D01*
X345336Y44664D01*
X344287Y43298D01*
X343628Y41707D01*
X343571Y41270D01*
X348730D01*
Y46429D01*
D02*
G37*
G36*
X344170Y85090D02*
X339011D01*
X339068Y84653D01*
X339727Y83062D01*
X340776Y81696D01*
X342142Y80647D01*
X343733Y79988D01*
X344170Y79931D01*
Y85090D01*
D02*
G37*
G36*
X351270Y46429D02*
Y41270D01*
X356429D01*
X356372Y41707D01*
X355713Y43298D01*
X354664Y44664D01*
X353298Y45713D01*
X351707Y46372D01*
X351270Y46429D01*
D02*
G37*
G36*
X351869Y85090D02*
X346710D01*
Y79931D01*
X347147Y79988D01*
X348738Y80647D01*
X350104Y81696D01*
X351153Y83062D01*
X351812Y84653D01*
X351869Y85090D01*
D02*
G37*
G36*
X306730Y147730D02*
X301571D01*
X301628Y147293D01*
X302287Y145702D01*
X303336Y144336D01*
X304702Y143287D01*
X306293Y142628D01*
X306730Y142571D01*
Y147730D01*
D02*
G37*
G36*
X314429D02*
X309270D01*
Y142571D01*
X309707Y142628D01*
X311298Y143287D01*
X312664Y144336D01*
X313713Y145702D01*
X314372Y147293D01*
X314429Y147730D01*
D02*
G37*
G36*
X364560Y195335D02*
X360238Y194995D01*
X356023Y193983D01*
X352018Y192324D01*
X348322Y190059D01*
X345026Y187244D01*
X342211Y183948D01*
X339946Y180252D01*
X338287Y176247D01*
X337275Y172031D01*
X336935Y167710D01*
X337275Y163389D01*
X338287Y159173D01*
X339946Y155168D01*
X342211Y151472D01*
X345026Y148176D01*
X348322Y145361D01*
X352018Y143096D01*
X356023Y141437D01*
X360238Y140425D01*
X364560Y140085D01*
X368881Y140425D01*
X373097Y141437D01*
X377102Y143096D01*
X380798Y145361D01*
X384094Y148176D01*
X386909Y151472D01*
X389174Y155168D01*
X390833Y159173D01*
X391845Y163389D01*
X392185Y167710D01*
X391845Y172031D01*
X390833Y176247D01*
X389174Y180252D01*
X386909Y183948D01*
X384094Y187244D01*
X380798Y190059D01*
X377102Y192324D01*
X373097Y193983D01*
X368881Y194995D01*
X364560Y195335D01*
D02*
G37*
G36*
X306730Y155429D02*
X306293Y155372D01*
X304702Y154713D01*
X303336Y153664D01*
X302287Y152298D01*
X301628Y150707D01*
X301571Y150270D01*
X306730D01*
Y155429D01*
D02*
G37*
G36*
X232980Y170210D02*
X227821D01*
X227878Y169773D01*
X228537Y168182D01*
X229586Y166816D01*
X230952Y165767D01*
X232543Y165108D01*
X232980Y165051D01*
Y170210D01*
D02*
G37*
G36*
X240679D02*
X235520D01*
Y165051D01*
X235957Y165108D01*
X237548Y165767D01*
X238914Y166816D01*
X239963Y168182D01*
X240622Y169773D01*
X240679Y170210D01*
D02*
G37*
G36*
X64679Y169730D02*
X59520D01*
Y164571D01*
X59957Y164628D01*
X61548Y165287D01*
X62914Y166336D01*
X63963Y167702D01*
X64622Y169293D01*
X64679Y169730D01*
D02*
G37*
G36*
X309270Y155429D02*
Y150270D01*
X314429D01*
X314372Y150707D01*
X313713Y152298D01*
X312664Y153664D01*
X311298Y154713D01*
X309707Y155372D01*
X309270Y155429D01*
D02*
G37*
G36*
X56980Y169730D02*
X51821D01*
X51878Y169293D01*
X52537Y167702D01*
X53586Y166336D01*
X54952Y165287D01*
X56543Y164628D01*
X56980Y164571D01*
Y169730D01*
D02*
G37*
G36*
X377190Y118189D02*
Y113030D01*
X382349D01*
X382292Y113467D01*
X381633Y115058D01*
X380584Y116424D01*
X379218Y117473D01*
X377627Y118132D01*
X377190Y118189D01*
D02*
G37*
G36*
X346710Y92789D02*
Y87630D01*
X351869D01*
X351812Y88067D01*
X351153Y89658D01*
X350104Y91024D01*
X348738Y92073D01*
X347147Y92732D01*
X346710Y92789D01*
D02*
G37*
G36*
X344170Y110490D02*
X339011D01*
X339068Y110053D01*
X339727Y108462D01*
X340776Y107096D01*
X342142Y106047D01*
X343733Y105388D01*
X344170Y105331D01*
Y110490D01*
D02*
G37*
G36*
Y92789D02*
X343733Y92732D01*
X342142Y92073D01*
X340776Y91024D01*
X339727Y89658D01*
X339068Y88067D01*
X339011Y87630D01*
X344170D01*
Y92789D01*
D02*
G37*
G36*
X351869Y110490D02*
X346710D01*
Y105331D01*
X347147Y105388D01*
X348738Y106047D01*
X350104Y107096D01*
X351153Y108462D01*
X351812Y110053D01*
X351869Y110490D01*
D02*
G37*
G36*
X346710Y118189D02*
Y113030D01*
X351869D01*
X351812Y113467D01*
X351153Y115058D01*
X350104Y116424D01*
X348738Y117473D01*
X347147Y118132D01*
X346710Y118189D01*
D02*
G37*
G36*
X374650D02*
X374213Y118132D01*
X372622Y117473D01*
X371256Y116424D01*
X370207Y115058D01*
X369548Y113467D01*
X369491Y113030D01*
X374650D01*
Y118189D01*
D02*
G37*
G36*
X344170D02*
X343733Y118132D01*
X342142Y117473D01*
X340776Y116424D01*
X339727Y115058D01*
X339068Y113467D01*
X339011Y113030D01*
X344170D01*
Y118189D01*
D02*
G37*
G36*
X374650Y110490D02*
X369491D01*
X369548Y110053D01*
X370207Y108462D01*
X371256Y107096D01*
X372622Y106047D01*
X374213Y105388D01*
X374650Y105331D01*
Y110490D01*
D02*
G37*
G36*
X382349D02*
X377190D01*
Y105331D01*
X377627Y105388D01*
X379218Y106047D01*
X380584Y107096D01*
X381633Y108462D01*
X382292Y110053D01*
X382349Y110490D01*
D02*
G37*
G36*
X265509Y298450D02*
X260350D01*
Y293291D01*
X260787Y293348D01*
X262378Y294007D01*
X263744Y295056D01*
X264793Y296422D01*
X265452Y298013D01*
X265509Y298450D01*
D02*
G37*
G36*
X132730Y463429D02*
X132293Y463372D01*
X130702Y462713D01*
X129336Y461664D01*
X128287Y460298D01*
X127628Y458707D01*
X127571Y458270D01*
X132730D01*
Y463429D01*
D02*
G37*
G36*
X135270D02*
Y458270D01*
X140429D01*
X140372Y458707D01*
X139713Y460298D01*
X138664Y461664D01*
X137298Y462713D01*
X135707Y463372D01*
X135270Y463429D01*
D02*
G37*
G36*
X140429Y455730D02*
X135270D01*
Y450571D01*
X135707Y450628D01*
X137298Y451287D01*
X138664Y452336D01*
X139713Y453702D01*
X140372Y455293D01*
X140429Y455730D01*
D02*
G37*
G36*
X248055Y454720D02*
X239285D01*
Y448950D01*
X248055D01*
Y454720D01*
D02*
G37*
G36*
X132730Y455730D02*
X127571D01*
X127628Y455293D01*
X128287Y453702D01*
X129336Y452336D01*
X130702Y451287D01*
X132293Y450628D01*
X132730Y450571D01*
Y455730D01*
D02*
G37*
G36*
X34290Y466090D02*
X29131D01*
X29188Y465653D01*
X29847Y464062D01*
X30896Y462696D01*
X32262Y461647D01*
X33853Y460988D01*
X34290Y460931D01*
Y466090D01*
D02*
G37*
G36*
X297055Y496030D02*
X276975D01*
Y487469D01*
X259391Y469885D01*
X237643D01*
X236796Y472004D01*
X236733Y472425D01*
X237712Y473701D01*
X238371Y475292D01*
X238429Y475729D01*
X231999D01*
Y478269D01*
X238429D01*
X238371Y478706D01*
X238080Y479410D01*
X239170Y481544D01*
X239646Y481950D01*
X248055D01*
Y496030D01*
X227975D01*
Y492875D01*
X209945D01*
X208458Y492579D01*
X207198Y491737D01*
X199995Y484533D01*
X198443Y485004D01*
X197486Y485617D01*
X197169Y488032D01*
X196107Y490596D01*
X194417Y492797D01*
X192215Y494487D01*
X189652Y495549D01*
X186900Y495911D01*
X184149Y495549D01*
X181584Y494487D01*
X179383Y492797D01*
X177693Y490596D01*
X176631Y488032D01*
X176269Y485280D01*
X176631Y482528D01*
X177693Y479964D01*
X178430Y479005D01*
X177177Y476465D01*
X172580D01*
X171093Y476169D01*
X169833Y475327D01*
X131003Y436497D01*
X130161Y435237D01*
X129865Y433750D01*
Y416115D01*
X81069Y367319D01*
X51490D01*
Y373475D01*
X37410D01*
Y353395D01*
X51490D01*
Y359550D01*
X82678D01*
X84165Y359846D01*
X85425Y360688D01*
X136497Y411759D01*
X137339Y413020D01*
X137635Y414506D01*
Y432141D01*
X173820Y468326D01*
X176360Y467804D01*
Y449340D01*
X191646D01*
X195505Y445481D01*
Y440484D01*
X192965Y439231D01*
X192215Y439807D01*
X189652Y440869D01*
X186900Y441231D01*
X184149Y440869D01*
X181584Y439807D01*
X179383Y438117D01*
X177693Y435915D01*
X176631Y433352D01*
X176269Y430600D01*
X176631Y427849D01*
X177693Y425285D01*
X179383Y423083D01*
X181584Y421393D01*
X184149Y420331D01*
X186900Y419969D01*
X189652Y420331D01*
X192215Y421393D01*
X192965Y421969D01*
X195505Y420716D01*
Y288290D01*
X195801Y286803D01*
X196643Y285543D01*
X223402Y258784D01*
X223274Y257810D01*
X223498Y256103D01*
X224157Y254512D01*
X225206Y253146D01*
X226572Y252097D01*
X228163Y251438D01*
X229870Y251214D01*
X231577Y251438D01*
X233168Y252097D01*
X234534Y253146D01*
X235583Y254512D01*
X236242Y256103D01*
X236466Y257810D01*
X236242Y259517D01*
X235583Y261108D01*
X234534Y262474D01*
X233168Y263523D01*
X231577Y264182D01*
X229870Y264406D01*
X228896Y264278D01*
X203275Y289899D01*
Y421038D01*
X205815Y422291D01*
X206985Y421393D01*
X208415Y420801D01*
Y416900D01*
X208711Y415413D01*
X209553Y414153D01*
X213285Y410421D01*
Y362133D01*
X212506Y361534D01*
X211457Y360168D01*
X210798Y358577D01*
X210574Y356870D01*
X210798Y355163D01*
X211457Y353572D01*
X212506Y352206D01*
X213872Y351157D01*
X215463Y350498D01*
X217170Y350274D01*
X218877Y350498D01*
X220468Y351157D01*
X221834Y352206D01*
X222883Y353572D01*
X223542Y355163D01*
X223766Y356870D01*
X223542Y358577D01*
X222883Y360168D01*
X221834Y361534D01*
X221055Y362133D01*
Y412030D01*
X220759Y413517D01*
X219917Y414777D01*
X216240Y418454D01*
X216485Y420925D01*
X217616Y421393D01*
X219817Y423083D01*
X221507Y425285D01*
X222569Y427849D01*
X222931Y430600D01*
X222569Y433352D01*
X221507Y435915D01*
X219817Y438117D01*
X217616Y439807D01*
X215051Y440869D01*
X212300Y441231D01*
X209548Y440869D01*
X206985Y439807D01*
X205815Y438909D01*
X203275Y440162D01*
Y447090D01*
X202979Y448577D01*
X202137Y449837D01*
X199141Y452833D01*
X199137Y452840D01*
X199229Y453252D01*
X199377Y453457D01*
X202152Y454687D01*
X202293Y454628D01*
X204000Y454404D01*
X205707Y454628D01*
X207298Y455287D01*
X207334Y455315D01*
X209710Y455710D01*
X209710Y455710D01*
X224290D01*
Y462115D01*
X227975D01*
Y457260D01*
X248055D01*
Y462115D01*
X261000D01*
X262487Y462411D01*
X263747Y463253D01*
X282444Y481950D01*
X297055D01*
Y496030D01*
D02*
G37*
G36*
X336000Y495911D02*
X333248Y495549D01*
X330685Y494487D01*
X328483Y492797D01*
X326793Y490596D01*
X325731Y488032D01*
X325369Y485280D01*
X325731Y482528D01*
X326793Y479964D01*
X328483Y477763D01*
X330685Y476073D01*
X333248Y475011D01*
X336000Y474649D01*
X338751Y475011D01*
X341315Y476073D01*
X343517Y477763D01*
X345207Y479964D01*
X346269Y482528D01*
X346631Y485280D01*
X346269Y488032D01*
X345207Y490596D01*
X343517Y492797D01*
X341315Y494487D01*
X338751Y495549D01*
X336000Y495911D01*
D02*
G37*
G36*
X36830Y473789D02*
Y468630D01*
X41989D01*
X41932Y469067D01*
X41273Y470658D01*
X40224Y472024D01*
X38858Y473073D01*
X37267Y473732D01*
X36830Y473789D01*
D02*
G37*
G36*
X41989Y466090D02*
X36830D01*
Y460931D01*
X37267Y460988D01*
X38858Y461647D01*
X40224Y462696D01*
X41273Y464062D01*
X41932Y465653D01*
X41989Y466090D01*
D02*
G37*
G36*
X34290Y473789D02*
X33853Y473732D01*
X32262Y473073D01*
X30896Y472024D01*
X29847Y470658D01*
X29188Y469067D01*
X29131Y468630D01*
X34290D01*
Y473789D01*
D02*
G37*
G36*
X236745Y454720D02*
X227975D01*
Y448950D01*
X236745D01*
Y454720D01*
D02*
G37*
G36*
X161500Y441231D02*
X158749Y440869D01*
X156185Y439807D01*
X153983Y438117D01*
X152293Y435915D01*
X151231Y433352D01*
X150869Y430600D01*
X151231Y427849D01*
X152293Y425285D01*
X153983Y423083D01*
X156185Y421393D01*
X158749Y420331D01*
X161500Y419969D01*
X164251Y420331D01*
X166815Y421393D01*
X169017Y423083D01*
X170707Y425285D01*
X171769Y427849D01*
X172131Y430600D01*
X171769Y433352D01*
X170707Y435915D01*
X169017Y438117D01*
X166815Y439807D01*
X164251Y440869D01*
X161500Y441231D01*
D02*
G37*
G36*
X263100D02*
X260348Y440869D01*
X257785Y439807D01*
X255583Y438117D01*
X253893Y435915D01*
X252831Y433352D01*
X252469Y430600D01*
X252831Y427849D01*
X253893Y425285D01*
X255583Y423083D01*
X257785Y421393D01*
X260348Y420331D01*
X263100Y419969D01*
X265851Y420331D01*
X268416Y421393D01*
X270617Y423083D01*
X272307Y425285D01*
X273369Y427849D01*
X273731Y430600D01*
X273369Y433352D01*
X272307Y435915D01*
X270617Y438117D01*
X268416Y439807D01*
X265851Y440869D01*
X263100Y441231D01*
D02*
G37*
G36*
X163830Y412829D02*
Y407670D01*
X168989D01*
X168932Y408107D01*
X168273Y409698D01*
X167224Y411064D01*
X165858Y412113D01*
X164267Y412772D01*
X163830Y412829D01*
D02*
G37*
G36*
X168989Y405130D02*
X163830D01*
Y399971D01*
X164267Y400028D01*
X165858Y400687D01*
X167224Y401736D01*
X168273Y403102D01*
X168932Y404693D01*
X168989Y405130D01*
D02*
G37*
G36*
X161290Y412829D02*
X160853Y412772D01*
X159262Y412113D01*
X157896Y411064D01*
X156847Y409698D01*
X156188Y408107D01*
X156131Y407670D01*
X161290D01*
Y412829D01*
D02*
G37*
G36*
X287230Y429330D02*
X277960D01*
Y420060D01*
X287230D01*
Y429330D01*
D02*
G37*
G36*
X372730Y438730D02*
X367571D01*
X367628Y438293D01*
X368287Y436702D01*
X369336Y435336D01*
X370702Y434287D01*
X372293Y433628D01*
X372730Y433571D01*
Y438730D01*
D02*
G37*
G36*
Y446429D02*
X372293Y446372D01*
X370702Y445713D01*
X369336Y444664D01*
X368287Y443298D01*
X367628Y441707D01*
X367571Y441270D01*
X372730D01*
Y446429D01*
D02*
G37*
G36*
X299040Y441140D02*
X289770D01*
Y431870D01*
X299040D01*
Y441140D01*
D02*
G37*
G36*
Y429330D02*
X289770D01*
Y420060D01*
X299040D01*
Y429330D01*
D02*
G37*
G36*
X287230Y441140D02*
X277960D01*
Y431870D01*
X287230D01*
Y441140D01*
D02*
G37*
G36*
X13970Y486410D02*
X8811D01*
X8868Y485973D01*
X9527Y484382D01*
X10576Y483016D01*
X11942Y481967D01*
X13533Y481308D01*
X13970Y481251D01*
Y486410D01*
D02*
G37*
G36*
X54610Y494109D02*
X54173Y494052D01*
X52582Y493393D01*
X51216Y492344D01*
X50167Y490978D01*
X49508Y489387D01*
X49451Y488950D01*
X54610D01*
Y494109D01*
D02*
G37*
G36*
X57150D02*
Y488950D01*
X62309D01*
X62252Y489387D01*
X61593Y490978D01*
X60544Y492344D01*
X59178Y493393D01*
X57587Y494052D01*
X57150Y494109D01*
D02*
G37*
G36*
X36830D02*
Y488950D01*
X41989D01*
X41932Y489387D01*
X41273Y490978D01*
X40224Y492344D01*
X38858Y493393D01*
X37267Y494052D01*
X36830Y494109D01*
D02*
G37*
G36*
X16510D02*
Y488950D01*
X21669D01*
X21612Y489387D01*
X20953Y490978D01*
X19904Y492344D01*
X18538Y493393D01*
X16947Y494052D01*
X16510Y494109D01*
D02*
G37*
G36*
X34290D02*
X33853Y494052D01*
X32262Y493393D01*
X30896Y492344D01*
X29847Y490978D01*
X29188Y489387D01*
X29131Y488950D01*
X34290D01*
Y494109D01*
D02*
G37*
G36*
X74930D02*
X74493Y494052D01*
X72902Y493393D01*
X71536Y492344D01*
X70487Y490978D01*
X69828Y489387D01*
X69771Y488950D01*
X74930D01*
Y494109D01*
D02*
G37*
G36*
X115570D02*
X115133Y494052D01*
X113542Y493393D01*
X112176Y492344D01*
X111127Y490978D01*
X110468Y489387D01*
X110411Y488950D01*
X115570D01*
Y494109D01*
D02*
G37*
G36*
X118110D02*
Y488950D01*
X123269D01*
X123212Y489387D01*
X122553Y490978D01*
X121504Y492344D01*
X120138Y493393D01*
X118547Y494052D01*
X118110Y494109D01*
D02*
G37*
G36*
X97790D02*
Y488950D01*
X102949D01*
X102892Y489387D01*
X102233Y490978D01*
X101184Y492344D01*
X99818Y493393D01*
X98227Y494052D01*
X97790Y494109D01*
D02*
G37*
G36*
X77470D02*
Y488950D01*
X82629D01*
X82572Y489387D01*
X81913Y490978D01*
X80864Y492344D01*
X79498Y493393D01*
X77907Y494052D01*
X77470Y494109D01*
D02*
G37*
G36*
X95250D02*
X94813Y494052D01*
X93222Y493393D01*
X91856Y492344D01*
X90807Y490978D01*
X90148Y489387D01*
X90091Y488950D01*
X95250D01*
Y494109D01*
D02*
G37*
G36*
X13970D02*
X13533Y494052D01*
X11942Y493393D01*
X10576Y492344D01*
X9527Y490978D01*
X8868Y489387D01*
X8811Y488950D01*
X13970D01*
Y494109D01*
D02*
G37*
G36*
X54610Y486410D02*
X49451D01*
X49508Y485973D01*
X50167Y484382D01*
X51216Y483016D01*
X52582Y481967D01*
X54173Y481308D01*
X54610Y481251D01*
Y486410D01*
D02*
G37*
G36*
X62309D02*
X57150D01*
Y481251D01*
X57587Y481308D01*
X59178Y481967D01*
X60544Y483016D01*
X61593Y484382D01*
X62252Y485973D01*
X62309Y486410D01*
D02*
G37*
G36*
X41989D02*
X36830D01*
Y481251D01*
X37267Y481308D01*
X38858Y481967D01*
X40224Y483016D01*
X41273Y484382D01*
X41932Y485973D01*
X41989Y486410D01*
D02*
G37*
G36*
X21669D02*
X16510D01*
Y481251D01*
X16947Y481308D01*
X18538Y481967D01*
X19904Y483016D01*
X20953Y484382D01*
X21612Y485973D01*
X21669Y486410D01*
D02*
G37*
G36*
X34290D02*
X29131D01*
X29188Y485973D01*
X29847Y484382D01*
X30896Y483016D01*
X32262Y481967D01*
X33853Y481308D01*
X34290Y481251D01*
Y486410D01*
D02*
G37*
G36*
X74930D02*
X69771D01*
X69828Y485973D01*
X70487Y484382D01*
X71536Y483016D01*
X72902Y481967D01*
X74493Y481308D01*
X74930Y481251D01*
Y486410D01*
D02*
G37*
G36*
X115570D02*
X110411D01*
X110468Y485973D01*
X111127Y484382D01*
X112176Y483016D01*
X113542Y481967D01*
X115133Y481308D01*
X115570Y481251D01*
Y486410D01*
D02*
G37*
G36*
X123269D02*
X118110D01*
Y481251D01*
X118547Y481308D01*
X120138Y481967D01*
X121504Y483016D01*
X122553Y484382D01*
X123212Y485973D01*
X123269Y486410D01*
D02*
G37*
G36*
X102949D02*
X97790D01*
Y481251D01*
X98227Y481308D01*
X99818Y481967D01*
X101184Y483016D01*
X102233Y484382D01*
X102892Y485973D01*
X102949Y486410D01*
D02*
G37*
G36*
X82629D02*
X77470D01*
Y481251D01*
X77907Y481308D01*
X79498Y481967D01*
X80864Y483016D01*
X81913Y484382D01*
X82572Y485973D01*
X82629Y486410D01*
D02*
G37*
G36*
X95250D02*
X90091D01*
X90148Y485973D01*
X90807Y484382D01*
X91856Y483016D01*
X93222Y481967D01*
X94813Y481308D01*
X95250Y481251D01*
Y486410D01*
D02*
G37*
G36*
X161290Y405130D02*
X156131D01*
X156188Y404693D01*
X156847Y403102D01*
X157896Y401736D01*
X159262Y400687D01*
X160853Y400028D01*
X161290Y399971D01*
Y405130D01*
D02*
G37*
G36*
X260350Y326469D02*
Y321310D01*
X265509D01*
X265452Y321747D01*
X264793Y323338D01*
X263744Y324704D01*
X262378Y325753D01*
X260787Y326412D01*
X260350Y326469D01*
D02*
G37*
G36*
X73730Y331540D02*
X64460D01*
Y322270D01*
X73730D01*
Y331540D01*
D02*
G37*
G36*
X257810Y326469D02*
X257373Y326412D01*
X255782Y325753D01*
X254416Y324704D01*
X253367Y323338D01*
X252708Y321747D01*
X252651Y321310D01*
X257810D01*
Y326469D01*
D02*
G37*
G36*
X51490Y324475D02*
X45720D01*
Y315705D01*
X51490D01*
Y324475D01*
D02*
G37*
G36*
X369570Y323850D02*
X364411D01*
X364468Y323413D01*
X365127Y321822D01*
X366176Y320456D01*
X367542Y319407D01*
X369133Y318748D01*
X369570Y318691D01*
Y323850D01*
D02*
G37*
G36*
X85540Y331540D02*
X76270D01*
Y322270D01*
X85540D01*
Y331540D01*
D02*
G37*
G36*
X73730Y343350D02*
X64460D01*
Y334080D01*
X73730D01*
Y343350D01*
D02*
G37*
G36*
X85540D02*
X76270D01*
Y334080D01*
X85540D01*
Y343350D01*
D02*
G37*
G36*
X369570Y331549D02*
X369133Y331492D01*
X367542Y330833D01*
X366176Y329784D01*
X365127Y328418D01*
X364468Y326827D01*
X364411Y326390D01*
X369570D01*
Y331549D01*
D02*
G37*
G36*
X176230Y327679D02*
X175793Y327622D01*
X174202Y326963D01*
X172836Y325914D01*
X171787Y324548D01*
X171128Y322957D01*
X171071Y322520D01*
X176230D01*
Y327679D01*
D02*
G37*
G36*
X178770D02*
Y322520D01*
X183929D01*
X183872Y322957D01*
X183213Y324548D01*
X182164Y325914D01*
X180798Y326963D01*
X179207Y327622D01*
X178770Y327679D01*
D02*
G37*
G36*
X43180Y324475D02*
X37410D01*
Y315705D01*
X43180D01*
Y324475D01*
D02*
G37*
G36*
X260350Y306149D02*
Y300990D01*
X265509D01*
X265452Y301427D01*
X264793Y303018D01*
X263744Y304384D01*
X262378Y305433D01*
X260787Y306092D01*
X260350Y306149D01*
D02*
G37*
G36*
X43180Y313165D02*
X37410D01*
Y304395D01*
X43180D01*
Y313165D01*
D02*
G37*
G36*
X257810Y306149D02*
X257373Y306092D01*
X255782Y305433D01*
X254416Y304384D01*
X253367Y303018D01*
X252708Y301427D01*
X252651Y300990D01*
X257810D01*
Y306149D01*
D02*
G37*
G36*
X75000Y318041D02*
X72249Y317679D01*
X69685Y316617D01*
X67483Y314927D01*
X65793Y312726D01*
X64731Y310161D01*
X64369Y307410D01*
X64731Y304659D01*
X65793Y302094D01*
X67483Y299893D01*
X69685Y298203D01*
X72249Y297141D01*
X75000Y296779D01*
X77751Y297141D01*
X80316Y298203D01*
X82517Y299893D01*
X84207Y302094D01*
X85269Y304659D01*
X85631Y307410D01*
X85269Y310161D01*
X84207Y312726D01*
X82517Y314927D01*
X80316Y316617D01*
X77751Y317679D01*
X75000Y318041D01*
D02*
G37*
G36*
X369570Y303530D02*
X364411D01*
X364468Y303093D01*
X365127Y301502D01*
X366176Y300136D01*
X367542Y299087D01*
X369133Y298428D01*
X369570Y298371D01*
Y303530D01*
D02*
G37*
G36*
X51490Y313165D02*
X45720D01*
Y304395D01*
X51490D01*
Y313165D01*
D02*
G37*
G36*
X176230Y319980D02*
X171071D01*
X171128Y319543D01*
X171787Y317952D01*
X172836Y316586D01*
X174202Y315537D01*
X175793Y314878D01*
X176230Y314821D01*
Y319980D01*
D02*
G37*
G36*
X183929D02*
X178770D01*
Y314821D01*
X179207Y314878D01*
X180798Y315537D01*
X182164Y316586D01*
X183213Y317952D01*
X183872Y319543D01*
X183929Y319980D01*
D02*
G37*
G36*
X265509Y318770D02*
X260350D01*
Y313611D01*
X260787Y313668D01*
X262378Y314327D01*
X263744Y315376D01*
X264793Y316742D01*
X265452Y318333D01*
X265509Y318770D01*
D02*
G37*
G36*
X369570Y311229D02*
X369133Y311172D01*
X367542Y310513D01*
X366176Y309464D01*
X365127Y308098D01*
X364468Y306507D01*
X364411Y306070D01*
X369570D01*
Y311229D01*
D02*
G37*
G36*
X257810Y318770D02*
X252651D01*
X252708Y318333D01*
X253367Y316742D01*
X254416Y315376D01*
X255782Y314327D01*
X257373Y313668D01*
X257810Y313611D01*
Y318770D01*
D02*
G37*
G36*
X369570Y344170D02*
X364411D01*
X364468Y343733D01*
X365127Y342142D01*
X366176Y340776D01*
X367542Y339727D01*
X369133Y339068D01*
X369570Y339011D01*
Y344170D01*
D02*
G37*
G36*
X54610Y389890D02*
X49451D01*
X49508Y389453D01*
X50167Y387862D01*
X51216Y386496D01*
X52582Y385447D01*
X54173Y384788D01*
X54610Y384731D01*
Y389890D01*
D02*
G37*
G36*
X62309D02*
X57150D01*
Y384731D01*
X57587Y384788D01*
X59178Y385447D01*
X60544Y386496D01*
X61593Y387862D01*
X62252Y389453D01*
X62309Y389890D01*
D02*
G37*
G36*
X168989Y384810D02*
X163830D01*
Y379651D01*
X164267Y379708D01*
X165858Y380367D01*
X167224Y381416D01*
X168273Y382782D01*
X168932Y384373D01*
X168989Y384810D01*
D02*
G37*
G36*
X43290Y383730D02*
X37270D01*
Y377710D01*
X43290D01*
Y383730D01*
D02*
G37*
G36*
X161290Y384810D02*
X156131D01*
X156188Y384373D01*
X156847Y382782D01*
X157896Y381416D01*
X159262Y380367D01*
X160853Y379708D01*
X161290Y379651D01*
Y384810D01*
D02*
G37*
G36*
X37270Y392290D02*
Y386270D01*
X43290D01*
Y392290D01*
X37270D01*
D02*
G37*
G36*
X57150Y397589D02*
Y392430D01*
X62309D01*
X62252Y392867D01*
X61593Y394458D01*
X60544Y395824D01*
X59178Y396873D01*
X57587Y397532D01*
X57150Y397589D01*
D02*
G37*
G36*
X85160Y451875D02*
X80838Y451535D01*
X76623Y450523D01*
X72618Y448864D01*
X68922Y446599D01*
X65626Y443784D01*
X62811Y440488D01*
X60546Y436792D01*
X58887Y432787D01*
X57875Y428572D01*
X57535Y424250D01*
X57875Y419929D01*
X58887Y415713D01*
X60546Y411708D01*
X62811Y408012D01*
X65626Y404716D01*
X68922Y401901D01*
X72618Y399636D01*
X76623Y397977D01*
X80838Y396965D01*
X85160Y396625D01*
X89481Y396965D01*
X93697Y397977D01*
X97702Y399636D01*
X101398Y401901D01*
X104694Y404716D01*
X107509Y408012D01*
X109774Y411708D01*
X111433Y415713D01*
X112445Y419929D01*
X112785Y424250D01*
X112445Y428572D01*
X111433Y432787D01*
X109774Y436792D01*
X107509Y440488D01*
X104694Y443784D01*
X101398Y446599D01*
X97702Y448864D01*
X93697Y450523D01*
X89481Y451535D01*
X85160Y451875D01*
D02*
G37*
G36*
X54610Y397589D02*
X54173Y397532D01*
X52582Y396873D01*
X51216Y395824D01*
X50167Y394458D01*
X49508Y392867D01*
X49451Y392430D01*
X54610D01*
Y397589D01*
D02*
G37*
G36*
X161290Y392509D02*
X160853Y392452D01*
X159262Y391793D01*
X157896Y390744D01*
X156847Y389378D01*
X156188Y387787D01*
X156131Y387350D01*
X161290D01*
Y392509D01*
D02*
G37*
G36*
X163830D02*
Y387350D01*
X168989D01*
X168932Y387787D01*
X168273Y389378D01*
X167224Y390744D01*
X165858Y391793D01*
X164267Y392452D01*
X163830Y392509D01*
D02*
G37*
G36*
X321310Y382349D02*
Y377190D01*
X326469D01*
X326412Y377627D01*
X325753Y379218D01*
X324704Y380584D01*
X323338Y381633D01*
X321747Y382292D01*
X321310Y382349D01*
D02*
G37*
G36*
X369570Y372189D02*
X369133Y372132D01*
X367542Y371473D01*
X366176Y370424D01*
X365127Y369058D01*
X364468Y367467D01*
X364411Y367030D01*
X369570D01*
Y372189D01*
D02*
G37*
G36*
X283210Y374650D02*
X278051D01*
X278108Y374213D01*
X278767Y372622D01*
X279816Y371256D01*
X281182Y370207D01*
X282773Y369548D01*
X283210Y369491D01*
Y374650D01*
D02*
G37*
G36*
X369570Y364490D02*
X364411D01*
X364468Y364053D01*
X365127Y362462D01*
X366176Y361096D01*
X367542Y360047D01*
X369133Y359388D01*
X369570Y359331D01*
Y364490D01*
D02*
G37*
G36*
Y351869D02*
X369133Y351812D01*
X367542Y351153D01*
X366176Y350104D01*
X365127Y348738D01*
X364468Y347147D01*
X364411Y346710D01*
X369570D01*
Y351869D01*
D02*
G37*
G36*
X28000Y392290D02*
X26170Y392290D01*
X12710D01*
Y377710D01*
X15868D01*
X17206Y375697D01*
X16189Y373475D01*
X4410D01*
Y353395D01*
X18490D01*
Y355788D01*
X18895Y356263D01*
X21030Y357354D01*
X21733Y357063D01*
X23440Y356838D01*
X25147Y357063D01*
X26738Y357722D01*
X28104Y358770D01*
X29153Y360137D01*
X29812Y361727D01*
X30036Y363435D01*
X29812Y365142D01*
X29153Y366733D01*
X28104Y368099D01*
X27325Y368698D01*
Y375560D01*
X27321Y375793D01*
X29408Y377710D01*
X29830Y377710D01*
X34730D01*
Y385000D01*
Y392290D01*
X29830D01*
X28000Y392290D01*
D02*
G37*
G36*
X290909Y374650D02*
X285750D01*
Y369491D01*
X286187Y369548D01*
X287778Y370207D01*
X289144Y371256D01*
X290193Y372622D01*
X290852Y374213D01*
X290909Y374650D01*
D02*
G37*
G36*
X285750Y382349D02*
Y377190D01*
X290909D01*
X290852Y377627D01*
X290193Y379218D01*
X289144Y380584D01*
X287778Y381633D01*
X286187Y382292D01*
X285750Y382349D01*
D02*
G37*
G36*
X318770D02*
X318333Y382292D01*
X316742Y381633D01*
X315376Y380584D01*
X314327Y379218D01*
X313668Y377627D01*
X313611Y377190D01*
X318770D01*
Y382349D01*
D02*
G37*
G36*
X283210D02*
X282773Y382292D01*
X281182Y381633D01*
X279816Y380584D01*
X278767Y379218D01*
X278108Y377627D01*
X278051Y377190D01*
X283210D01*
Y382349D01*
D02*
G37*
G36*
X318770Y374650D02*
X313611D01*
X313668Y374213D01*
X314327Y372622D01*
X315376Y371256D01*
X316742Y370207D01*
X318333Y369548D01*
X318770Y369491D01*
Y374650D01*
D02*
G37*
G36*
X326469D02*
X321310D01*
Y369491D01*
X321747Y369548D01*
X323338Y370207D01*
X324704Y371256D01*
X325753Y372622D01*
X326412Y374213D01*
X326469Y374650D01*
D02*
G37*
G36*
X443309Y80010D02*
X438150D01*
Y74851D01*
X438587Y74908D01*
X440178Y75567D01*
X441544Y76616D01*
X442593Y77982D01*
X443252Y79573D01*
X443309Y80010D01*
D02*
G37*
G36*
X435610D02*
X430451D01*
X430508Y79573D01*
X431167Y77982D01*
X432216Y76616D01*
X433582Y75567D01*
X435173Y74908D01*
X435610Y74851D01*
Y80010D01*
D02*
G37*
G36*
X420000Y75148D02*
X416726Y74717D01*
X413676Y73454D01*
X411056Y71444D01*
X409046Y68824D01*
X407783Y65774D01*
X407352Y62500D01*
X407783Y59226D01*
X409046Y56176D01*
X411056Y53556D01*
X413676Y51546D01*
X416726Y50283D01*
X420000Y49852D01*
X423274Y50283D01*
X426324Y51546D01*
X428944Y53556D01*
X430954Y56176D01*
X432217Y59226D01*
X432648Y62500D01*
X432217Y65774D01*
X430954Y68824D01*
X428944Y71444D01*
X426324Y73454D01*
X423274Y74717D01*
X420000Y75148D01*
D02*
G37*
G36*
X433070Y36909D02*
Y31750D01*
X438229D01*
X438172Y32187D01*
X437513Y33778D01*
X436464Y35144D01*
X435098Y36193D01*
X433507Y36852D01*
X433070Y36909D01*
D02*
G37*
G36*
X412829Y24130D02*
X407670D01*
Y18971D01*
X408107Y19028D01*
X409698Y19687D01*
X411064Y20736D01*
X412113Y22102D01*
X412772Y23693D01*
X412829Y24130D01*
D02*
G37*
G36*
X379730Y26749D02*
X379293Y26692D01*
X377702Y26033D01*
X376336Y24984D01*
X375287Y23618D01*
X374628Y22027D01*
X374571Y21590D01*
X379730D01*
Y26749D01*
D02*
G37*
G36*
X405130Y24130D02*
X399971D01*
X400028Y23693D01*
X400687Y22102D01*
X401736Y20736D01*
X403102Y19687D01*
X404693Y19028D01*
X405130Y18971D01*
Y24130D01*
D02*
G37*
G36*
X379730Y19050D02*
X374571D01*
X374628Y18613D01*
X375287Y17022D01*
X376336Y15656D01*
X377702Y14607D01*
X379293Y13948D01*
X379730Y13891D01*
Y19050D01*
D02*
G37*
G36*
X387429D02*
X382270D01*
Y13891D01*
X382707Y13948D01*
X384298Y14607D01*
X385664Y15656D01*
X386713Y17022D01*
X387372Y18613D01*
X387429Y19050D01*
D02*
G37*
G36*
X382270Y26749D02*
Y21590D01*
X387429D01*
X387372Y22027D01*
X386713Y23618D01*
X385664Y24984D01*
X384298Y26033D01*
X382707Y26692D01*
X382270Y26749D01*
D02*
G37*
G36*
X407670Y31829D02*
Y26670D01*
X412829D01*
X412772Y27107D01*
X412113Y28698D01*
X411064Y30064D01*
X409698Y31113D01*
X408107Y31772D01*
X407670Y31829D01*
D02*
G37*
G36*
X430530Y36909D02*
X430093Y36852D01*
X428502Y36193D01*
X427136Y35144D01*
X426087Y33778D01*
X425428Y32187D01*
X425371Y31750D01*
X430530D01*
Y36909D01*
D02*
G37*
G36*
X405130Y31829D02*
X404693Y31772D01*
X403102Y31113D01*
X401736Y30064D01*
X400687Y28698D01*
X400028Y27107D01*
X399971Y26670D01*
X405130D01*
Y31829D01*
D02*
G37*
G36*
X430530Y29210D02*
X425371D01*
X425428Y28773D01*
X426087Y27182D01*
X427136Y25816D01*
X428502Y24767D01*
X430093Y24108D01*
X430530Y24051D01*
Y29210D01*
D02*
G37*
G36*
X438229D02*
X433070D01*
Y24051D01*
X433507Y24108D01*
X435098Y24767D01*
X436464Y25816D01*
X437513Y27182D01*
X438172Y28773D01*
X438229Y29210D01*
D02*
G37*
G36*
X413730Y121290D02*
X407710D01*
Y115270D01*
X413730D01*
Y121290D01*
D02*
G37*
G36*
X445540Y145190D02*
X431460D01*
Y125110D01*
X432041D01*
X433142Y122570D01*
X432092Y121290D01*
X423710D01*
Y121290D01*
X422290D01*
Y121290D01*
X416270D01*
Y114000D01*
X415000D01*
Y112730D01*
X407710D01*
Y106710D01*
X407710D01*
X408287Y104298D01*
X407628Y102707D01*
X407404Y101000D01*
X407628Y99293D01*
X408287Y97702D01*
X409336Y96336D01*
X410702Y95287D01*
X412293Y94628D01*
X414000Y94404D01*
X415707Y94628D01*
X417298Y95287D01*
X418664Y96336D01*
X419263Y97115D01*
X428000D01*
X429487Y97411D01*
X430747Y98253D01*
X433747Y101253D01*
X434589Y102513D01*
X434885Y104000D01*
Y106710D01*
X438290D01*
Y115796D01*
X441247Y118753D01*
X442089Y120013D01*
X442385Y121500D01*
Y125110D01*
X445540D01*
Y145190D01*
D02*
G37*
G36*
X435610Y87709D02*
X435173Y87652D01*
X433582Y86993D01*
X432216Y85944D01*
X431167Y84578D01*
X430508Y82987D01*
X430451Y82550D01*
X435610D01*
Y87709D01*
D02*
G37*
G36*
X438150D02*
Y82550D01*
X443309D01*
X443252Y82987D01*
X442593Y84578D01*
X441544Y85944D01*
X440178Y86993D01*
X438587Y87652D01*
X438150Y87709D01*
D02*
G37*
%LPD*%
D11*
X217000Y463000D02*
D03*
Y479000D02*
D03*
X281000Y39000D02*
D03*
Y23000D02*
D03*
D16*
X20000Y293000D02*
D03*
X36000D02*
D03*
D18*
X20000Y385000D02*
D03*
X36000D02*
D03*
X431000Y114000D02*
D03*
X415000D02*
D03*
D27*
X59000Y115000D02*
X84000Y140000D01*
X117500D01*
X59000Y45000D02*
X84001Y20000D01*
X117500D01*
X59000Y80000D02*
X94250D01*
X109250Y95000D01*
X244500D01*
X259500Y80000D01*
D29*
X339300Y278340D02*
Y430600D01*
X327660Y266700D02*
X339300Y278340D01*
X212300Y416900D02*
Y430600D01*
X186900Y459580D02*
Y459880D01*
Y459580D02*
X199390Y447090D01*
X217170Y356870D02*
Y412030D01*
X212300Y416900D02*
X217170Y412030D01*
X438500Y180690D02*
Y184150D01*
X303530Y194310D02*
X326390D01*
X237700Y284690D02*
Y430600D01*
X299720Y190500D02*
X303530Y194310D01*
X125800Y205810D02*
X141110Y190500D01*
X100400Y205810D02*
X120790Y185420D01*
X312420D01*
X141110Y190500D02*
X299720D01*
X11450Y363435D02*
X23440D01*
X405500Y132150D02*
Y135150D01*
X73660Y226060D02*
X168910D01*
X327850Y152210D02*
Y181800D01*
Y152210D02*
X347980Y132080D01*
X381000D01*
X425450Y167640D02*
X438500Y180690D01*
X381000Y132080D02*
X416560Y167640D01*
X425450D01*
X391160Y117810D02*
X405500Y132150D01*
X283990Y488990D02*
X287015D01*
X327850Y181800D02*
X353250Y207200D01*
X44450Y363435D02*
X82678D01*
X199390Y288290D02*
Y447090D01*
Y288290D02*
X229870Y257810D01*
X201000Y229500D02*
X321250D01*
X336750Y245000D01*
X75000Y256610D02*
X173890D01*
X201000Y229500D01*
X75000Y282010D02*
X176740D01*
X214910Y243840D01*
X303530D01*
X82678Y363435D02*
X133750Y414506D01*
Y433750D01*
X172580Y472580D01*
X168910Y226060D02*
X181250Y213720D01*
X284000Y52760D02*
X293740Y62500D01*
X355000D01*
X172580Y472580D02*
X193535D01*
X209945Y488990D01*
X238015D01*
X219001Y476999D02*
X231999D01*
X217000Y479000D02*
X219001Y476999D01*
X220000Y466000D02*
X261000D01*
X217000Y463000D02*
X220000Y466000D01*
X261000D02*
X283990Y488990D01*
X204000Y461000D02*
X215000D01*
X217000Y463000D01*
X287015Y455990D02*
X304010D01*
X315000Y445000D01*
X345000D01*
X353250Y436750D01*
Y207200D02*
Y436750D01*
X438500Y121500D02*
Y135150D01*
X431000Y114000D02*
X438500Y121500D01*
X428000Y101000D02*
X431000Y104000D01*
Y114000D01*
X341000Y31000D02*
X350000Y40000D01*
X307999Y22999D02*
X325000Y40000D01*
X211500Y43000D02*
X262510D01*
X162500Y10000D02*
X165500D01*
X177500Y22000D01*
X211500Y10000D02*
X215000Y13500D01*
Y19000D01*
X228000Y32000D01*
X177500Y22000D02*
X210816D01*
X226736Y37920D01*
X228000Y32000D02*
X252000D01*
X226736Y37920D02*
X279920D01*
X281000Y39000D01*
X280999Y22999D02*
X307999D01*
X252000Y32000D02*
X269560Y14440D01*
X341440D01*
X391160Y64160D01*
Y117810D01*
X281000Y39000D02*
X284000Y42000D01*
Y52760D01*
X262510Y43000D02*
X305870Y86360D01*
X345440D01*
X36500Y263220D02*
X73660Y226060D01*
X11500Y311500D02*
Y313690D01*
Y311500D02*
X19999Y303001D01*
Y293001D02*
Y303001D01*
X20000Y379000D02*
Y385000D01*
Y379000D02*
X23440Y375560D01*
Y363435D02*
Y375560D01*
X414000Y101000D02*
X428000D01*
X36500Y263220D02*
Y293001D01*
D32*
X186900Y485280D02*
D03*
X336000D02*
D03*
X75000Y256610D02*
D03*
Y282010D02*
D03*
Y307410D02*
D03*
X161500Y430600D02*
D03*
X339300D02*
D03*
X313900D02*
D03*
X212300D02*
D03*
X186900D02*
D03*
X237700D02*
D03*
X263100D02*
D03*
X49600Y205810D02*
D03*
X75000D02*
D03*
X100400D02*
D03*
X125800D02*
D03*
D33*
X186900Y459880D02*
D03*
X336000D02*
D03*
D34*
X75000Y332810D02*
D03*
X288500Y430600D02*
D03*
X151200Y205810D02*
D03*
D35*
X85160Y424250D02*
D03*
X364560Y167710D02*
D03*
D36*
X259500Y80000D02*
D03*
D37*
X117500Y20000D02*
D03*
X239500Y140000D02*
D03*
X117500Y140000D02*
D03*
D38*
X239500Y20000D02*
D03*
D39*
X59000Y115000D02*
D03*
D40*
Y80000D02*
D03*
Y45000D02*
D03*
D41*
X355000Y62500D02*
D03*
X420000D02*
D03*
D42*
X327660Y266700D02*
D03*
X217170Y356870D02*
D03*
X326390Y194310D02*
D03*
X312420Y185420D02*
D03*
X303530Y243840D02*
D03*
X237700Y284690D02*
D03*
X229870Y257810D02*
D03*
X23440Y363435D02*
D03*
X177500Y321250D02*
D03*
X35560Y467360D02*
D03*
X76200Y487680D02*
D03*
X96520D02*
D03*
X116840D02*
D03*
X55880Y391160D02*
D03*
X162560Y406400D02*
D03*
Y386080D02*
D03*
X370840Y365760D02*
D03*
Y345440D02*
D03*
Y325120D02*
D03*
Y304800D02*
D03*
Y284480D02*
D03*
Y264160D02*
D03*
Y243840D02*
D03*
X320040Y172720D02*
D03*
X436880Y81280D02*
D03*
X375920Y111760D02*
D03*
X345440D02*
D03*
X308000Y149000D02*
D03*
X163750Y240000D02*
D03*
X259080Y320040D02*
D03*
X299720Y279400D02*
D03*
X259080Y299720D02*
D03*
X274320Y279400D02*
D03*
X320040Y375920D02*
D03*
X284480D02*
D03*
X35560Y233680D02*
D03*
X15240Y177800D02*
D03*
X431800Y30480D02*
D03*
X406400Y25400D02*
D03*
X381000Y20320D02*
D03*
X345440Y86360D02*
D03*
X336750Y245000D02*
D03*
X416250Y188250D02*
D03*
X272520Y171480D02*
D03*
X163750Y269250D02*
D03*
X325000Y40000D02*
D03*
X93500Y269250D02*
D03*
X234250Y171480D02*
D03*
X58250Y171000D02*
D03*
X181250Y213720D02*
D03*
X284000Y52760D02*
D03*
X350000Y40000D02*
D03*
X134000Y457000D02*
D03*
X55880Y487680D02*
D03*
X35560D02*
D03*
X15240D02*
D03*
X374000Y440000D02*
D03*
X204000Y461000D02*
D03*
X231999Y476999D02*
D03*
X414000Y101000D02*
D03*
D43*
X238015Y488990D02*
D03*
Y455990D02*
D03*
X287015D02*
D03*
Y488990D02*
D03*
X211500Y10000D02*
D03*
Y43000D02*
D03*
X162500D02*
D03*
Y10000D02*
D03*
D44*
X11450Y363435D02*
D03*
X44450D02*
D03*
Y314435D02*
D03*
X11450D02*
D03*
X438500Y184150D02*
D03*
X405500D02*
D03*
Y135150D02*
D03*
X438500D02*
D03*
M02*
