G04 Layer_Color=65535*
%FSLAX44Y44*%
%MOMM*%
G71*
G01*
G75*
%ADD29C,0.2540*%
%ADD30C,1.0000*%
%ADD45C,0.3000*%
%ADD46C,0.6000*%
%ADD47C,0.2500*%
%ADD48C,0.2000*%
%ADD49C,0.1000*%
%ADD50C,0.1900*%
G36*
X380350Y364350D02*
X367650D01*
X374000Y377050D01*
X380350Y364350D01*
D02*
G37*
D29*
X168468Y320928D02*
G03*
X168468Y320928I-1118J0D01*
G01*
X62300Y243910D02*
X87700D01*
Y345510D01*
X62300D02*
X87700D01*
X62300Y243910D02*
Y345510D01*
X148800Y417900D02*
X250400D01*
X148800Y443300D02*
X250400D01*
X352000D01*
X250400Y417900D02*
X352000D01*
X148800D02*
Y443300D01*
X352000Y417900D02*
Y443300D01*
X385900Y218700D02*
Y397900D01*
X193900Y218300D02*
X201400D01*
X193900D02*
Y243300D01*
Y373300D02*
Y398300D01*
X201400D01*
X381400Y218300D02*
X448900D01*
Y398300D01*
X381400D02*
X448900D01*
D30*
X0Y161652D02*
X138348D01*
X185000Y115000D01*
X260000D01*
X280000Y95000D01*
Y66000D02*
Y95000D01*
X268000Y54000D02*
X280000Y66000D01*
X186000Y54000D02*
X268000D01*
X137000Y5000D02*
X186000Y54000D01*
X0Y5000D02*
X137000D01*
D45*
X385750Y405250D02*
G03*
X385750Y405250I-1500J0D01*
G01*
D46*
X80250Y142250D02*
G03*
X80250Y142250I-3000J0D01*
G01*
D47*
X314500Y6000D02*
G03*
X314500Y6000I-1250J0D01*
G01*
X288050Y75630D02*
G03*
X288050Y75630I-1250J0D01*
G01*
X403620Y154370D02*
G03*
X403620Y154370I-1250J0D01*
G01*
D48*
X447500Y62500D02*
G03*
X447500Y62500I-60000J0D01*
G01*
X161000Y466000D02*
X167000D01*
X174400Y447080D02*
X199400D01*
X174400D02*
Y498080D01*
X199400D01*
Y447080D02*
Y498080D01*
X215000Y483000D02*
Y489000D01*
X263000Y464500D02*
Y491500D01*
X306000Y485000D02*
Y491000D01*
X323500Y447080D02*
X348500D01*
X323500D02*
Y498080D01*
X348500D01*
Y447080D02*
Y498080D01*
X367000Y485000D02*
Y491000D01*
X88900Y362420D02*
Y389420D01*
X148500Y343750D02*
Y370750D01*
X26500Y320000D02*
X53500D01*
X42000Y253610D02*
Y259610D01*
Y279010D02*
Y285010D01*
X163900Y193110D02*
Y218510D01*
X36900Y193110D02*
X163900D01*
X36900Y218510D02*
X163900D01*
X36900Y193110D02*
Y218510D01*
X138500Y193110D02*
Y218510D01*
X100850Y307060D02*
X165850D01*
X100850Y272060D02*
Y307060D01*
Y271810D02*
X165850D01*
Y272060D02*
Y307060D01*
X314000Y12500D02*
Y57500D01*
X286000Y12500D02*
Y57500D01*
X311750D02*
X314000D01*
X311750Y12500D02*
X314000D01*
X286000Y57500D02*
X288250D01*
X286000Y12500D02*
X288250D01*
X294000Y123000D02*
X300000D01*
X310000D02*
X316000D01*
X289800Y84630D02*
Y94630D01*
X297800D01*
X319800Y84630D02*
Y94630D01*
X311800D02*
X319800D01*
X422000Y130000D02*
X428000D01*
X400750Y133500D02*
Y139500D01*
X405370Y163370D02*
Y173370D01*
X413370D01*
X435370Y163370D02*
Y173370D01*
X427370D02*
X435370D01*
D49*
X235500Y495250D02*
X238000D01*
X236750Y494000D02*
Y496500D01*
X113900Y358670D02*
X116400D01*
X115150Y357420D02*
Y359920D01*
X121000Y374500D02*
X123500D01*
X122250Y373250D02*
Y375750D01*
X22750Y292500D02*
Y295000D01*
X21500Y293750D02*
X24000D01*
D50*
X326332Y101333D02*
Y106664D01*
X324999Y107997D01*
X322333D01*
X321000Y106664D01*
Y101333D01*
X322333Y100000D01*
X324999D01*
X323666Y102666D02*
X326332Y100000D01*
X324999D02*
X326332Y101333D01*
X334329Y100000D02*
X328997D01*
X334329Y105332D01*
Y106664D01*
X332996Y107997D01*
X330330D01*
X328997Y106664D01*
X301000Y140000D02*
X293003D01*
Y143999D01*
X294335Y145332D01*
X297001D01*
X298334Y143999D01*
Y140000D01*
Y142666D02*
X301000Y145332D01*
X294335Y147997D02*
X293003Y149330D01*
Y151996D01*
X294335Y153329D01*
X295668D01*
X297001Y151996D01*
X298334Y153329D01*
X299667D01*
X301000Y151996D01*
Y149330D01*
X299667Y147997D01*
X298334D01*
X297001Y149330D01*
X295668Y147997D01*
X294335D01*
X297001Y149330D02*
Y151996D01*
X442385Y125110D02*
X434387D01*
Y129109D01*
X435720Y130442D01*
X438386D01*
X439719Y129109D01*
Y125110D01*
Y127776D02*
X442385Y130442D01*
X441052Y133107D02*
X442385Y134440D01*
Y137106D01*
X441052Y138439D01*
X435720D01*
X434387Y137106D01*
Y134440D01*
X435720Y133107D01*
X437053D01*
X438386Y134440D01*
Y138439D01*
X372000Y131000D02*
Y138997D01*
X375999D01*
X377332Y137664D01*
Y134999D01*
X375999Y133666D01*
X372000D01*
X374666D02*
X377332Y131000D01*
X379997Y138997D02*
X385329D01*
Y137664D01*
X379997Y132333D01*
Y131000D01*
X439332Y180333D02*
Y185665D01*
X437999Y186997D01*
X435333D01*
X434000Y185665D01*
Y180333D01*
X435333Y179000D01*
X437999D01*
X436666Y181666D02*
X439332Y179000D01*
X437999D02*
X439332Y180333D01*
X441997Y179000D02*
X444663D01*
X443330D01*
Y186997D01*
X441997Y185665D01*
X319000Y20997D02*
Y13000D01*
X322999D01*
X324332Y14333D01*
Y19664D01*
X322999Y20997D01*
X319000D01*
X332329Y13000D02*
X326997D01*
X332329Y18332D01*
Y19664D01*
X330996Y20997D01*
X328330D01*
X326997Y19664D01*
X228332Y470664D02*
X226999Y471997D01*
X224333D01*
X223000Y470664D01*
Y465333D01*
X224333Y464000D01*
X226999D01*
X228332Y465333D01*
X236329Y471997D02*
X230997D01*
Y467999D01*
X233663Y469332D01*
X234996D01*
X236329Y467999D01*
Y465333D01*
X234996Y464000D01*
X232330D01*
X230997Y465333D01*
X135000Y427000D02*
Y434997D01*
X137666Y432332D01*
X140332Y434997D01*
Y427000D01*
X142997D02*
X145663D01*
X144330D01*
Y434997D01*
X142997Y433665D01*
X14332Y148665D02*
X12999Y149997D01*
X10333D01*
X9000Y148665D01*
Y143333D01*
X10333Y142000D01*
X12999D01*
X14332Y143333D01*
X16997Y142000D02*
Y149997D01*
X22329Y142000D01*
Y149997D01*
X24995Y142000D02*
X27661D01*
X26328D01*
Y149997D01*
X24995Y148665D01*
X317000Y140000D02*
X309003D01*
Y143999D01*
X310336Y145332D01*
X313001D01*
X314334Y143999D01*
Y140000D01*
Y142666D02*
X317000Y145332D01*
Y147997D02*
Y150663D01*
Y149330D01*
X309003D01*
X310336Y147997D01*
Y154662D02*
X309003Y155995D01*
Y158661D01*
X310336Y159994D01*
X315667D01*
X317000Y158661D01*
Y155995D01*
X315667Y154662D01*
X310336D01*
X34290Y240109D02*
Y248107D01*
X38289D01*
X39622Y246774D01*
Y244108D01*
X38289Y242775D01*
X34290D01*
X36956D02*
X39622Y240109D01*
X47619Y248107D02*
X44953Y246774D01*
X42287Y244108D01*
Y241442D01*
X43620Y240109D01*
X46286D01*
X47619Y241442D01*
Y242775D01*
X46286Y244108D01*
X42287D01*
X34000Y266000D02*
Y273997D01*
X37999D01*
X39332Y272665D01*
Y269999D01*
X37999Y268666D01*
X34000D01*
X36666D02*
X39332Y266000D01*
X47329Y273997D02*
X41997D01*
Y269999D01*
X44663Y271332D01*
X45996D01*
X47329Y269999D01*
Y267333D01*
X45996Y266000D01*
X43330D01*
X41997Y267333D01*
X203000Y470000D02*
Y477997D01*
X206999D01*
X208332Y476665D01*
Y473999D01*
X206999Y472666D01*
X203000D01*
X205666D02*
X208332Y470000D01*
X214996D02*
Y477997D01*
X210997Y473999D01*
X216329D01*
X360000Y439000D02*
Y446997D01*
X363999D01*
X365332Y445664D01*
Y442999D01*
X363999Y441666D01*
X360000D01*
X362666D02*
X365332Y439000D01*
X367997Y445664D02*
X369330Y446997D01*
X371996D01*
X373329Y445664D01*
Y444332D01*
X371996Y442999D01*
X370663D01*
X371996D01*
X373329Y441666D01*
Y440333D01*
X371996Y439000D01*
X369330D01*
X367997Y440333D01*
X168000Y483000D02*
X160003D01*
Y486999D01*
X161336Y488332D01*
X164001D01*
X165334Y486999D01*
Y483000D01*
Y485666D02*
X168000Y488332D01*
Y496329D02*
Y490997D01*
X162668Y496329D01*
X161336D01*
X160003Y494996D01*
Y492330D01*
X161336Y490997D01*
X293000Y456000D02*
Y463997D01*
X296999D01*
X298332Y462664D01*
Y459999D01*
X296999Y458666D01*
X293000D01*
X295666D02*
X298332Y456000D01*
X300997D02*
X303663D01*
X302330D01*
Y463997D01*
X300997Y462664D01*
X147332Y229664D02*
X145999Y230997D01*
X143333D01*
X142000Y229664D01*
Y224333D01*
X143333Y223000D01*
X145999D01*
X147332Y224333D01*
X149997Y223000D02*
Y230997D01*
X155329Y223000D01*
Y230997D01*
X157995Y229664D02*
X159328Y230997D01*
X161994D01*
X163326Y229664D01*
Y228332D01*
X161994Y226999D01*
X160661D01*
X161994D01*
X163326Y225666D01*
Y224333D01*
X161994Y223000D01*
X159328D01*
X157995Y224333D01*
X132332Y382664D02*
X130999Y383997D01*
X128333D01*
X127000Y382664D01*
Y377333D01*
X128333Y376000D01*
X130999D01*
X132332Y377333D01*
X134997Y382664D02*
X136330Y383997D01*
X138996D01*
X140329Y382664D01*
Y381332D01*
X138996Y379999D01*
X140329Y378666D01*
Y377333D01*
X138996Y376000D01*
X136330D01*
X134997Y377333D01*
Y378666D01*
X136330Y379999D01*
X134997Y381332D01*
Y382664D01*
X136330Y379999D02*
X138996D01*
X101332Y356665D02*
X99999Y357997D01*
X97333D01*
X96000Y356665D01*
Y351333D01*
X97333Y350000D01*
X99999D01*
X101332Y351333D01*
X103997Y357997D02*
X109329D01*
Y356665D01*
X103997Y351333D01*
Y350000D01*
X145336Y488332D02*
X144003Y486999D01*
Y484333D01*
X145336Y483000D01*
X150667D01*
X152000Y484333D01*
Y486999D01*
X150667Y488332D01*
X152000Y494996D02*
X144003D01*
X148001Y490997D01*
Y496329D01*
X298332Y452664D02*
X296999Y453997D01*
X294333D01*
X293000Y452664D01*
Y447333D01*
X294333Y446000D01*
X296999D01*
X298332Y447333D01*
X300997Y452664D02*
X302330Y453997D01*
X304996D01*
X306329Y452664D01*
Y451332D01*
X304996Y449999D01*
X303663D01*
X304996D01*
X306329Y448666D01*
Y447333D01*
X304996Y446000D01*
X302330D01*
X300997Y447333D01*
X364982Y435014D02*
X363649Y436347D01*
X360983D01*
X359650Y435014D01*
Y429683D01*
X360983Y428350D01*
X363649D01*
X364982Y429683D01*
X372979Y428350D02*
X367647D01*
X372979Y433682D01*
Y435014D01*
X371646Y436347D01*
X368980D01*
X367647Y435014D01*
X365332Y424664D02*
X363999Y425997D01*
X361333D01*
X360000Y424664D01*
Y419333D01*
X361333Y418000D01*
X363999D01*
X365332Y419333D01*
X367997Y418000D02*
X370663D01*
X369330D01*
Y425997D01*
X367997Y424664D01*
X339000Y126997D02*
Y119000D01*
X342999D01*
X344332Y120333D01*
Y121666D01*
X342999Y122999D01*
X339000D01*
X342999D01*
X344332Y124332D01*
Y125665D01*
X342999Y126997D01*
X339000D01*
X346997D02*
X352329D01*
Y125665D01*
X346997Y120333D01*
Y119000D01*
X352329D01*
X354995D02*
X357661D01*
X356328D01*
Y126997D01*
X354995Y125665D01*
X178000Y397997D02*
Y391333D01*
X179333Y390000D01*
X181999D01*
X183332Y391333D01*
Y397997D01*
X185997Y390000D02*
X188663D01*
X187330D01*
Y397997D01*
X185997Y396665D01*
X55000Y149997D02*
Y142000D01*
X58999D01*
X60332Y143333D01*
Y148665D01*
X58999Y149997D01*
X55000D01*
X62997Y142000D02*
X65663D01*
X64330D01*
Y149997D01*
X62997Y148665D01*
X31332Y467664D02*
X29999Y468997D01*
X27333D01*
X26000Y467664D01*
Y462333D01*
X27333Y461000D01*
X29999D01*
X31332Y462333D01*
X33997Y461000D02*
Y468997D01*
X39329Y461000D01*
Y468997D01*
X47326Y461000D02*
X41995D01*
X47326Y466332D01*
Y467664D01*
X45994Y468997D01*
X43328D01*
X41995Y467664D01*
X35332Y354664D02*
X33999Y355997D01*
X31333D01*
X30000Y354664D01*
Y349333D01*
X31333Y348000D01*
X33999D01*
X35332Y349333D01*
X37997Y348000D02*
X40663D01*
X39330D01*
Y355997D01*
X37997Y354664D01*
X44662D02*
X45995Y355997D01*
X48661D01*
X49994Y354664D01*
Y353332D01*
X48661Y351999D01*
X47328D01*
X48661D01*
X49994Y350666D01*
Y349333D01*
X48661Y348000D01*
X45995D01*
X44662Y349333D01*
X243332Y454664D02*
X241999Y455997D01*
X239333D01*
X238000Y454664D01*
Y449333D01*
X239333Y448000D01*
X241999D01*
X243332Y449333D01*
X245997Y448000D02*
X248663D01*
X247330D01*
Y455997D01*
X245997Y454664D01*
X256661Y448000D02*
Y455997D01*
X252662Y451999D01*
X257994D01*
X314335Y448632D02*
X313003Y447299D01*
Y444633D01*
X314335Y443300D01*
X319667D01*
X321000Y444633D01*
Y447299D01*
X319667Y448632D01*
X321000Y451297D02*
X313003D01*
X321000Y456629D01*
X313003D01*
X321000Y463294D02*
X313003D01*
X317001Y459295D01*
Y464627D01*
X206336Y452332D02*
X205003Y450999D01*
Y448333D01*
X206336Y447000D01*
X211667D01*
X213000Y448333D01*
Y450999D01*
X211667Y452332D01*
X213000Y454997D02*
X205003D01*
X213000Y460329D01*
X205003D01*
Y468326D02*
Y462995D01*
X209001D01*
X207668Y465661D01*
Y466994D01*
X209001Y468326D01*
X211667D01*
X213000Y466994D01*
Y464328D01*
X211667Y462995D01*
X169000Y294997D02*
Y288333D01*
X170333Y287000D01*
X172999D01*
X174332Y288333D01*
Y294997D01*
X182329Y287000D02*
X176997D01*
X182329Y292332D01*
Y293664D01*
X180996Y294997D01*
X178330D01*
X176997Y293664D01*
M02*
