M48
;Layer_Color=9474304
;FILE_FORMAT=4:4
METRIC,LZ
;TYPE=PLATED
T1F00S00C0.3000
T2F00S00C1.0000
T3F00S00C1.1000
T4F00S00C1.2000
T5F00S00C1.4000
T6F00S00C3.0000
%
T01
X00284Y0005276
X00325Y0004
X0035
X00381Y0002032
X004064Y000254
X004318Y0003048
X0005825Y00171
X0001524Y001778
X0003556Y0023368
X000935Y0026925
X0005588Y0039116
X0002344Y00363435
X0016256Y0038608
Y004064
X00134Y00457
X00204Y00461
X0021717Y0035687
X001775Y0032125
X0016375Y0026925
Y0024
X0018125Y0021372
X0022987Y0025781
X002377Y0028469
X0025908Y0029972
Y0032004
X0027432Y002794
X0029972
X0030353Y0024384
X0033675Y00245
X0032766Y002667
X0037084Y0026416
Y0028448
Y003048
Y0032512
Y0034544
Y0036576
X0032004Y0037592
X0028448
X00374Y0044
X0037084Y0024384
X0032639Y0019431
X0031242Y0018542
X0032004Y0017272
X00308Y00149
X0027252Y0017148
X0023425
X0034544Y0011176
Y0008636
X0037592Y0011176
X00414Y00101
X0043688Y0008128
X0041625Y0018825
X00231999Y00476999
X0011684Y0048768
X0009652
X000762
X0005588
X0003556
Y0046736
X0001524Y0048768
T02
X00355Y000625
X0042
T03
X000496Y0020581
X00075
Y0025661
Y0028201
Y0030741
Y0033281
X001004Y0020581
X001258
X001512
X001615Y004306
X001869
X002123
X002377
X002631
X002885
X003139
X003393
X00336Y0045988
X001869
Y0048528
X00336
T04
X001175Y0002
X002395
X002595Y0008
X002395Y0014
X001175Y0014
T05
X00059Y00045
Y0008
Y00115
T06
X0008516Y0042425
X0036456Y0016771
M30
