G04*
G04 #@! TF.GenerationSoftware,Altium Limited,Altium Designer,23.4.1 (23)*
G04*
G04 Layer_Color=128*
%FSLAX44Y44*%
%MOMM*%
G71*
G04*
G04 #@! TF.SameCoordinates,2E05C734-F49D-4732-BD03-9418B1375616*
G04*
G04*
G04 #@! TF.FilePolarity,Positive*
G04*
G01*
G75*
%ADD19R,0.8000X0.9500*%
%ADD24R,0.9500X0.9500*%
%ADD25R,0.9500X0.8000*%
%ADD27R,0.9500X0.9500*%
%ADD37R,1.8000X2.9000*%
%ADD91R,2.0000X1.2000*%
%ADD92R,1.5000X0.9000*%
%ADD93R,0.9000X1.5000*%
D19*
X20000Y293000D02*
D03*
X36000D02*
D03*
D24*
X283750Y409250D02*
D03*
X267750D02*
D03*
X36000Y385000D02*
D03*
X20000D02*
D03*
D25*
X408000Y106000D02*
D03*
Y90000D02*
D03*
X375000D02*
D03*
Y106000D02*
D03*
D27*
X438500Y106000D02*
D03*
Y90000D02*
D03*
X392500Y91000D02*
D03*
Y107000D02*
D03*
X217000Y479000D02*
D03*
Y463000D02*
D03*
D37*
X261000Y349750D02*
D03*
X290000D02*
D03*
X261000Y383250D02*
D03*
X290000D02*
D03*
D91*
X344000Y56500D02*
D03*
Y11500D02*
D03*
X435500D02*
D03*
Y56500D02*
D03*
D92*
X211500Y10000D02*
D03*
Y43000D02*
D03*
X162500D02*
D03*
Y10000D02*
D03*
X238015Y488990D02*
D03*
Y455990D02*
D03*
X287015D02*
D03*
Y488990D02*
D03*
D93*
X438500Y184150D02*
D03*
X405500D02*
D03*
Y135150D02*
D03*
X438500D02*
D03*
X11450Y363435D02*
D03*
X44450D02*
D03*
Y314435D02*
D03*
X11450D02*
D03*
M02*
