G04*
G04 #@! TF.GenerationSoftware,Altium Limited,Altium Designer,23.4.1 (23)*
G04*
G04 Layer_Color=8388736*
%FSLAX44Y44*%
%MOMM*%
G71*
G04*
G04 #@! TF.SameCoordinates,2E05C734-F49D-4732-BD03-9418B1375616*
G04*
G04*
G04 #@! TF.FilePolarity,Negative*
G04*
G01*
G75*
%ADD39R,1.0032X1.1532*%
%ADD40R,3.4532X3.4532*%
%ADD41O,0.5532X1.1532*%
%ADD42O,1.1532X0.5532*%
%ADD43R,0.9532X1.1532*%
%ADD44R,1.1532X1.1532*%
%ADD45R,1.1532X1.0032*%
%ADD46R,0.7532X1.1532*%
%ADD47R,1.1532X1.1532*%
%ADD48R,0.8032X1.2032*%
%ADD49R,1.1032X1.9032*%
%ADD50R,1.7532X2.6032*%
%ADD51R,1.7032X3.6032*%
%ADD52R,1.9532X1.1532*%
%ADD53R,1.9532X3.4032*%
%ADD54R,1.1032X2.7432*%
%ADD55R,2.7432X1.1032*%
%ADD56R,5.2032X5.2032*%
%ADD57R,2.0032X3.1032*%
%ADD58R,1.2032X0.8032*%
%ADD59C,1.8032*%
%ADD60C,5.2032*%
%ADD61R,1.8032X1.8032*%
%ADD62C,0.9532*%
%ADD63O,2.7032X1.9532*%
%ADD64R,2.7032X1.9532*%
G04:AMPARAMS|DCode=65|XSize=2.2032mm|YSize=1.2032mm|CornerRadius=0.3516mm|HoleSize=0mm|Usage=FLASHONLY|Rotation=90.000|XOffset=0mm|YOffset=0mm|HoleType=Round|Shape=RoundedRectangle|*
%AMROUNDEDRECTD65*
21,1,2.2032,0.5000,0,0,90.0*
21,1,1.5000,1.2032,0,0,90.0*
1,1,0.7032,0.2500,0.7500*
1,1,0.7032,0.2500,-0.7500*
1,1,0.7032,-0.2500,-0.7500*
1,1,0.7032,-0.2500,0.7500*
%
%ADD65ROUNDEDRECTD65*%
G04:AMPARAMS|DCode=66|XSize=0.8032mm|YSize=0.8032mm|CornerRadius=0.2516mm|HoleSize=0mm|Usage=FLASHONLY|Rotation=90.000|XOffset=0mm|YOffset=0mm|HoleType=Round|Shape=RoundedRectangle|*
%AMROUNDEDRECTD66*
21,1,0.8032,0.3000,0,0,90.0*
21,1,0.3000,0.8032,0,0,90.0*
1,1,0.5032,0.1500,0.1500*
1,1,0.5032,0.1500,-0.1500*
1,1,0.5032,-0.1500,-0.1500*
1,1,0.5032,-0.1500,0.1500*
%
%ADD66ROUNDEDRECTD66*%
%ADD67O,2.7032X2.2032*%
%ADD68C,2.7032*%
%ADD69O,2.7032X1.7032*%
%ADD70R,3.0032X2.2032*%
%ADD71O,3.0032X2.2032*%
D39*
X163000Y191500D02*
D03*
X147000D02*
D03*
X204750Y453250D02*
D03*
X220750D02*
D03*
X142000D02*
D03*
X158000D02*
D03*
X142000Y468750D02*
D03*
X158000D02*
D03*
X142000Y484250D02*
D03*
X158000D02*
D03*
X326750Y453250D02*
D03*
X342750D02*
D03*
X133500Y191500D02*
D03*
X117500D02*
D03*
X358000Y484250D02*
D03*
X374000D02*
D03*
X393750Y111250D02*
D03*
X377750D02*
D03*
X393750Y126750D02*
D03*
X377750D02*
D03*
D40*
X145250Y231250D02*
D03*
D41*
X130250Y254250D02*
D03*
X135250D02*
D03*
X140250D02*
D03*
X145250D02*
D03*
X150250D02*
D03*
X155250D02*
D03*
X160250D02*
D03*
X155250Y208250D02*
D03*
X150250D02*
D03*
X145250D02*
D03*
X140250D02*
D03*
X135250D02*
D03*
X130250D02*
D03*
X160250D02*
D03*
D42*
X168250Y246250D02*
D03*
Y241250D02*
D03*
Y236250D02*
D03*
Y231250D02*
D03*
Y226250D02*
D03*
Y221250D02*
D03*
Y216250D02*
D03*
X122250D02*
D03*
Y221250D02*
D03*
Y226250D02*
D03*
Y231250D02*
D03*
Y236250D02*
D03*
Y241250D02*
D03*
Y246250D02*
D03*
D43*
X111500Y468750D02*
D03*
X127000D02*
D03*
X111500Y484250D02*
D03*
X127000D02*
D03*
D44*
X190250Y453250D02*
D03*
X174250D02*
D03*
X312250D02*
D03*
X296250D02*
D03*
X84500Y279500D02*
D03*
X100500D02*
D03*
X98500Y191500D02*
D03*
X82500D02*
D03*
X374000Y453250D02*
D03*
X358000D02*
D03*
Y468750D02*
D03*
X374000D02*
D03*
D45*
X84500Y248750D02*
D03*
Y264750D02*
D03*
X9750Y198500D02*
D03*
Y214500D02*
D03*
Y259000D02*
D03*
Y243000D02*
D03*
X133250Y316750D02*
D03*
Y332750D02*
D03*
X153250D02*
D03*
Y316750D02*
D03*
X100500Y264750D02*
D03*
Y248750D02*
D03*
X317000Y114500D02*
D03*
Y130500D02*
D03*
X301000Y114500D02*
D03*
Y130500D02*
D03*
D46*
X82000Y228750D02*
D03*
X101000D02*
D03*
Y205250D02*
D03*
D47*
X84000D02*
D03*
X286133Y41929D02*
D03*
Y25930D02*
D03*
D48*
X143250Y371000D02*
D03*
X152750Y347000D02*
D03*
X133750D02*
D03*
X143250Y278500D02*
D03*
X133750Y302500D02*
D03*
X152750D02*
D03*
X308039Y75630D02*
D03*
X298539Y99630D02*
D03*
X317539D02*
D03*
D49*
X216500Y480000D02*
D03*
X175500D02*
D03*
X299500D02*
D03*
X340500D02*
D03*
D50*
X311750Y17500D02*
D03*
Y48000D02*
D03*
D51*
X433500Y51500D02*
D03*
X344500D02*
D03*
D52*
X24250Y336000D02*
D03*
Y359000D02*
D03*
Y382000D02*
D03*
D53*
X87250Y359000D02*
D03*
D54*
X374000Y220800D02*
D03*
X335900D02*
D03*
X323200D02*
D03*
X310500D02*
D03*
X285100D02*
D03*
X272400D02*
D03*
X234300D02*
D03*
X221600D02*
D03*
X208900D02*
D03*
Y396000D02*
D03*
X221600D02*
D03*
X247000D02*
D03*
X259700D02*
D03*
X348600D02*
D03*
X361300D02*
D03*
X374000D02*
D03*
D55*
X196200Y352750D02*
D03*
Y365450D02*
D03*
D56*
X299000Y318300D02*
D03*
D57*
X15000Y305000D02*
D03*
X44000D02*
D03*
X96250Y305000D02*
D03*
X67250D02*
D03*
D58*
X409250Y128500D02*
D03*
Y109500D02*
D03*
X433250Y119000D02*
D03*
D59*
X161500Y430600D02*
D03*
X339300D02*
D03*
X313900D02*
D03*
X212300D02*
D03*
X186900D02*
D03*
X237700D02*
D03*
X263100D02*
D03*
D60*
X85160Y424250D02*
D03*
X364560Y167710D02*
D03*
D61*
X288500Y430600D02*
D03*
D62*
X196000Y471000D02*
D03*
Y489000D02*
D03*
X320000Y489000D02*
D03*
Y471000D02*
D03*
D63*
X25000Y474250D02*
D03*
D64*
Y449250D02*
D03*
D65*
X64300Y248750D02*
D03*
Y208750D02*
D03*
X25700Y248750D02*
D03*
Y208750D02*
D03*
D66*
X52000Y261250D02*
D03*
Y251964D02*
D03*
Y242679D02*
D03*
Y233393D02*
D03*
Y224107D02*
D03*
Y205536D02*
D03*
Y196250D02*
D03*
X38000Y261250D02*
D03*
Y251964D02*
D03*
Y233393D02*
D03*
Y224107D02*
D03*
Y214821D02*
D03*
Y205536D02*
D03*
Y196250D02*
D03*
D67*
X259500Y80000D02*
D03*
D68*
X117500Y20000D02*
D03*
X239500Y140000D02*
D03*
X117500Y140000D02*
D03*
D69*
X239500Y20000D02*
D03*
D70*
X59000Y115000D02*
D03*
D71*
Y80000D02*
D03*
Y45000D02*
D03*
M02*
