G04*
G04 #@! TF.GenerationSoftware,Altium Limited,Altium Designer,23.4.1 (23)*
G04*
G04 Layer_Color=128*
%FSLAX44Y44*%
%MOMM*%
G71*
G04*
G04 #@! TF.SameCoordinates,2E05C734-F49D-4732-BD03-9418B1375616*
G04*
G04*
G04 #@! TF.FilePolarity,Positive*
G04*
G01*
G75*
%ADD99C,0.0508*%
D99*
X156000Y430600D02*
X167000D01*
X161500Y425100D02*
Y436100D01*
X70160Y424250D02*
X100160D01*
X85160Y409250D02*
Y439250D01*
X333800Y430600D02*
X344800D01*
X339300Y425100D02*
Y436100D01*
X308400Y430600D02*
X319400D01*
X313900Y425100D02*
Y436100D01*
X349560Y167710D02*
X379560D01*
X364560Y152710D02*
Y182710D01*
X206800Y430600D02*
X217800D01*
X212300Y425100D02*
Y436100D01*
X181400Y430600D02*
X192400D01*
X186900Y425100D02*
Y436100D01*
X283000Y430600D02*
X294000D01*
X288500Y425100D02*
Y436100D01*
X232200Y430600D02*
X243200D01*
X237700Y425100D02*
Y436100D01*
X257600Y430600D02*
X268600D01*
X263100Y425100D02*
Y436100D01*
X192250Y471000D02*
X199750D01*
X196000Y467250D02*
Y474750D01*
X192250Y489000D02*
X199750D01*
X196000Y485250D02*
Y492750D01*
X316250Y489000D02*
X323750D01*
X320000Y485250D02*
Y492750D01*
X316250Y471000D02*
X323750D01*
X320000Y467250D02*
Y474750D01*
X20000Y474250D02*
X30000D01*
X25000Y469250D02*
Y479250D01*
X20000Y449250D02*
X30000D01*
X25000Y444250D02*
Y454250D01*
X61800Y248750D02*
X66800D01*
X64300Y246250D02*
Y251250D01*
X50000Y261250D02*
X54000D01*
X52000Y259250D02*
Y263250D01*
X50000Y251964D02*
X54000D01*
X52000Y249964D02*
Y253964D01*
X50000Y242679D02*
X54000D01*
X52000Y240679D02*
Y244679D01*
X50000Y233393D02*
X54000D01*
X52000Y231393D02*
Y235393D01*
X50000Y224107D02*
X54000D01*
X52000Y222107D02*
Y226107D01*
X50000Y205536D02*
X54000D01*
X52000Y203536D02*
Y207536D01*
X50000Y196250D02*
X54000D01*
X52000Y194250D02*
Y198250D01*
X61800Y208750D02*
X66800D01*
X64300Y206250D02*
Y211250D01*
X23200Y248750D02*
X28200D01*
X25700Y246250D02*
Y251250D01*
X36000Y261250D02*
X40000D01*
X38000Y259250D02*
Y263250D01*
X36000Y251964D02*
X40000D01*
X38000Y249964D02*
Y253964D01*
X36000Y233393D02*
X40000D01*
X38000Y231393D02*
Y235393D01*
X36000Y224107D02*
X40000D01*
X38000Y222107D02*
Y226107D01*
X36000Y214821D02*
X40000D01*
X38000Y212821D02*
Y216821D01*
X36000Y205536D02*
X40000D01*
X38000Y203536D02*
Y207536D01*
X36000Y196250D02*
X40000D01*
X38000Y194250D02*
Y198250D01*
X23200Y208750D02*
X28200D01*
X25700Y206250D02*
Y211250D01*
X253500Y80000D02*
X265500D01*
X259500Y74000D02*
Y86000D01*
X111500Y20000D02*
X123500D01*
X117500Y14000D02*
Y26000D01*
X233500Y20000D02*
X245500D01*
X239500Y14000D02*
Y26000D01*
X233500Y140000D02*
X245500D01*
X239500Y134000D02*
Y146000D01*
X111500Y140000D02*
X123500D01*
X117500Y134000D02*
Y146000D01*
X52000Y115000D02*
X66000D01*
X59000Y108000D02*
Y122000D01*
X52000Y80000D02*
X66000D01*
X59000Y73000D02*
Y87000D01*
X52000Y45000D02*
X66000D01*
X59000Y38000D02*
Y52000D01*
X155250Y220250D02*
X157250D01*
X156250Y219250D02*
Y221250D01*
X144250Y220250D02*
X146250D01*
X145250Y219250D02*
Y221250D01*
X133250Y220250D02*
X135250D01*
X134250Y219250D02*
Y221250D01*
X155250Y231250D02*
X157250D01*
X156250Y230250D02*
Y232250D01*
X144250Y231250D02*
X146250D01*
X145250Y230250D02*
Y232250D01*
X133250Y231250D02*
X135250D01*
X134250Y230250D02*
Y232250D01*
X155250Y242250D02*
X157250D01*
X156250Y241250D02*
Y243250D01*
X144250Y242250D02*
X146250D01*
X145250Y241250D02*
Y243250D01*
X133250Y242250D02*
X135250D01*
X134250Y241250D02*
Y243250D01*
X321000Y412500D02*
X324000D01*
X322500Y411000D02*
Y414000D01*
X181000Y380000D02*
X184000D01*
X182500Y378500D02*
Y381500D01*
X168500Y372500D02*
X171500D01*
X170000Y371000D02*
Y374000D01*
X146000Y415000D02*
X149000D01*
X147500Y413500D02*
Y416500D01*
X441000Y77500D02*
X444000D01*
X442500Y76000D02*
Y79000D01*
X407529Y119410D02*
X410529D01*
X409029Y117909D02*
Y120910D01*
X438500Y162500D02*
X441500D01*
X440000Y161000D02*
Y164000D01*
X396000Y167500D02*
X399000D01*
X397500Y166000D02*
Y169000D01*
X418500Y185000D02*
X421500D01*
X420000Y183500D02*
Y186500D01*
X423500Y77500D02*
X426500D01*
X425000Y76000D02*
Y79000D01*
X406000Y30000D02*
X409000D01*
X407500Y28500D02*
Y31500D01*
X376000Y30000D02*
X379000D01*
X377500Y28500D02*
Y31500D01*
X326000Y65000D02*
X329000D01*
X327500Y63500D02*
Y66500D01*
X341000Y97500D02*
X344000D01*
X342500Y96000D02*
Y99000D01*
X328500Y120000D02*
X331500D01*
X330000Y118500D02*
Y121500D01*
X63500Y170000D02*
X66500D01*
X65000Y168500D02*
Y171500D01*
X8500Y175000D02*
X11500D01*
X10000Y173500D02*
Y176500D01*
X133500Y170000D02*
X136500D01*
X135000Y168500D02*
Y171500D01*
X191000Y170000D02*
X194000D01*
X192500Y168500D02*
Y171500D01*
X281000Y160000D02*
X284000D01*
X282500Y158500D02*
Y161500D01*
X251000Y215000D02*
X254000D01*
X252500Y213500D02*
Y216500D01*
X251000Y227500D02*
X254000D01*
X252500Y226000D02*
Y229000D01*
X218500Y257500D02*
X221500D01*
X220000Y256000D02*
Y259000D01*
X336000Y262500D02*
X339000D01*
X337500Y261000D02*
Y264000D01*
X326000Y350000D02*
X329000D01*
X327500Y348500D02*
Y351500D01*
X308500Y350000D02*
X311500D01*
X310000Y348500D02*
Y351500D01*
X326000Y385000D02*
X329000D01*
X327500Y383500D02*
Y386500D01*
X308500Y385000D02*
X311500D01*
X310000Y383500D02*
Y386500D01*
X363754Y494557D02*
X366754D01*
X365254Y493058D02*
Y496058D01*
X283500Y472500D02*
X286500D01*
X285000Y471000D02*
Y474000D01*
X253500Y480000D02*
X256500D01*
X255000Y478500D02*
Y481500D01*
X253500Y455000D02*
X256500D01*
X255000Y453500D02*
Y456500D01*
X136000Y440000D02*
X139000D01*
X137500Y438500D02*
Y441500D01*
X83500Y490000D02*
X86500D01*
X85000Y488500D02*
Y491500D01*
X66000Y490000D02*
X69000D01*
X67500Y488500D02*
Y491500D01*
X48500Y490000D02*
X51500D01*
X50000Y488500D02*
Y491500D01*
X23500Y370000D02*
X26500D01*
X25000Y368500D02*
Y371500D01*
X36000Y397500D02*
X39000D01*
X37500Y396000D02*
Y399000D01*
X23500Y397500D02*
X26500D01*
X25000Y396000D02*
Y399000D01*
X121000Y290000D02*
X124000D01*
X122500Y288500D02*
Y291500D01*
X153500Y287500D02*
X156500D01*
X155000Y286000D02*
Y289000D01*
X178500Y255000D02*
X181500D01*
X180000Y253500D02*
Y256500D01*
X178500Y207500D02*
X181500D01*
X180000Y206000D02*
Y209000D01*
X63500Y267500D02*
X66500D01*
X65000Y266000D02*
Y269000D01*
X43500Y332500D02*
X46500D01*
X45000Y331000D02*
Y334000D01*
X66000Y327500D02*
X69000D01*
X67500Y326000D02*
Y329000D01*
X294045Y91545D02*
X297045D01*
X295545Y90045D02*
Y93045D01*
X326250Y30250D02*
X329250D01*
X327750Y28750D02*
Y31750D01*
X232750Y259608D02*
X235750D01*
X234250Y258108D02*
Y261108D01*
X293500Y70250D02*
X296500D01*
X295000Y68750D02*
Y71750D01*
X391000Y80250D02*
X394000D01*
X392500Y78750D02*
Y81750D01*
X359500Y106000D02*
X362500D01*
X361000Y104500D02*
Y107500D01*
X427500Y147750D02*
X430500D01*
X429000Y146250D02*
Y149250D01*
X209250Y192500D02*
X212250D01*
X210750Y191000D02*
Y194000D01*
X245000Y359000D02*
X248000D01*
X246500Y357500D02*
Y360500D01*
X119000Y359000D02*
X122000D01*
X120500Y357500D02*
Y360500D01*
X406500Y56500D02*
X409500D01*
X408000Y55000D02*
Y58000D01*
X375500Y56000D02*
X378500D01*
X377000Y54500D02*
Y57500D01*
X288500Y14000D02*
X291500D01*
X290000Y12500D02*
Y15500D01*
X284750Y51750D02*
X287750D01*
X286250Y50250D02*
Y53250D01*
X110250Y455750D02*
X113250D01*
X111750Y454250D02*
Y457250D01*
X122000Y455750D02*
X125000D01*
X123500Y454250D02*
Y457250D01*
X7250Y335750D02*
X10250D01*
X8750Y334250D02*
Y337250D01*
X118750Y206250D02*
X121750D01*
X120250Y204750D02*
Y207750D01*
X94750Y327750D02*
X97750D01*
X96250Y326250D02*
Y329250D01*
X109500Y216250D02*
X112500D01*
X111000Y214750D02*
Y217750D01*
X107750Y240250D02*
X110750D01*
X109250Y238750D02*
Y241750D01*
X334750Y246500D02*
X337750D01*
X336250Y245000D02*
Y248000D01*
X321750Y238875D02*
X324750D01*
X323250Y237375D02*
Y240375D01*
X152963Y274287D02*
X155963D01*
X154463Y272787D02*
Y275787D01*
X133500Y266750D02*
X136500D01*
X135000Y265250D02*
Y268250D01*
X183750Y465000D02*
X186750D01*
X185250Y463500D02*
Y466500D01*
X178500Y227500D02*
X181500D01*
X180000Y226000D02*
Y229000D01*
X178500Y240000D02*
X181500D01*
X180000Y238500D02*
Y241500D01*
X369340Y243840D02*
X372340D01*
X370840Y242340D02*
Y245340D01*
X369340Y264160D02*
X372340D01*
X370840Y262660D02*
Y265660D01*
X369340Y284480D02*
X372340D01*
X370840Y282980D02*
Y285980D01*
X369340Y304800D02*
X372340D01*
X370840Y303300D02*
Y306300D01*
X369340Y325120D02*
X372340D01*
X370840Y323620D02*
Y326620D01*
X369340Y345440D02*
X372340D01*
X370840Y343940D02*
Y346940D01*
X369340Y365760D02*
X372340D01*
X370840Y364260D02*
Y367260D01*
X372500Y437250D02*
X375500D01*
X374000Y435750D02*
Y438750D01*
M02*
