G04*
G04 #@! TF.GenerationSoftware,Altium Limited,Altium Designer,23.4.1 (23)*
G04*
G04 Layer_Color=65535*
%FSLAX44Y44*%
%MOMM*%
G71*
G04*
G04 #@! TF.SameCoordinates,2E05C734-F49D-4732-BD03-9418B1375616*
G04*
G04*
G04 #@! TF.FilePolarity,Positive*
G04*
G01*
G75*
%ADD10C,0.2500*%
%ADD11C,0.1000*%
%ADD12C,0.2540*%
%ADD13C,0.3000*%
%ADD14C,0.6000*%
%ADD15C,0.2000*%
%ADD16C,0.1500*%
%ADD17C,1.0000*%
%ADD18C,0.1900*%
G36*
X374000Y377050D02*
X367650Y364350D01*
X380350D01*
X374000Y377050D01*
D02*
G37*
G36*
X290000Y490494D02*
X281658Y484814D01*
X290000D01*
Y480390D01*
X274779D01*
Y484776D01*
X283195Y490494D01*
X274779D01*
Y494936D01*
X290000D01*
Y490494D01*
D02*
G37*
G36*
Y465000D02*
X274779D01*
Y477616D01*
X278022D01*
Y469724D01*
X280440D01*
Y477034D01*
X283552D01*
Y469724D01*
X286551D01*
Y477840D01*
X290000D01*
Y465000D01*
D02*
G37*
G36*
X231047Y490137D02*
X242500D01*
Y485432D01*
X231047D01*
Y480634D01*
X227279D01*
Y494936D01*
X231047D01*
Y490137D01*
D02*
G37*
G36*
X238470Y479228D02*
X238601Y479209D01*
X238882Y479171D01*
X239220Y479115D01*
X239576Y479003D01*
X239951Y478871D01*
X240307Y478684D01*
X240326D01*
X240344Y478665D01*
X240457Y478590D01*
X240625Y478459D01*
X240850Y478290D01*
X241075Y478084D01*
X241338Y477822D01*
X241581Y477522D01*
X241806Y477184D01*
X241825Y477166D01*
X241863Y477072D01*
X241919Y476941D01*
X241994Y476735D01*
X242069Y476491D01*
X242163Y476172D01*
X242238Y475816D01*
X242294Y475385D01*
Y475310D01*
X242313Y475235D01*
X242331Y475122D01*
X242350Y475010D01*
Y474860D01*
X242388Y474541D01*
X242425Y474185D01*
X242463Y473829D01*
X242481Y473529D01*
X242500Y473398D01*
Y465169D01*
X227279D01*
Y474166D01*
X227298Y474316D01*
X227316Y474504D01*
X227335Y474729D01*
X227373Y474954D01*
X227410Y475216D01*
X227541Y475760D01*
X227635Y476041D01*
X227747Y476322D01*
X227879Y476603D01*
X228010Y476866D01*
X228197Y477128D01*
X228385Y477353D01*
X228404Y477372D01*
X228441Y477409D01*
X228497Y477466D01*
X228572Y477541D01*
X228685Y477634D01*
X228816Y477728D01*
X228966Y477840D01*
X229135Y477953D01*
X229322Y478047D01*
X229528Y478159D01*
X229978Y478347D01*
X230241Y478422D01*
X230503Y478478D01*
X230784Y478515D01*
X231084Y478534D01*
X231103D01*
X231140D01*
X231215D01*
X231309Y478515D01*
X231422D01*
X231553Y478497D01*
X231871Y478422D01*
X232228Y478328D01*
X232621Y478178D01*
X233015Y477972D01*
X233202Y477840D01*
X233390Y477691D01*
X233409Y477672D01*
X233502Y477578D01*
X233615Y477447D01*
X233746Y477278D01*
X233915Y477034D01*
X234083Y476753D01*
X234252Y476416D01*
X234402Y476041D01*
Y476060D01*
X234421Y476116D01*
X234440Y476191D01*
X234477Y476303D01*
X234515Y476453D01*
X234571Y476603D01*
X234721Y476959D01*
X234908Y477353D01*
X235152Y477766D01*
X235433Y478140D01*
X235602Y478309D01*
X235770Y478459D01*
X235789Y478478D01*
X235808Y478497D01*
X235864Y478534D01*
X235939Y478590D01*
X236033Y478647D01*
X236145Y478703D01*
X236427Y478853D01*
X236783Y479003D01*
X237176Y479115D01*
X237645Y479209D01*
X238170Y479246D01*
X238189D01*
X238226D01*
X238282D01*
X238376D01*
X238470Y479228D01*
D02*
G37*
%LPC*%
G36*
X237645Y474523D02*
X237607D01*
X237533D01*
X237401Y474504D01*
X237251Y474466D01*
X237083Y474391D01*
X236895Y474316D01*
X236726Y474185D01*
X236558Y474016D01*
X236539Y473998D01*
X236502Y473923D01*
X236427Y473792D01*
X236352Y473623D01*
X236277Y473379D01*
X236202Y473079D01*
X236164Y472723D01*
X236145Y472292D01*
Y469911D01*
X239220D01*
Y472498D01*
X239201Y472704D01*
X239163Y472967D01*
X239126Y473248D01*
X239051Y473529D01*
X238938Y473792D01*
X238807Y474016D01*
X238788Y474035D01*
X238732Y474091D01*
X238638Y474185D01*
X238507Y474279D01*
X238339Y474354D01*
X238132Y474448D01*
X237907Y474504D01*
X237645Y474523D01*
D02*
G37*
G36*
X231778Y473923D02*
X231740D01*
X231665D01*
X231553Y473904D01*
X231403Y473867D01*
X231234Y473810D01*
X231065Y473735D01*
X230897Y473623D01*
X230747Y473473D01*
X230728Y473454D01*
X230690Y473398D01*
X230634Y473285D01*
X230559Y473117D01*
X230484Y472910D01*
X230428Y472667D01*
X230391Y472348D01*
X230372Y471973D01*
Y469911D01*
X233240D01*
Y472123D01*
X233221Y472329D01*
X233184Y472554D01*
X233146Y472798D01*
X233090Y473060D01*
X232996Y473285D01*
X232865Y473473D01*
X232846Y473492D01*
X232790Y473548D01*
X232715Y473623D01*
X232584Y473698D01*
X232434Y473773D01*
X232246Y473848D01*
X232021Y473904D01*
X231778Y473923D01*
D02*
G37*
%LPD*%
D10*
X115000Y254750D02*
G03*
X115000Y254750I-1250J0D01*
G01*
X126500Y347000D02*
G03*
X126500Y347000I-1250J0D01*
G01*
X162500Y302500D02*
G03*
X162500Y302500I-1250J0D01*
G01*
X327289Y99630D02*
G03*
X327289Y99630I-1250J0D01*
G01*
X326250Y3750D02*
G03*
X326250Y3750I-1250J0D01*
G01*
X340500Y72500D02*
G03*
X340500Y72500I-1250J0D01*
G01*
X410500Y137000D02*
G03*
X410500Y137000I-1250J0D01*
G01*
D11*
X102750Y475250D02*
G03*
X102750Y475250I-500J0D01*
G01*
Y490750D02*
G03*
X102750Y490750I-500J0D01*
G01*
X76750Y205250D02*
G03*
X76750Y205250I-500J0D01*
G01*
X117500Y468750D02*
X121000Y466250D01*
Y468750D01*
X117500Y466500D02*
Y468750D01*
Y471000D01*
X121000Y468750D02*
Y471250D01*
X117500Y468750D02*
X121000Y471250D01*
X117500Y484250D02*
X121000Y481750D01*
Y484250D01*
X117500Y482000D02*
Y484250D01*
Y486500D01*
X121000Y484250D02*
Y486750D01*
X117500Y484250D02*
X121000Y486750D01*
X2000Y322250D02*
X4500D01*
X3250Y321000D02*
Y323500D01*
X106750Y287750D02*
X109250D01*
X108000Y286500D02*
Y289000D01*
D12*
X25500Y393000D02*
G03*
X25500Y393000I-1118J0D01*
G01*
X20000Y173750D02*
X70000D01*
X20000D02*
Y283750D01*
X70000D01*
Y173750D02*
Y283750D01*
X352000Y417900D02*
Y443300D01*
X148800Y417900D02*
Y443300D01*
X250400Y417900D02*
X352000D01*
X250400Y443300D02*
X352000D01*
X148800D02*
X250400D01*
X148800Y417900D02*
X250400D01*
X385900Y218700D02*
Y397900D01*
X193900Y218300D02*
X201400D01*
X193900D02*
Y243300D01*
Y373300D02*
Y398300D01*
X201400D01*
X381400Y218300D02*
X448900D01*
Y398300D01*
X381400D02*
X448900D01*
D13*
X385750Y405250D02*
G03*
X385750Y405250I-1500J0D01*
G01*
D14*
X80250Y142250D02*
G03*
X80250Y142250I-3000J0D01*
G01*
D15*
X155000Y188500D02*
Y194500D01*
X120250Y206250D02*
X124500D01*
X120250D02*
Y210500D01*
X166000Y206250D02*
X170250D01*
Y210500D01*
Y252000D02*
Y256250D01*
X166000D02*
X170250D01*
X120250D02*
X124500D01*
X120250Y252000D02*
Y256250D01*
X212750Y450250D02*
Y456250D01*
X150000Y450250D02*
Y456250D01*
X150000Y465750D02*
Y471750D01*
Y481250D02*
Y487250D01*
X334750Y450250D02*
Y456250D01*
X81500Y256750D02*
X87500D01*
X87750Y224000D02*
X95250D01*
X91750Y210000D02*
X95250D01*
X106500Y212000D02*
Y222000D01*
X76500Y212000D02*
Y222000D01*
X125500Y188500D02*
Y194500D01*
X6750Y206500D02*
X12750D01*
X6750Y251000D02*
X12750D01*
X150250Y366000D02*
X158250D01*
Y356000D02*
Y366000D01*
X128250D02*
X136250D01*
X128250Y356000D02*
Y366000D01*
X130250Y324750D02*
X136250D01*
X128250Y283500D02*
X136250D01*
X128250D02*
Y293500D01*
X150250Y283500D02*
X158250D01*
Y293500D01*
X150250Y324750D02*
X156250D01*
X293039Y80630D02*
X301039D01*
X293039D02*
Y90630D01*
X315039Y80630D02*
X323039D01*
Y90630D01*
X297750Y10250D02*
X300000D01*
X297750Y55250D02*
X300000D01*
X323500Y10250D02*
X325750D01*
X323500Y55250D02*
X325750D01*
X297750Y10250D02*
Y55250D01*
X325750Y10250D02*
Y55250D01*
X344000Y96500D02*
X434000D01*
X344000Y6500D02*
X434000D01*
X344000Y66000D02*
Y96500D01*
X434000Y66000D02*
Y96500D01*
X344000Y6500D02*
Y37000D01*
X434000Y6500D02*
Y37000D01*
X97500Y256750D02*
X103500D01*
X1250Y424750D02*
X58750D01*
Y498750D01*
X1250D02*
X58750D01*
X1250Y424750D02*
Y498750D01*
X366000Y481250D02*
Y487250D01*
X38250Y391500D02*
X73250D01*
X73500Y326500D02*
Y391500D01*
X38250Y326500D02*
X73250D01*
X38250D02*
Y391500D01*
X29500Y291500D02*
Y318500D01*
X81750Y291500D02*
Y318500D01*
X314000Y122500D02*
X320000D01*
X385750Y108250D02*
Y114250D01*
X298000Y122500D02*
X304000D01*
X418250Y134000D02*
X428250D01*
Y126000D02*
Y134000D01*
X418250Y104000D02*
X428250D01*
Y112000D01*
X385750Y123750D02*
Y129750D01*
X83500Y480251D02*
Y488249D01*
X87499D01*
X88832Y486916D01*
Y484250D01*
X87499Y482917D01*
X83500D01*
X86166D02*
X88832Y480251D01*
X91497Y488249D02*
X96829Y480251D01*
Y488249D02*
X91497Y480251D01*
X83500Y472749D02*
X88832D01*
X86166D01*
Y464751D01*
X91497Y472749D02*
X96829Y464751D01*
Y472749D02*
X91497Y464751D01*
D16*
X104010Y466210D02*
X105280D01*
X104010Y461750D02*
Y466210D01*
Y461750D02*
X105280D01*
X104010Y471290D02*
X105280D01*
X104010D02*
Y475750D01*
X105280D01*
X134490Y461750D02*
Y463670D01*
X104250Y461750D02*
X134490D01*
X105280D02*
Y466210D01*
Y471290D02*
Y475750D01*
X104250D02*
X134490D01*
Y473830D02*
Y475750D01*
X119250Y472250D02*
Y475750D01*
Y461750D02*
Y465250D01*
X104010Y481710D02*
X105280D01*
X104010Y477250D02*
Y481710D01*
Y477250D02*
X105280D01*
X104010Y486790D02*
X105280D01*
X104010D02*
Y491250D01*
X105280D01*
X134490Y477250D02*
Y479170D01*
X104250Y477250D02*
X134490D01*
X105280D02*
Y481710D01*
Y486790D02*
Y491250D01*
X104250D02*
X134490D01*
Y489330D02*
Y491250D01*
X119250Y487750D02*
Y491250D01*
Y477250D02*
Y480750D01*
D17*
X0Y5000D02*
X137000D01*
X186000Y54000D01*
X268000D01*
X280000Y66000D01*
Y95000D01*
X260000Y115000D02*
X280000Y95000D01*
X185000Y115000D02*
X260000D01*
X138348Y161652D02*
X185000Y115000D01*
X0Y161652D02*
X138348D01*
D18*
X297469Y28261D02*
X296136Y26928D01*
Y24262D01*
X297469Y22929D01*
X302800D01*
X304133Y24262D01*
Y26928D01*
X302800Y28261D01*
X304133Y30927D02*
Y33593D01*
Y32260D01*
X296136D01*
X297469Y30927D01*
X304133Y42923D02*
Y37591D01*
X298802Y42923D01*
X297469D01*
X296136Y41590D01*
Y38924D01*
X297469Y37591D01*
X145003Y174001D02*
Y181999D01*
X149002D01*
X150335Y180666D01*
Y178000D01*
X149002Y176667D01*
X145003D01*
X147669D02*
X150335Y174001D01*
X153001D02*
X155666D01*
X154333D01*
Y181999D01*
X153001Y180666D01*
X159665Y175334D02*
X160998Y174001D01*
X163664D01*
X164997Y175334D01*
Y180666D01*
X163664Y181999D01*
X160998D01*
X159665Y180666D01*
Y179333D01*
X160998Y178000D01*
X164997D01*
X156335Y270499D02*
Y263834D01*
X157668Y262501D01*
X160334D01*
X161667Y263834D01*
Y270499D01*
X164333Y269166D02*
X165666Y270499D01*
X168332D01*
X169664Y269166D01*
Y267833D01*
X168332Y266500D01*
X166999D01*
X168332D01*
X169664Y265167D01*
Y263834D01*
X168332Y262501D01*
X165666D01*
X164333Y263834D01*
X156750Y406250D02*
Y414247D01*
X159416Y411582D01*
X162082Y414247D01*
Y406250D01*
X164747D02*
X167413D01*
X166080D01*
Y414247D01*
X164747Y412915D01*
X78249Y247003D02*
X70251D01*
Y251002D01*
X71584Y252335D01*
X74250D01*
X75583Y251002D01*
Y247003D01*
Y249669D02*
X78249Y252335D01*
Y255001D02*
Y257666D01*
Y256334D01*
X70251D01*
X71584Y255001D01*
X78249Y266997D02*
Y261665D01*
X72917Y266997D01*
X71584D01*
X70251Y265664D01*
Y262998D01*
X71584Y261665D01*
X112585Y281166D02*
X111252Y282499D01*
X108586D01*
X107253Y281166D01*
Y275834D01*
X108586Y274501D01*
X111252D01*
X112585Y275834D01*
X115251Y274501D02*
X117916D01*
X116584D01*
Y282499D01*
X115251Y281166D01*
X127247Y282499D02*
X121915D01*
Y278500D01*
X124581Y279833D01*
X125914D01*
X127247Y278500D01*
Y275834D01*
X125914Y274501D01*
X123248D01*
X121915Y275834D01*
X108501Y198585D02*
X116499D01*
Y202584D01*
X115166Y203917D01*
X109834D01*
X108501Y202584D01*
Y198585D01*
X115166Y206583D02*
X116499Y207916D01*
Y210582D01*
X115166Y211915D01*
X109834D01*
X108501Y210582D01*
Y207916D01*
X109834Y206583D01*
X111167D01*
X112500Y207916D01*
Y211915D01*
X85835Y180666D02*
X84502Y181999D01*
X81836D01*
X80503Y180666D01*
Y175334D01*
X81836Y174001D01*
X84502D01*
X85835Y175334D01*
X88501Y174001D02*
X91166D01*
X89834D01*
Y181999D01*
X88501Y180666D01*
X100497Y181999D02*
X97831Y180666D01*
X95165Y178000D01*
Y175334D01*
X96498Y174001D01*
X99164D01*
X100497Y175334D01*
Y176667D01*
X99164Y178000D01*
X95165D01*
X115503Y174001D02*
Y181999D01*
X119502D01*
X120835Y180666D01*
Y178000D01*
X119502Y176667D01*
X115503D01*
X118169D02*
X120835Y174001D01*
X123501D02*
X126166D01*
X124834D01*
Y181999D01*
X123501Y180666D01*
X130165D02*
X131498Y181999D01*
X134164D01*
X135497Y180666D01*
Y179333D01*
X134164Y178000D01*
X132831D01*
X134164D01*
X135497Y176667D01*
Y175334D01*
X134164Y174001D01*
X131498D01*
X130165Y175334D01*
X13749Y169587D02*
X5751D01*
Y173585D01*
X7084Y174918D01*
X9750D01*
X11083Y173585D01*
Y169587D01*
Y172253D02*
X13749Y174918D01*
Y182916D02*
Y177584D01*
X8417Y182916D01*
X7084D01*
X5751Y181583D01*
Y178917D01*
X7084Y177584D01*
Y185582D02*
X5751Y186915D01*
Y189580D01*
X7084Y190913D01*
X12416D01*
X13749Y189580D01*
Y186915D01*
X12416Y185582D01*
X7084D01*
X13499Y267420D02*
X5501D01*
Y271418D01*
X6834Y272751D01*
X9500D01*
X10833Y271418D01*
Y267420D01*
Y270086D02*
X13499Y272751D01*
Y280749D02*
Y275417D01*
X8167Y280749D01*
X6834D01*
X5501Y279416D01*
Y276750D01*
X6834Y275417D01*
X13499Y283414D02*
Y286080D01*
Y284747D01*
X5501D01*
X6834Y283414D01*
X166917Y358084D02*
Y363416D01*
X165584Y364749D01*
X162918D01*
X161586Y363416D01*
Y358084D01*
X162918Y356751D01*
X165584D01*
X164251Y359417D02*
X166917Y356751D01*
X165584D02*
X166917Y358084D01*
X169583Y363416D02*
X170916Y364749D01*
X173582D01*
X174914Y363416D01*
Y362083D01*
X173582Y360750D01*
X172249D01*
X173582D01*
X174914Y359417D01*
Y358084D01*
X173582Y356751D01*
X170916D01*
X169583Y358084D01*
X124499Y314253D02*
X116501D01*
Y318252D01*
X117834Y319585D01*
X120500D01*
X121833Y318252D01*
Y314253D01*
Y316919D02*
X124499Y319585D01*
Y322251D02*
Y324916D01*
Y323584D01*
X116501D01*
X117834Y322251D01*
X116501Y334247D02*
X117834Y331581D01*
X120500Y328915D01*
X123166D01*
X124499Y330248D01*
Y332914D01*
X123166Y334247D01*
X121833D01*
X120500Y332914D01*
Y328915D01*
X166667Y286084D02*
Y291416D01*
X165334Y292749D01*
X162668D01*
X161336Y291416D01*
Y286084D01*
X162668Y284751D01*
X165334D01*
X164001Y287417D02*
X166667Y284751D01*
X165334D02*
X166667Y286084D01*
X173332Y284751D02*
Y292749D01*
X169333Y288750D01*
X174664D01*
X170573Y314753D02*
X162575D01*
Y318752D01*
X163908Y320085D01*
X166574D01*
X167907Y318752D01*
Y314753D01*
Y317419D02*
X170573Y320085D01*
Y322751D02*
Y325416D01*
Y324084D01*
X162575D01*
X163908Y322751D01*
X162575Y329415D02*
Y334747D01*
X163908D01*
X169240Y329415D01*
X170573D01*
X235496Y457373D02*
X234163Y458706D01*
X231497D01*
X230165Y457373D01*
Y456040D01*
X231497Y454707D01*
X234163D01*
X235496Y453374D01*
Y452041D01*
X234163Y450708D01*
X231497D01*
X230165Y452041D01*
X238162Y458706D02*
Y450708D01*
X240828Y453374D01*
X243494Y450708D01*
Y458706D01*
X246159Y457373D02*
X247492Y458706D01*
X250158D01*
X251491Y457373D01*
Y456040D01*
X250158Y454707D01*
X248825D01*
X250158D01*
X251491Y453374D01*
Y452041D01*
X250158Y450708D01*
X247492D01*
X246159Y452041D01*
X269668Y457666D02*
X268335Y458999D01*
X265670D01*
X264337Y457666D01*
Y456333D01*
X265670Y455000D01*
X268335D01*
X269668Y453667D01*
Y452334D01*
X268335Y451001D01*
X265670D01*
X264337Y452334D01*
X272334Y458999D02*
Y451001D01*
X275000Y453667D01*
X277666Y451001D01*
Y458999D01*
X285663Y451001D02*
X280332D01*
X285663Y456333D01*
Y457666D01*
X284330Y458999D01*
X281665D01*
X280332Y457666D01*
X321082Y69583D02*
Y74914D01*
X319749Y76247D01*
X317083D01*
X315750Y74914D01*
Y69583D01*
X317083Y68250D01*
X319749D01*
X318416Y70916D02*
X321082Y68250D01*
X319749D02*
X321082Y69583D01*
X329079Y68250D02*
X323747D01*
X329079Y73582D01*
Y74914D01*
X327746Y76247D01*
X325080D01*
X323747Y74914D01*
X329503Y10000D02*
X337500D01*
Y13999D01*
X336167Y15332D01*
X330835D01*
X329503Y13999D01*
Y10000D01*
X337500Y23329D02*
Y17997D01*
X332168Y23329D01*
X330835D01*
X329503Y21996D01*
Y19330D01*
X330835Y17997D01*
X115249Y247253D02*
X107251D01*
Y251252D01*
X108584Y252585D01*
X111250D01*
X112583Y251252D01*
Y247253D01*
Y249919D02*
X115249Y252585D01*
Y255251D02*
Y257917D01*
Y256584D01*
X107251D01*
X108584Y255251D01*
Y261915D02*
X107251Y263248D01*
Y265914D01*
X108584Y267247D01*
X109917D01*
X111250Y265914D01*
X112583Y267247D01*
X113916D01*
X115249Y265914D01*
Y263248D01*
X113916Y261915D01*
X112583D01*
X111250Y263248D01*
X109917Y261915D01*
X108584D01*
X111250Y263248D02*
Y265914D01*
X79750Y388747D02*
Y382083D01*
X81083Y380750D01*
X83749D01*
X85082Y382083D01*
Y388747D01*
X93079Y380750D02*
X87747D01*
X93079Y386082D01*
Y387415D01*
X91746Y388747D01*
X89080D01*
X87747Y387415D01*
X51247Y281028D02*
X49914Y282361D01*
X47248D01*
X45915Y281028D01*
Y275697D01*
X47248Y274364D01*
X49914D01*
X51247Y275697D01*
X53912Y274364D02*
Y282361D01*
X59244Y274364D01*
Y282361D01*
X67241Y274364D02*
X61910D01*
X67241Y279695D01*
Y281028D01*
X65908Y282361D01*
X63243D01*
X61910Y281028D01*
X55000Y149997D02*
Y142000D01*
X58999D01*
X60332Y143333D01*
Y148665D01*
X58999Y149997D01*
X55000D01*
X62997Y142000D02*
X65663D01*
X64330D01*
Y149997D01*
X62997Y148665D01*
X178000Y397997D02*
Y391333D01*
X179333Y390000D01*
X181999D01*
X183332Y391333D01*
Y397997D01*
X185997Y390000D02*
X188663D01*
X187330D01*
Y397997D01*
X185997Y396665D01*
X438003Y10000D02*
X446000D01*
Y13999D01*
X444667Y15332D01*
X443334D01*
X442001Y13999D01*
Y10000D01*
Y13999D01*
X440668Y15332D01*
X439336D01*
X438003Y13999D01*
Y10000D01*
Y17997D02*
Y23329D01*
X439336D01*
X444667Y17997D01*
X446000D01*
Y23329D01*
Y25995D02*
Y28661D01*
Y27328D01*
X438003D01*
X439336Y25995D01*
X363082Y421414D02*
X361749Y422747D01*
X359083D01*
X357750Y421414D01*
Y416083D01*
X359083Y414750D01*
X361749D01*
X363082Y416083D01*
X365747Y414750D02*
X368413D01*
X367080D01*
Y422747D01*
X365747Y421414D01*
X363082Y432915D02*
X361749Y434247D01*
X359083D01*
X357750Y432915D01*
Y427583D01*
X359083Y426250D01*
X361749D01*
X363082Y427583D01*
X371079Y426250D02*
X365747D01*
X371079Y431582D01*
Y432915D01*
X369746Y434247D01*
X367080D01*
X365747Y432915D01*
X11582Y327415D02*
X10249Y328747D01*
X7583D01*
X6250Y327415D01*
Y322083D01*
X7583Y320750D01*
X10249D01*
X11582Y322083D01*
X14247Y328747D02*
X19579D01*
Y327415D01*
X14247Y322083D01*
Y320750D01*
X97462Y330680D02*
X96130Y332012D01*
X93464D01*
X92131Y330680D01*
Y325348D01*
X93464Y324015D01*
X96130D01*
X97462Y325348D01*
X100128Y330680D02*
X101461Y332012D01*
X104127D01*
X105460Y330680D01*
Y329347D01*
X104127Y328014D01*
X105460Y326681D01*
Y325348D01*
X104127Y324015D01*
X101461D01*
X100128Y325348D01*
Y326681D01*
X101461Y328014D01*
X100128Y329347D01*
Y330680D01*
X101461Y328014D02*
X104127D01*
X22582Y419165D02*
X21249Y420497D01*
X18583D01*
X17250Y419165D01*
Y413833D01*
X18583Y412500D01*
X21249D01*
X22582Y413833D01*
X25247Y412500D02*
Y420497D01*
X30579Y412500D01*
Y420497D01*
X33245Y419165D02*
X34578Y420497D01*
X37244D01*
X38577Y419165D01*
Y417832D01*
X37244Y416499D01*
X35911D01*
X37244D01*
X38577Y415166D01*
Y413833D01*
X37244Y412500D01*
X34578D01*
X33245Y413833D01*
X357824Y437500D02*
Y445498D01*
X361823D01*
X363156Y444165D01*
Y441499D01*
X361823Y440166D01*
X357824D01*
X360490D02*
X363156Y437500D01*
X365822Y444165D02*
X367155Y445498D01*
X369820D01*
X371153Y444165D01*
Y442832D01*
X369820Y441499D01*
X368488D01*
X369820D01*
X371153Y440166D01*
Y438833D01*
X369820Y437500D01*
X367155D01*
X365822Y438833D01*
X321000Y139500D02*
X313003D01*
Y143499D01*
X314335Y144832D01*
X317001D01*
X318334Y143499D01*
Y139500D01*
Y142166D02*
X321000Y144832D01*
Y147497D02*
Y150163D01*
Y148830D01*
X313003D01*
X314335Y147497D01*
Y154162D02*
X313003Y155495D01*
Y158161D01*
X314335Y159494D01*
X319667D01*
X321000Y158161D01*
Y155495D01*
X319667Y154162D01*
X314335D01*
X14332Y148665D02*
X12999Y149997D01*
X10333D01*
X9000Y148665D01*
Y143333D01*
X10333Y142000D01*
X12999D01*
X14332Y143333D01*
X16997Y142000D02*
Y149997D01*
X22329Y142000D01*
Y149997D01*
X24995Y142000D02*
X27661D01*
X26328D01*
Y149997D01*
X24995Y148665D01*
X438832Y128583D02*
Y133914D01*
X437499Y135247D01*
X434833D01*
X433500Y133914D01*
Y128583D01*
X434833Y127250D01*
X437499D01*
X436166Y129916D02*
X438832Y127250D01*
X437499D02*
X438832Y128583D01*
X441497Y127250D02*
X444163D01*
X442830D01*
Y135247D01*
X441497Y133914D01*
X356500Y123000D02*
Y130997D01*
X360499D01*
X361832Y129664D01*
Y126999D01*
X360499Y125666D01*
X356500D01*
X359166D02*
X361832Y123000D01*
X364497Y130997D02*
X369829D01*
Y129664D01*
X364497Y124333D01*
Y123000D01*
X356500Y107500D02*
Y115497D01*
X360499D01*
X361832Y114164D01*
Y111499D01*
X360499Y110166D01*
X356500D01*
X359166D02*
X361832Y107500D01*
X364497Y108833D02*
X365830Y107500D01*
X368496D01*
X369829Y108833D01*
Y114164D01*
X368496Y115497D01*
X365830D01*
X364497Y114164D01*
Y112832D01*
X365830Y111499D01*
X369829D01*
X305000Y139500D02*
X297003D01*
Y143499D01*
X298335Y144832D01*
X301001D01*
X302334Y143499D01*
Y139500D01*
Y142166D02*
X305000Y144832D01*
X298335Y147497D02*
X297003Y148830D01*
Y151496D01*
X298335Y152829D01*
X299668D01*
X301001Y151496D01*
X302334Y152829D01*
X303667D01*
X305000Y151496D01*
Y148830D01*
X303667Y147497D01*
X302334D01*
X301001Y148830D01*
X299668Y147497D01*
X298335D01*
X301001Y148830D02*
Y151496D01*
M02*
