G04*
G04 #@! TF.GenerationSoftware,Altium Limited,Altium Designer,23.4.1 (23)*
G04*
G04 Layer_Color=8421504*
%FSLAX44Y44*%
%MOMM*%
G71*
G04*
G04 #@! TF.SameCoordinates,2E05C734-F49D-4732-BD03-9418B1375616*
G04*
G04*
G04 #@! TF.FilePolarity,Positive*
G04*
G01*
G75*
%ADD19R,0.8000X0.9500*%
%ADD20R,3.2500X3.2500*%
%ADD21O,0.3500X0.9500*%
%ADD22O,0.9500X0.3500*%
%ADD23R,0.7500X0.9500*%
%ADD24R,0.9500X0.9500*%
%ADD25R,0.9500X0.8000*%
%ADD26R,0.5500X0.9500*%
%ADD27R,0.9500X0.9500*%
%ADD28R,0.6000X1.0000*%
%ADD29R,0.9000X1.7000*%
%ADD30R,1.5500X2.4000*%
%ADD31R,1.5000X3.4000*%
%ADD32R,1.7500X0.9500*%
%ADD33R,1.7500X3.2000*%
%ADD34R,0.9000X2.5400*%
%ADD35R,2.5400X0.9000*%
%ADD36R,5.0000X5.0000*%
%ADD37R,1.8000X2.9000*%
%ADD38R,1.0000X0.6000*%
G36*
X314811Y334137D02*
Y302489D01*
X283151D01*
Y334137D01*
X314811D01*
D02*
G37*
D19*
X163000Y191500D02*
D03*
X147000D02*
D03*
X204750Y453250D02*
D03*
X220750D02*
D03*
X142000D02*
D03*
X158000D02*
D03*
X142000Y468750D02*
D03*
X158000D02*
D03*
X142000Y484250D02*
D03*
X158000D02*
D03*
X326750Y453250D02*
D03*
X342750D02*
D03*
X133500Y191500D02*
D03*
X117500D02*
D03*
X358000Y484250D02*
D03*
X374000D02*
D03*
X393750Y111250D02*
D03*
X377750D02*
D03*
X393750Y126750D02*
D03*
X377750D02*
D03*
D20*
X145250Y231250D02*
D03*
D21*
X130250Y254250D02*
D03*
X135250D02*
D03*
X140250D02*
D03*
X145250D02*
D03*
X150250D02*
D03*
X155250D02*
D03*
X160250D02*
D03*
X155250Y208250D02*
D03*
X150250D02*
D03*
X145250D02*
D03*
X140250D02*
D03*
X135250D02*
D03*
X130250D02*
D03*
X160250D02*
D03*
D22*
X168250Y246250D02*
D03*
Y241250D02*
D03*
Y236250D02*
D03*
Y231250D02*
D03*
Y226250D02*
D03*
Y221250D02*
D03*
Y216250D02*
D03*
X122250D02*
D03*
Y221250D02*
D03*
Y226250D02*
D03*
Y231250D02*
D03*
Y236250D02*
D03*
Y241250D02*
D03*
Y246250D02*
D03*
D23*
X111500Y468750D02*
D03*
X127000D02*
D03*
X111500Y484250D02*
D03*
X127000D02*
D03*
D24*
X190250Y453250D02*
D03*
X174250D02*
D03*
X312250D02*
D03*
X296250D02*
D03*
X84500Y279500D02*
D03*
X100500D02*
D03*
X98500Y191500D02*
D03*
X82500D02*
D03*
X374000Y453250D02*
D03*
X358000D02*
D03*
Y468750D02*
D03*
X374000D02*
D03*
D25*
X84500Y248750D02*
D03*
Y264750D02*
D03*
X9750Y198500D02*
D03*
Y214500D02*
D03*
Y259000D02*
D03*
Y243000D02*
D03*
X133250Y316750D02*
D03*
Y332750D02*
D03*
X153250D02*
D03*
Y316750D02*
D03*
X100500Y264750D02*
D03*
Y248750D02*
D03*
X317000Y114500D02*
D03*
Y130500D02*
D03*
X301000Y114500D02*
D03*
Y130500D02*
D03*
D26*
X82000Y228750D02*
D03*
X101000D02*
D03*
Y205250D02*
D03*
D27*
X84000D02*
D03*
X286133Y41929D02*
D03*
Y25930D02*
D03*
D28*
X143250Y371000D02*
D03*
X152750Y347000D02*
D03*
X133750D02*
D03*
X143250Y278500D02*
D03*
X133750Y302500D02*
D03*
X152750D02*
D03*
X308039Y75630D02*
D03*
X298539Y99630D02*
D03*
X317539D02*
D03*
D29*
X216500Y480000D02*
D03*
X175500D02*
D03*
X299500D02*
D03*
X340500D02*
D03*
D30*
X311750Y17500D02*
D03*
Y48000D02*
D03*
D31*
X433500Y51500D02*
D03*
X344500D02*
D03*
D32*
X24250Y336000D02*
D03*
Y359000D02*
D03*
Y382000D02*
D03*
D33*
X87250Y359000D02*
D03*
D34*
X374000Y220800D02*
D03*
X335900D02*
D03*
X323200D02*
D03*
X310500D02*
D03*
X285100D02*
D03*
X272400D02*
D03*
X234300D02*
D03*
X221600D02*
D03*
X208900D02*
D03*
Y396000D02*
D03*
X221600D02*
D03*
X247000D02*
D03*
X259700D02*
D03*
X348600D02*
D03*
X361300D02*
D03*
X374000D02*
D03*
D35*
X196200Y352750D02*
D03*
Y365450D02*
D03*
D36*
X299000Y318300D02*
D03*
D37*
X15000Y305000D02*
D03*
X44000D02*
D03*
X96250Y305000D02*
D03*
X67250D02*
D03*
D38*
X409250Y128500D02*
D03*
Y109500D02*
D03*
X433250Y119000D02*
D03*
M02*
