M48
;Layer_Color=9474304
;FILE_FORMAT=4:4
METRIC,LZ
;TYPE=PLATED
T1F00S00C0.2000
T2F00S00C0.3000
T3F00S00C0.4000
T5F00S00C0.7500
T6F00S00C1.0000
T7F00S00C1.1000
T8F00S00C1.2000
T9F00S00C1.4000
T10F00S00C3.0000
%
T01
X0013425Y0022025
X0014525
X0015625
Y0023125
X0014525
X0013425
Y0024225
X0014525
X0015625
T02
X0029Y00014
X0028625Y0005175
X003275Y00065
X0032775Y0003025
X003775Y0003
X00377Y00056
X00408Y000565
X004075Y0003
X00065Y0017
X0001Y00175
X00065Y002675
X000675Y003275
X00045Y003325
X0000875Y0033575
X00025Y0037
Y003975
X000375
X0009625Y0032775
X001205Y00359
X0017Y003725
X001825Y0038
X001475Y00415
X001375Y0044
X001235Y0045575
X0011175
X00255Y00455
X002465Y00359
X0031Y0035
X003275
Y00385
X0031
X003225Y004125
X00374Y0043725
X0037084Y0036576
Y0034544
Y0032512
Y003048
Y0028448
Y0026416
Y0024384
X0033625Y002465
X003375Y002625
X0032325Y00238875
X002525Y002275
Y00215
X0023425Y00259608
X0022Y002575
X0018Y00255
Y0024
Y002275
Y002075
X0021075Y001925
X001925Y0017
X00135
X0012025Y0020625
X00111Y0021625
X0010925Y0024025
X00135Y0026675
X00154463Y00274287
X00155Y002875
X001225Y0029
X002825Y0016
X00295545Y00091545
X00295Y0007025
X003425Y000975
X00361Y00106
X0033Y0012
X00409029Y0011941
X00429Y0014775
X0044Y001625
X0042Y00185
X003975Y001675
X003925Y0008025
X00425Y000775
X004425
X00365254Y00494557
X00285Y004725
X00255Y0048
X0018525Y00465
X00085Y0049
X000675
X0005
T03
X00038Y0019625
Y00205536
Y00214821
Y00224107
Y00233393
X00052Y00233393
Y00242679
Y00251964
Y0026125
X00038Y0026125
Y00251964
X00052Y00224107
Y00205536
Y0019625
T05
X00196Y00471
Y00489
X0032Y00489
Y00471
T06
X00025Y0044925
Y0047425
T07
X001615Y004306
X001869
X002123
X002377
X002631
X002885
X003139
X003393
T08
X001175Y0002
X002395
X002595Y0008
X002395Y0014
X001175Y0014
T09
X00059Y00045
Y0008
Y00115
T10
X0008516Y0042425
X0036456Y0016771
M30
