G04 Layer_Physical_Order=1*
G04 Layer_Color=255*
%FSLAX44Y44*%
%MOMM*%
G71*
G01*
G75*
%ADD10R,0.9500X0.8000*%
%ADD11R,0.9500X0.9500*%
%ADD12R,1.3500X0.4000*%
%ADD13R,1.3500X0.3000*%
%ADD14R,1.9000X2.3000*%
%ADD15R,1.9000X1.8000*%
%ADD16R,0.8000X0.9500*%
%ADD17R,1.8000X2.9000*%
%ADD18R,0.9500X0.9500*%
%ADD19R,0.9000X2.5400*%
%ADD20R,2.5400X0.9000*%
%ADD21R,5.0000X5.0000*%
%ADD22R,2.9000X1.8000*%
%ADD23R,0.9500X1.7500*%
%ADD24R,3.2000X1.7500*%
%ADD25R,1.5500X2.4000*%
%ADD26R,0.6000X1.0000*%
%ADD27C,2.0000*%
%ADD28C,0.5000*%
%ADD29C,0.2540*%
%ADD30C,1.0000*%
%ADD31C,0.5080*%
%ADD32C,1.6000*%
%ADD33R,1.6000X1.6000*%
%ADD34R,1.6000X1.6000*%
%ADD35C,5.0000*%
%ADD36O,2.5000X2.0000*%
%ADD37C,2.5000*%
%ADD38O,2.5000X1.5000*%
%ADD39R,2.8000X2.0000*%
%ADD40O,2.8000X2.0000*%
%ADD41C,2.0000*%
%ADD42C,0.8000*%
G36*
X379910Y495290D02*
X376270D01*
Y488000D01*
X375000D01*
Y486730D01*
X368460D01*
Y482999D01*
X367023Y481899D01*
X365540Y482590D01*
Y495290D01*
X352460D01*
Y491883D01*
X352108D01*
X350622Y491587D01*
X349361Y490745D01*
X348180Y489563D01*
X345496Y489896D01*
X345207Y490596D01*
X343517Y492797D01*
X341315Y494487D01*
X338751Y495549D01*
X336000Y495911D01*
X333248Y495549D01*
X330685Y494487D01*
X328483Y492797D01*
X326793Y490596D01*
X325731Y488032D01*
X325420Y485666D01*
X324344Y484997D01*
X322897Y484597D01*
X320540Y486954D01*
Y495290D01*
X307460D01*
Y490496D01*
X304920Y489138D01*
X304540Y489392D01*
Y495290D01*
X291476D01*
X291460Y495290D01*
X289024Y495040D01*
X288920Y495040D01*
X278770D01*
Y478000D01*
X277500D01*
Y476730D01*
X265960D01*
Y461830D01*
X265960Y460960D01*
X264112Y459290D01*
X261888D01*
X260040Y460960D01*
Y495040D01*
X236960D01*
Y484638D01*
X236545Y484157D01*
X234420Y483075D01*
X233707Y483371D01*
X233270Y483428D01*
Y476999D01*
Y470570D01*
X233707Y470627D01*
X234420Y470923D01*
X236545Y469841D01*
X236960Y469360D01*
Y460960D01*
X243321D01*
Y457179D01*
X212246D01*
X210861Y458741D01*
X210428Y459720D01*
X210596Y461000D01*
X210372Y462707D01*
X209713Y464298D01*
X208664Y465664D01*
X207298Y466713D01*
X205707Y467372D01*
X204000Y467596D01*
X202595Y469458D01*
X202299Y470945D01*
X201457Y472205D01*
X199225Y474437D01*
X197965Y475279D01*
X196478Y475575D01*
X195738D01*
X195027Y476753D01*
X194687Y478115D01*
X196107Y479964D01*
X196223Y480246D01*
X198436Y480579D01*
X200460Y478783D01*
Y478710D01*
X213540D01*
Y493290D01*
X200460D01*
Y491776D01*
X199512Y491587D01*
X198676Y491029D01*
X197763Y490875D01*
X195413Y491499D01*
X194417Y492797D01*
X192215Y494487D01*
X189652Y495549D01*
X186900Y495911D01*
X184149Y495549D01*
X181584Y494487D01*
X179383Y492797D01*
X177693Y490596D01*
X176631Y488032D01*
X176448Y486638D01*
X173766Y485728D01*
X173747Y485747D01*
X172487Y486589D01*
X171000Y486885D01*
X139500D01*
X138013Y486589D01*
X136753Y485747D01*
X115361Y464354D01*
X112058Y467658D01*
X110483Y468866D01*
X108648Y469626D01*
X106680Y469885D01*
X54000D01*
X52032Y469626D01*
X50198Y468866D01*
X48622Y467658D01*
X47414Y466082D01*
X47056Y465218D01*
X30669Y448831D01*
X30107Y447991D01*
X29910Y447000D01*
X29910Y439240D01*
X28210Y437540D01*
X28210D01*
Y428460D01*
Y415960D01*
Y409460D01*
Y408270D01*
X37500D01*
X46790D01*
Y409460D01*
Y415960D01*
Y428460D01*
Y437540D01*
X45090D01*
Y441427D01*
X58337Y454675D01*
X103530D01*
X107352Y450852D01*
X115585Y442620D01*
Y403200D01*
X105345Y392960D01*
X91860D01*
Y358929D01*
X85940D01*
Y374650D01*
X74400D01*
X62860D01*
Y358929D01*
X31264D01*
X29705Y361469D01*
X29812Y361727D01*
X30036Y363435D01*
X29812Y365142D01*
X29153Y366733D01*
X28104Y368099D01*
X26738Y369147D01*
X25147Y369807D01*
X23440Y370031D01*
X22790Y370602D01*
Y381230D01*
X12020D01*
Y368460D01*
X15851D01*
X16373Y367979D01*
X17391Y365920D01*
X17068Y365142D01*
X16844Y363435D01*
X17068Y361727D01*
X17727Y360137D01*
X18776Y358770D01*
X18366Y356061D01*
X11125Y348820D01*
X10002Y347140D01*
X9608Y345157D01*
Y207463D01*
X10002Y205480D01*
X11125Y203800D01*
X31837Y183088D01*
X33518Y181965D01*
X35500Y181570D01*
X233458D01*
X234230Y180511D01*
X232983Y177910D01*
X232543Y177852D01*
X230952Y177193D01*
X229586Y176144D01*
X228537Y174778D01*
X227878Y173187D01*
X227821Y172750D01*
X234250D01*
Y171480D01*
X235520D01*
Y165051D01*
X235957Y165108D01*
X237548Y165767D01*
X238914Y166816D01*
X239963Y168182D01*
X240622Y169773D01*
X240846Y171480D01*
X240807Y171775D01*
X243213Y172962D01*
X251983Y164192D01*
X250931Y161652D01*
X0Y161652D01*
Y368460D01*
X9480D01*
Y382500D01*
X10750D01*
Y383770D01*
X22790D01*
Y396540D01*
X22790D01*
Y396960D01*
X22790D01*
Y407230D01*
X10750D01*
Y409770D01*
X22790D01*
Y419960D01*
Y430230D01*
X10750D01*
Y432770D01*
X22790D01*
Y443040D01*
X22790D01*
Y443460D01*
X22790D01*
Y456230D01*
X10750D01*
Y457500D01*
X9480D01*
Y471540D01*
X0D01*
Y500000D01*
X379910D01*
Y495290D01*
D02*
G37*
G36*
X375270Y205560D02*
X379910D01*
Y195000D01*
X380107Y194009D01*
X380669Y193169D01*
X381509Y192607D01*
X382500Y192410D01*
X408145D01*
X409871Y189968D01*
X409867Y189870D01*
X409821Y189520D01*
X416250D01*
Y186980D01*
X409821D01*
X409878Y186543D01*
X410537Y184952D01*
X411586Y183586D01*
X412952Y182537D01*
X414543Y181878D01*
X414830Y181840D01*
Y179640D01*
X420370D01*
X425910D01*
Y185910D01*
X424966D01*
X422846Y188250D01*
X422633Y189870D01*
X422629Y189968D01*
X424355Y192410D01*
X450000D01*
X450000Y-0D01*
X283500Y-0D01*
Y14861D01*
X289710D01*
Y5210D01*
X310290D01*
Y27296D01*
X316437Y33443D01*
X317279Y34703D01*
X317349Y35055D01*
X320065Y35689D01*
X320336Y35336D01*
X321702Y34287D01*
X323293Y33628D01*
X323730Y33571D01*
Y40000D01*
Y46429D01*
X323293Y46372D01*
X321702Y45713D01*
X320336Y44664D01*
X320115Y44376D01*
X317575Y45239D01*
Y68090D01*
X319840D01*
Y83170D01*
X308760D01*
Y68090D01*
X309805D01*
Y64790D01*
X291698D01*
X290783Y66366D01*
X291799Y68090D01*
X300840D01*
Y83170D01*
X299185D01*
Y89581D01*
X299260Y92090D01*
X301725Y92090D01*
X303530D01*
Y99630D01*
X304800D01*
Y100900D01*
X310340D01*
Y105920D01*
X310340Y107170D01*
X312346Y108460D01*
X320290D01*
Y121540D01*
X305710D01*
Y121540D01*
X304290D01*
Y121540D01*
X292292D01*
X291437Y123000D01*
X292292Y124460D01*
X303170D01*
X305000Y124460D01*
X306830Y124460D01*
X311730D01*
Y131000D01*
Y137540D01*
X306830D01*
X305000Y137540D01*
X303175Y137540D01*
X300635Y137551D01*
Y141750D01*
X300339Y143237D01*
X299497Y144497D01*
X298525Y145469D01*
Y166099D01*
X301065Y167152D01*
X310498Y157718D01*
X310180Y156776D01*
X309270Y155556D01*
Y150270D01*
X314556D01*
X315776Y151180D01*
X316718Y151498D01*
X337963Y130253D01*
X339223Y129411D01*
X340710Y129115D01*
X389250D01*
X389725Y129210D01*
X399290D01*
Y143790D01*
X386210D01*
Y136885D01*
X342319D01*
X288985Y190219D01*
Y205560D01*
X315854D01*
X316906Y203020D01*
X309673Y195787D01*
X308831Y194527D01*
X308535Y193040D01*
Y190683D01*
X307756Y190084D01*
X306707Y188718D01*
X306048Y187127D01*
X305824Y185420D01*
X306048Y183713D01*
X306707Y182122D01*
X307756Y180756D01*
X309122Y179707D01*
X310713Y179048D01*
X312420Y178824D01*
X313398Y178952D01*
X314739Y177066D01*
X314852Y176702D01*
X314327Y176018D01*
X313668Y174427D01*
X313611Y173990D01*
X318770D01*
Y179598D01*
X317721Y181074D01*
X317608Y181438D01*
X318133Y182122D01*
X318792Y183713D01*
X319016Y185420D01*
X318792Y187127D01*
X318133Y188718D01*
X318975Y190919D01*
X320677Y191012D01*
X321726Y189646D01*
X323092Y188597D01*
X324683Y187938D01*
X326390Y187714D01*
X328097Y187938D01*
X329688Y188597D01*
X331054Y189646D01*
X332103Y191012D01*
X332762Y192603D01*
X332986Y194310D01*
X332858Y195284D01*
X338647Y201073D01*
X339489Y202333D01*
X339785Y203820D01*
Y205560D01*
X372730D01*
Y220800D01*
X375270D01*
Y205560D01*
D02*
G37*
G36*
X350710Y464710D02*
X350710D01*
Y463290D01*
X350710D01*
Y448710D01*
X352821D01*
Y430000D01*
X353215Y428018D01*
X354338Y426338D01*
X356120Y424555D01*
Y411240D01*
X347364D01*
X340976Y417628D01*
X341229Y419287D01*
X341762Y420293D01*
X342052Y420331D01*
X344616Y421393D01*
X346817Y423083D01*
X348507Y425285D01*
X349569Y427849D01*
X349931Y430600D01*
X349569Y433352D01*
X348507Y435915D01*
X346817Y438117D01*
X344616Y439807D01*
X342052Y440869D01*
X339300Y441231D01*
X338168Y441082D01*
X336981Y443488D01*
X338747Y445253D01*
X339589Y446513D01*
X339885Y448000D01*
Y449340D01*
X346540D01*
Y469075D01*
X350710D01*
Y464710D01*
D02*
G37*
G36*
X135270Y450571D02*
X135707Y450628D01*
X137298Y451287D01*
X138170Y451956D01*
X139887Y451435D01*
X140710Y450829D01*
Y449710D01*
X142543D01*
X143595Y447170D01*
X136838Y440412D01*
X135715Y438732D01*
X135321Y436750D01*
Y393645D01*
X130337Y388662D01*
X129215Y386982D01*
X128820Y385000D01*
Y374290D01*
X122460D01*
Y340210D01*
X125745D01*
Y321060D01*
Y297165D01*
X110390D01*
X94768Y312788D01*
X93193Y313996D01*
X91358Y314756D01*
X89390Y315015D01*
X82403D01*
X80316Y316617D01*
X77751Y317679D01*
X75000Y318041D01*
X72249Y317679D01*
X69685Y316617D01*
X67597Y315015D01*
X57040D01*
Y317040D01*
X22960D01*
Y293960D01*
X28821D01*
Y289300D01*
X27460D01*
Y274720D01*
X28821D01*
Y263900D01*
X27460D01*
Y249320D01*
X40540D01*
Y263900D01*
X39179D01*
Y274720D01*
X40540D01*
Y289300D01*
X39179D01*
Y293960D01*
X57040D01*
Y299805D01*
X67597D01*
X69685Y298203D01*
X72249Y297141D01*
X75000Y296779D01*
X77751Y297141D01*
X80316Y298203D01*
X82403Y299805D01*
X86240D01*
X101862Y284182D01*
X103438Y282974D01*
X104197Y282659D01*
X105272Y282214D01*
X107240Y281955D01*
X125745D01*
Y269350D01*
X114810D01*
Y256375D01*
X74857Y216422D01*
X72249Y216079D01*
X69685Y215017D01*
X67483Y213327D01*
X65793Y211126D01*
X64731Y208561D01*
X64369Y205810D01*
X64731Y203058D01*
X65793Y200494D01*
X67483Y198293D01*
X69685Y196603D01*
X72249Y195541D01*
X75000Y195179D01*
X77751Y195541D01*
X80316Y196603D01*
X82517Y198293D01*
X84207Y200494D01*
X85269Y203058D01*
X85612Y205667D01*
X87427Y207482D01*
X89833Y206296D01*
X89769Y205810D01*
X90131Y203058D01*
X91193Y200494D01*
X92883Y198293D01*
X95084Y196603D01*
X97648Y195541D01*
X100400Y195179D01*
X103152Y195541D01*
X105716Y196603D01*
X107917Y198293D01*
X109607Y200494D01*
X110669Y203058D01*
X111031Y205810D01*
X110669Y208561D01*
X109607Y211126D01*
X107917Y213327D01*
X105716Y215017D01*
X103152Y216079D01*
X100400Y216441D01*
X99914Y216377D01*
X98728Y218783D01*
X126715Y246770D01*
X151890D01*
Y269350D01*
X140955D01*
Y284380D01*
X196850D01*
X198832Y284775D01*
X200513Y285898D01*
X265035Y350420D01*
X338115D01*
X340097Y350815D01*
X341777Y351937D01*
X364963Y375122D01*
X366085Y376803D01*
X366479Y378785D01*
Y380760D01*
X372730D01*
Y396000D01*
Y411240D01*
X366479D01*
Y426700D01*
X366085Y428682D01*
X364963Y430363D01*
X363180Y432145D01*
Y447673D01*
X365290Y448710D01*
X366710D01*
Y448710D01*
X371301D01*
X371806Y446170D01*
X370702Y445713D01*
X369336Y444664D01*
X368287Y443298D01*
X367628Y441707D01*
X367571Y441270D01*
X374000D01*
Y440000D01*
X375270D01*
Y433571D01*
X375707Y433628D01*
X377298Y434287D01*
X377370Y434343D01*
X379910Y433090D01*
Y411240D01*
X375270D01*
Y396000D01*
Y380760D01*
X379910D01*
Y367684D01*
X377370Y367125D01*
X377212Y367467D01*
X377191Y367518D01*
X377134Y367655D01*
X376553Y369058D01*
X375504Y370424D01*
X374138Y371473D01*
X372547Y372132D01*
X372110Y372189D01*
Y365760D01*
Y359331D01*
X372547Y359388D01*
X374138Y360047D01*
X375504Y361096D01*
X376553Y362462D01*
X377134Y363865D01*
X377191Y364002D01*
X377212Y364053D01*
X377370Y364395D01*
X379910Y363836D01*
X379910Y347364D01*
X377370Y346805D01*
X377212Y347147D01*
X377191Y347198D01*
X377134Y347335D01*
X376553Y348738D01*
X375504Y350104D01*
X374138Y351153D01*
X372547Y351812D01*
X372110Y351869D01*
Y345440D01*
Y339011D01*
X372547Y339068D01*
X374138Y339727D01*
X375504Y340776D01*
X376553Y342142D01*
X377134Y343545D01*
X377191Y343682D01*
X377212Y343733D01*
X377370Y344075D01*
X379910Y343516D01*
Y327044D01*
X377370Y326485D01*
X377212Y326827D01*
X377191Y326878D01*
X377134Y327015D01*
X376553Y328418D01*
X375504Y329784D01*
X374138Y330833D01*
X372547Y331492D01*
X372110Y331549D01*
Y325120D01*
Y318691D01*
X372547Y318748D01*
X374138Y319407D01*
X375504Y320456D01*
X376553Y321822D01*
X377134Y323225D01*
X377191Y323362D01*
X377212Y323413D01*
X377370Y323755D01*
X379910Y323196D01*
Y306724D01*
X377370Y306165D01*
X377212Y306507D01*
X377191Y306558D01*
X377134Y306695D01*
X376553Y308098D01*
X375504Y309464D01*
X374138Y310513D01*
X372547Y311172D01*
X372110Y311229D01*
Y304800D01*
Y298371D01*
X372547Y298428D01*
X374138Y299087D01*
X375504Y300136D01*
X376553Y301502D01*
X377134Y302905D01*
X377191Y303042D01*
X377212Y303093D01*
X377370Y303435D01*
X379910Y302876D01*
Y286404D01*
X377370Y285845D01*
X377212Y286187D01*
X377191Y286238D01*
X377134Y286375D01*
X376553Y287778D01*
X375504Y289144D01*
X374138Y290193D01*
X372547Y290852D01*
X372110Y290909D01*
Y284480D01*
Y278051D01*
X372547Y278108D01*
X374138Y278767D01*
X375504Y279816D01*
X376553Y281182D01*
X377134Y282585D01*
X377191Y282722D01*
X377212Y282773D01*
X377370Y283115D01*
X379910Y282556D01*
Y266084D01*
X377370Y265525D01*
X377212Y265867D01*
X377191Y265918D01*
X377134Y266055D01*
X376553Y267458D01*
X375504Y268824D01*
X374138Y269873D01*
X372547Y270532D01*
X372110Y270589D01*
Y264160D01*
Y257731D01*
X372547Y257788D01*
X374138Y258447D01*
X375504Y259496D01*
X376553Y260862D01*
X377134Y262265D01*
X377191Y262402D01*
X377212Y262453D01*
X377370Y262795D01*
X379910Y262236D01*
Y244509D01*
X377370Y244343D01*
X377212Y245547D01*
X376553Y247138D01*
X375504Y248504D01*
X374138Y249553D01*
X372547Y250212D01*
X372110Y250269D01*
Y243840D01*
X370840D01*
Y242570D01*
X364411D01*
X364468Y242133D01*
X365127Y240542D01*
X366176Y239176D01*
X366952Y238580D01*
X366265Y236040D01*
X352485D01*
Y239150D01*
X352189Y240637D01*
X351347Y241897D01*
X345497Y247747D01*
X344237Y248589D01*
X342750Y248885D01*
X342013D01*
X341414Y249664D01*
X340048Y250713D01*
X338457Y251372D01*
X336750Y251596D01*
X335043Y251372D01*
X333452Y250713D01*
X332086Y249664D01*
X331037Y248298D01*
X330378Y246707D01*
X330154Y245000D01*
X330378Y243293D01*
X331037Y241702D01*
X332086Y240336D01*
X333452Y239287D01*
X335043Y238628D01*
X335410Y238580D01*
X335243Y236040D01*
X314385D01*
Y236870D01*
X314089Y238357D01*
X313247Y239617D01*
X309998Y242866D01*
X310126Y243840D01*
X309902Y245547D01*
X309243Y247138D01*
X308194Y248504D01*
X306828Y249553D01*
X305237Y250212D01*
X303530Y250436D01*
X301823Y250212D01*
X300232Y249553D01*
X298866Y248504D01*
X297817Y247138D01*
X297158Y245547D01*
X296934Y243840D01*
X297158Y242133D01*
X297817Y240542D01*
X298866Y239176D01*
X299642Y238580D01*
X298955Y236040D01*
X239727D01*
X238824Y238580D01*
X255859Y255615D01*
X320460D01*
X321947Y255911D01*
X323207Y256753D01*
X326686Y260232D01*
X327660Y260104D01*
X329367Y260328D01*
X330958Y260987D01*
X332324Y262036D01*
X333373Y263402D01*
X334032Y264993D01*
X334256Y266700D01*
X334032Y268407D01*
X333373Y269998D01*
X332324Y271364D01*
X330958Y272413D01*
X329367Y273072D01*
X327660Y273296D01*
X325953Y273072D01*
X324362Y272413D01*
X322996Y271364D01*
X321947Y269998D01*
X321288Y268407D01*
X321064Y266700D01*
X321192Y265726D01*
X318851Y263385D01*
X254250D01*
X252763Y263089D01*
X251503Y262247D01*
X231553Y242297D01*
X230711Y241037D01*
X230415Y239550D01*
Y236040D01*
X222262D01*
X221290Y238387D01*
X232617Y249713D01*
X233459Y250973D01*
X233755Y252460D01*
Y252547D01*
X234534Y253146D01*
X235583Y254512D01*
X236242Y256103D01*
X236466Y257810D01*
X236242Y259517D01*
X235583Y261108D01*
X234534Y262474D01*
X233168Y263523D01*
X231577Y264182D01*
X229870Y264406D01*
X228163Y264182D01*
X226572Y263523D01*
X225206Y262474D01*
X224157Y261108D01*
X223498Y259517D01*
X223274Y257810D01*
X223498Y256103D01*
X224157Y254512D01*
X225143Y253227D01*
X209503Y237587D01*
X208661Y236327D01*
X208604Y236040D01*
X201860D01*
Y205560D01*
X199496Y205135D01*
X195329D01*
X187718Y212746D01*
X187846Y213720D01*
X187622Y215427D01*
X186963Y217018D01*
X185914Y218384D01*
X184548Y219433D01*
X182957Y220092D01*
X181250Y220316D01*
X179543Y220092D01*
X177952Y219433D01*
X176586Y218384D01*
X175537Y217018D01*
X174878Y215427D01*
X174654Y213720D01*
X174878Y212013D01*
X175537Y210422D01*
X176586Y209056D01*
X177952Y208007D01*
X179543Y207348D01*
X181250Y207124D01*
X182224Y207252D01*
X190973Y198503D01*
X192233Y197661D01*
X193720Y197365D01*
X219030D01*
X220517Y197661D01*
X221777Y198503D01*
X224347Y201073D01*
X225189Y202333D01*
X225485Y203820D01*
Y205560D01*
X268515D01*
Y191350D01*
X268811Y189863D01*
X269653Y188603D01*
X290755Y167501D01*
Y143860D01*
X291051Y142373D01*
X291893Y141113D01*
X292865Y140141D01*
Y137540D01*
X289710D01*
X289113Y139833D01*
X288785Y141482D01*
X287663Y143162D01*
X265287Y165537D01*
X240413Y190413D01*
X238732Y191535D01*
X236750Y191929D01*
X54780D01*
Y196547D01*
X54915Y196603D01*
X57117Y198293D01*
X58807Y200494D01*
X59869Y203058D01*
X60231Y205810D01*
X59869Y208561D01*
X58807Y211126D01*
X57117Y213327D01*
X54915Y215017D01*
X52351Y216079D01*
X49600Y216441D01*
X46849Y216079D01*
X44285Y215017D01*
X42083Y213327D01*
X40393Y211126D01*
X39331Y208561D01*
X38969Y205810D01*
X39331Y203058D01*
X40393Y200494D01*
X42083Y198293D01*
X44285Y196603D01*
X44420Y196547D01*
Y191929D01*
X37645D01*
X19967Y209608D01*
Y341177D01*
X20420Y341479D01*
X22960Y340122D01*
Y335770D01*
X40000D01*
X57040D01*
Y346040D01*
X57040D01*
X57063Y348571D01*
X97341D01*
X98022Y347682D01*
X102745Y342960D01*
Y321060D01*
X103004Y319092D01*
X103060Y318957D01*
Y309770D01*
X117640D01*
Y318957D01*
X117696Y319092D01*
X117955Y321060D01*
Y346110D01*
X117696Y348078D01*
X116936Y349912D01*
X115728Y351488D01*
X111005Y356210D01*
Y358880D01*
X114940D01*
Y381045D01*
X128568Y394672D01*
X129776Y396247D01*
X130536Y398082D01*
X130795Y400050D01*
Y445770D01*
X130536Y447738D01*
X130102Y448787D01*
X131830Y450774D01*
X131876Y450801D01*
X132293Y450628D01*
X132730Y450571D01*
Y457000D01*
X135270D01*
Y450571D01*
D02*
G37*
G36*
X299270Y464710D02*
X305290D01*
X305290Y464710D01*
X306710D01*
Y464710D01*
X307830Y464710D01*
X316296D01*
X318753Y462253D01*
X320013Y461411D01*
X321500Y461115D01*
X325460D01*
Y449340D01*
X328528D01*
X329500Y446993D01*
X323643Y441137D01*
X322967Y440126D01*
X322556Y439812D01*
X320067Y439153D01*
X319216Y439807D01*
X316651Y440869D01*
X313900Y441231D01*
X311148Y440869D01*
X308584Y439807D01*
X306383Y438117D01*
X304693Y435915D01*
X303631Y433352D01*
X303269Y430600D01*
X303631Y427849D01*
X304224Y426418D01*
X301387Y423580D01*
X299040Y424552D01*
Y429330D01*
X289770D01*
Y420060D01*
X294548D01*
X295520Y417713D01*
X293171Y415365D01*
X266700D01*
X265213Y415069D01*
X263953Y414227D01*
X260966Y411240D01*
X206394D01*
X202005Y415629D01*
Y419380D01*
X201709Y420867D01*
X200867Y422127D01*
X196576Y426418D01*
X197169Y427849D01*
X197531Y430600D01*
X197169Y433352D01*
X196107Y435915D01*
X194468Y438050D01*
X194513Y438367D01*
X195366Y440591D01*
X201770D01*
X203752Y440985D01*
X205432Y442108D01*
X210145Y446820D01*
X257710D01*
Y444710D01*
X257920D01*
Y439863D01*
X257785Y439807D01*
X255583Y438117D01*
X253893Y435915D01*
X252831Y433352D01*
X252469Y430600D01*
X252831Y427849D01*
X253893Y425285D01*
X255583Y423083D01*
X257785Y421393D01*
X260348Y420331D01*
X263100Y419969D01*
X265851Y420331D01*
X268416Y421393D01*
X270617Y423083D01*
X272307Y425285D01*
X273369Y427849D01*
X273731Y430600D01*
X273369Y433352D01*
X272307Y435915D01*
X270617Y438117D01*
X268416Y439807D01*
X268279Y439863D01*
Y444710D01*
X273000Y444710D01*
X274830Y444710D01*
X279730D01*
Y452000D01*
X281000D01*
Y453270D01*
X288290D01*
X288290Y458731D01*
X289040Y460960D01*
X289040Y461519D01*
Y462862D01*
X290710Y464710D01*
X291580Y464710D01*
X296730D01*
Y472000D01*
X299270D01*
Y464710D01*
D02*
G37*
G36*
X62250Y467000D02*
Y462250D01*
X42500Y442500D01*
Y432500D01*
X32500Y432500D01*
X32500Y447000D01*
X52500Y467000D01*
X62250Y467000D01*
D02*
G37*
G36*
X151787Y439428D02*
X152871Y436669D01*
X152293Y435915D01*
X151231Y433352D01*
X150869Y430600D01*
X151231Y427849D01*
X152293Y425285D01*
X153983Y423083D01*
X156185Y421393D01*
X158749Y420331D01*
X161500Y419969D01*
X164251Y420331D01*
X165682Y420924D01*
X189816Y396791D01*
Y387300D01*
X190111Y385813D01*
X190953Y384553D01*
X199003Y376503D01*
X200263Y375661D01*
X201750Y375365D01*
X219230D01*
X220717Y375661D01*
X221977Y376503D01*
X224347Y378873D01*
X225189Y380133D01*
X225314Y380760D01*
X266740D01*
Y406026D01*
X268309Y407595D01*
X294780D01*
X296267Y407891D01*
X297527Y408733D01*
X309718Y420924D01*
X311148Y420331D01*
X313900Y419969D01*
X316651Y420331D01*
X319216Y421393D01*
X320085Y422060D01*
X322378Y421523D01*
X322998Y421128D01*
X323643Y420163D01*
X331263Y412543D01*
X332523Y411701D01*
X334010Y411405D01*
X336211D01*
X341560Y406056D01*
Y380760D01*
X352631D01*
X353603Y378413D01*
X335970Y360779D01*
X262890D01*
X260908Y360385D01*
X259228Y359263D01*
X194705Y294739D01*
X140955D01*
Y321060D01*
Y340210D01*
X145540D01*
Y374290D01*
X139179D01*
Y382855D01*
X144163Y387837D01*
X145285Y389518D01*
X145680Y391500D01*
Y434605D01*
X150688Y439613D01*
X151787Y439428D01*
D02*
G37*
G36*
X179287Y438367D02*
X179332Y438050D01*
X177693Y435915D01*
X176631Y433352D01*
X176269Y430600D01*
X176631Y427849D01*
X177693Y425285D01*
X179383Y423083D01*
X181584Y421393D01*
X184149Y420331D01*
X186900Y419969D01*
X189652Y420331D01*
X191082Y420924D01*
X194235Y417771D01*
Y414020D01*
X194531Y412533D01*
X195373Y411273D01*
X201860Y404786D01*
Y387952D01*
X199513Y386980D01*
X197585Y388909D01*
Y398400D01*
X197289Y399886D01*
X196447Y401147D01*
X171176Y426418D01*
X171769Y427849D01*
X172131Y430600D01*
X171769Y433352D01*
X170707Y435915D01*
X169068Y438050D01*
X169113Y438367D01*
X169966Y440591D01*
X178434D01*
X179287Y438367D01*
D02*
G37*
%LPC*%
G36*
X13970Y184229D02*
X13533Y184172D01*
X11942Y183513D01*
X10576Y182464D01*
X9527Y181098D01*
X8868Y179507D01*
X8811Y179070D01*
X13970D01*
Y184229D01*
D02*
G37*
G36*
X56980Y177429D02*
X56543Y177372D01*
X54952Y176713D01*
X53586Y175664D01*
X52537Y174298D01*
X51878Y172707D01*
X51821Y172270D01*
X56980D01*
Y177429D01*
D02*
G37*
G36*
X59520D02*
Y172270D01*
X64679D01*
X64622Y172707D01*
X63963Y174298D01*
X62914Y175664D01*
X61548Y176713D01*
X59957Y177372D01*
X59520Y177429D01*
D02*
G37*
G36*
X21669Y176530D02*
X16510D01*
Y171371D01*
X16947Y171428D01*
X18538Y172087D01*
X19904Y173136D01*
X20953Y174502D01*
X21612Y176093D01*
X21669Y176530D01*
D02*
G37*
G36*
X16510Y184229D02*
Y179070D01*
X21669D01*
X21612Y179507D01*
X20953Y181098D01*
X19904Y182464D01*
X18538Y183513D01*
X16947Y184172D01*
X16510Y184229D01*
D02*
G37*
G36*
X13970Y176530D02*
X8811D01*
X8868Y176093D01*
X9527Y174502D01*
X10576Y173136D01*
X11942Y172087D01*
X13533Y171428D01*
X13970Y171371D01*
Y176530D01*
D02*
G37*
G36*
X56980Y169730D02*
X51821D01*
X51878Y169293D01*
X52537Y167702D01*
X53586Y166336D01*
X54952Y165287D01*
X56543Y164628D01*
X56980Y164571D01*
Y169730D01*
D02*
G37*
G36*
X64679D02*
X59520D01*
Y164571D01*
X59957Y164628D01*
X61548Y165287D01*
X62914Y166336D01*
X63963Y167702D01*
X64622Y169293D01*
X64679Y169730D01*
D02*
G37*
G36*
X232980Y170210D02*
X227821D01*
X227878Y169773D01*
X228537Y168182D01*
X229586Y166816D01*
X230952Y165767D01*
X232543Y165108D01*
X232980Y165051D01*
Y170210D01*
D02*
G37*
G36*
X22790Y471540D02*
X12020D01*
Y458770D01*
X22790D01*
Y471540D01*
D02*
G37*
G36*
X34290Y466090D02*
X29131D01*
X29188Y465653D01*
X29847Y464062D01*
X30896Y462696D01*
X32262Y461647D01*
X33853Y460988D01*
X34290Y460931D01*
Y466090D01*
D02*
G37*
G36*
X41989D02*
X36830D01*
Y460931D01*
X37267Y460988D01*
X38858Y461647D01*
X40224Y462696D01*
X41273Y464062D01*
X41932Y465653D01*
X41989Y466090D01*
D02*
G37*
G36*
X221730Y484730D02*
X216460D01*
Y478710D01*
X221730D01*
Y484730D01*
D02*
G37*
G36*
X276230Y495040D02*
X265960D01*
Y479270D01*
X276230D01*
Y495040D01*
D02*
G37*
G36*
X13970Y486410D02*
X8811D01*
X8868Y485973D01*
X9527Y484382D01*
X10576Y483016D01*
X11942Y481967D01*
X13533Y481308D01*
X13970Y481251D01*
Y486410D01*
D02*
G37*
G36*
X34290Y473789D02*
X33853Y473732D01*
X32262Y473073D01*
X30896Y472024D01*
X29847Y470658D01*
X29188Y469067D01*
X29131Y468630D01*
X34290D01*
Y473789D01*
D02*
G37*
G36*
X36830D02*
Y468630D01*
X41989D01*
X41932Y469067D01*
X41273Y470658D01*
X40224Y472024D01*
X38858Y473073D01*
X37267Y473732D01*
X36830Y473789D01*
D02*
G37*
G36*
X230639Y484730D02*
X224270D01*
Y477829D01*
X225403Y476999D01*
X225628Y475292D01*
X226287Y473701D01*
X227335Y472335D01*
X228701Y471286D01*
X230292Y470627D01*
X230730Y470570D01*
Y476999D01*
Y484654D01*
X230639Y484730D01*
D02*
G37*
G36*
X36230Y405730D02*
X28210D01*
Y402460D01*
X36230D01*
Y405730D01*
D02*
G37*
G36*
X54610Y397589D02*
X54173Y397532D01*
X52582Y396873D01*
X51216Y395824D01*
X50167Y394458D01*
X49508Y392867D01*
X49451Y392430D01*
X54610D01*
Y397589D01*
D02*
G37*
G36*
X85160Y451875D02*
X80838Y451535D01*
X76623Y450523D01*
X72618Y448864D01*
X68922Y446599D01*
X65626Y443784D01*
X62811Y440488D01*
X60546Y436792D01*
X58887Y432787D01*
X57875Y428572D01*
X57535Y424250D01*
X57875Y419929D01*
X58887Y415713D01*
X60546Y411708D01*
X62811Y408012D01*
X65626Y404716D01*
X68922Y401901D01*
X72618Y399636D01*
X76623Y397977D01*
X80838Y396965D01*
X85160Y396625D01*
X89481Y396965D01*
X93697Y397977D01*
X97702Y399636D01*
X101398Y401901D01*
X104694Y404716D01*
X107509Y408012D01*
X109774Y411708D01*
X111433Y415713D01*
X112445Y419929D01*
X112785Y424250D01*
X112445Y428572D01*
X111433Y432787D01*
X109774Y436792D01*
X107509Y440488D01*
X104694Y443784D01*
X101398Y446599D01*
X97702Y448864D01*
X93697Y450523D01*
X89481Y451535D01*
X85160Y451875D01*
D02*
G37*
G36*
X46790Y405730D02*
X38770D01*
Y402460D01*
X46790D01*
Y405730D01*
D02*
G37*
G36*
X21669Y486410D02*
X16510D01*
Y481251D01*
X16947Y481308D01*
X18538Y481967D01*
X19904Y483016D01*
X20953Y484382D01*
X21612Y485973D01*
X21669Y486410D01*
D02*
G37*
G36*
X54610Y494109D02*
X54173Y494052D01*
X52582Y493393D01*
X51216Y492344D01*
X50167Y490978D01*
X49508Y489387D01*
X49451Y488950D01*
X54610D01*
Y494109D01*
D02*
G37*
G36*
X57150D02*
Y488950D01*
X62309D01*
X62252Y489387D01*
X61593Y490978D01*
X60544Y492344D01*
X59178Y493393D01*
X57587Y494052D01*
X57150Y494109D01*
D02*
G37*
G36*
X74930D02*
X74493Y494052D01*
X72902Y493393D01*
X71536Y492344D01*
X70487Y490978D01*
X69828Y489387D01*
X69771Y488950D01*
X74930D01*
Y494109D01*
D02*
G37*
G36*
X16510D02*
Y488950D01*
X21669D01*
X21612Y489387D01*
X20953Y490978D01*
X19904Y492344D01*
X18538Y493393D01*
X16947Y494052D01*
X16510Y494109D01*
D02*
G37*
G36*
X34290D02*
X33853Y494052D01*
X32262Y493393D01*
X30896Y492344D01*
X29847Y490978D01*
X29188Y489387D01*
X29131Y488950D01*
X34290D01*
Y494109D01*
D02*
G37*
G36*
X36830D02*
Y488950D01*
X41989D01*
X41932Y489387D01*
X41273Y490978D01*
X40224Y492344D01*
X38858Y493393D01*
X37267Y494052D01*
X36830Y494109D01*
D02*
G37*
G36*
X115570D02*
X115133Y494052D01*
X113542Y493393D01*
X112176Y492344D01*
X111127Y490978D01*
X110468Y489387D01*
X110411Y488950D01*
X115570D01*
Y494109D01*
D02*
G37*
G36*
X118110D02*
Y488950D01*
X123269D01*
X123212Y489387D01*
X122553Y490978D01*
X121504Y492344D01*
X120138Y493393D01*
X118547Y494052D01*
X118110Y494109D01*
D02*
G37*
G36*
X373730Y495290D02*
X368460D01*
Y489270D01*
X373730D01*
Y495290D01*
D02*
G37*
G36*
X77470Y494109D02*
Y488950D01*
X82629D01*
X82572Y489387D01*
X81913Y490978D01*
X80864Y492344D01*
X79498Y493393D01*
X77907Y494052D01*
X77470Y494109D01*
D02*
G37*
G36*
X95250D02*
X94813Y494052D01*
X93222Y493393D01*
X91856Y492344D01*
X90807Y490978D01*
X90148Y489387D01*
X90091Y488950D01*
X95250D01*
Y494109D01*
D02*
G37*
G36*
X97790D02*
Y488950D01*
X102949D01*
X102892Y489387D01*
X102233Y490978D01*
X101184Y492344D01*
X99818Y493393D01*
X98227Y494052D01*
X97790Y494109D01*
D02*
G37*
G36*
X13970D02*
X13533Y494052D01*
X11942Y493393D01*
X10576Y492344D01*
X9527Y490978D01*
X8868Y489387D01*
X8811Y488950D01*
X13970D01*
Y494109D01*
D02*
G37*
G36*
X62309Y486410D02*
X57150D01*
Y481251D01*
X57587Y481308D01*
X59178Y481967D01*
X60544Y483016D01*
X61593Y484382D01*
X62252Y485973D01*
X62309Y486410D01*
D02*
G37*
G36*
X74930D02*
X69771D01*
X69828Y485973D01*
X70487Y484382D01*
X71536Y483016D01*
X72902Y481967D01*
X74493Y481308D01*
X74930Y481251D01*
Y486410D01*
D02*
G37*
G36*
X82629D02*
X77470D01*
Y481251D01*
X77907Y481308D01*
X79498Y481967D01*
X80864Y483016D01*
X81913Y484382D01*
X82572Y485973D01*
X82629Y486410D01*
D02*
G37*
G36*
X34290D02*
X29131D01*
X29188Y485973D01*
X29847Y484382D01*
X30896Y483016D01*
X32262Y481967D01*
X33853Y481308D01*
X34290Y481251D01*
Y486410D01*
D02*
G37*
G36*
X41989D02*
X36830D01*
Y481251D01*
X37267Y481308D01*
X38858Y481967D01*
X40224Y483016D01*
X41273Y484382D01*
X41932Y485973D01*
X41989Y486410D01*
D02*
G37*
G36*
X54610D02*
X49451D01*
X49508Y485973D01*
X50167Y484382D01*
X51216Y483016D01*
X52582Y481967D01*
X54173Y481308D01*
X54610Y481251D01*
Y486410D01*
D02*
G37*
G36*
X123269D02*
X118110D01*
Y481251D01*
X118547Y481308D01*
X120138Y481967D01*
X121504Y483016D01*
X122553Y484382D01*
X123212Y485973D01*
X123269Y486410D01*
D02*
G37*
G36*
X221730Y493290D02*
X216460D01*
Y487270D01*
X221730D01*
Y493290D01*
D02*
G37*
G36*
X229540D02*
X224270D01*
Y487270D01*
X229540D01*
Y493290D01*
D02*
G37*
G36*
X95250Y486410D02*
X90091D01*
X90148Y485973D01*
X90807Y484382D01*
X91856Y483016D01*
X93222Y481967D01*
X94813Y481308D01*
X95250Y481251D01*
Y486410D01*
D02*
G37*
G36*
X102949D02*
X97790D01*
Y481251D01*
X98227Y481308D01*
X99818Y481967D01*
X101184Y483016D01*
X102233Y484382D01*
X102892Y485973D01*
X102949Y486410D01*
D02*
G37*
G36*
X115570D02*
X110411D01*
X110468Y485973D01*
X111127Y484382D01*
X112176Y483016D01*
X113542Y481967D01*
X115133Y481308D01*
X115570Y481251D01*
Y486410D01*
D02*
G37*
G36*
X54610Y389890D02*
X49451D01*
X49508Y389453D01*
X50167Y387862D01*
X51216Y386496D01*
X52582Y385447D01*
X54173Y384788D01*
X54610Y384731D01*
Y389890D01*
D02*
G37*
G36*
X57150Y397589D02*
Y391160D01*
Y384731D01*
X57587Y384788D01*
X59178Y385447D01*
X60320Y386324D01*
X61274Y386132D01*
X62860Y385341D01*
Y377190D01*
X73130D01*
Y392960D01*
X64801D01*
X63437Y392960D01*
X61667Y394398D01*
X61292Y394850D01*
X60544Y395824D01*
X59178Y396873D01*
X57587Y397532D01*
X57150Y397589D01*
D02*
G37*
G36*
X75670Y392960D02*
Y377190D01*
X85940D01*
Y392960D01*
X75670D01*
D02*
G37*
G36*
X419100Y177100D02*
X414830D01*
Y170830D01*
X419100D01*
Y177100D01*
D02*
G37*
G36*
X321310Y179149D02*
Y173990D01*
X326469D01*
X326412Y174427D01*
X325753Y176018D01*
X324704Y177384D01*
X323338Y178433D01*
X321747Y179092D01*
X321310Y179149D01*
D02*
G37*
G36*
X425910Y177100D02*
X421640D01*
Y170830D01*
X425910D01*
Y177100D01*
D02*
G37*
G36*
X348730Y46429D02*
X348293Y46372D01*
X346702Y45713D01*
X345336Y44664D01*
X344287Y43298D01*
X343628Y41707D01*
X343571Y41270D01*
X348730D01*
Y46429D01*
D02*
G37*
G36*
X351270D02*
Y41270D01*
X356429D01*
X356372Y41707D01*
X355713Y43298D01*
X354664Y44664D01*
X353298Y45713D01*
X351707Y46372D01*
X351270Y46429D01*
D02*
G37*
G36*
X435610Y80010D02*
X430451D01*
X430508Y79573D01*
X431167Y77982D01*
X432216Y76616D01*
X433582Y75567D01*
X435173Y74908D01*
X435610Y74851D01*
Y80010D01*
D02*
G37*
G36*
X348730Y38730D02*
X343571D01*
X343628Y38293D01*
X344287Y36702D01*
X345336Y35336D01*
X346702Y34287D01*
X348293Y33628D01*
X348730Y33571D01*
Y38730D01*
D02*
G37*
G36*
X356429D02*
X351270D01*
Y33571D01*
X351707Y33628D01*
X353298Y34287D01*
X354664Y35336D01*
X355713Y36702D01*
X356372Y38293D01*
X356429Y38730D01*
D02*
G37*
G36*
X326270Y46429D02*
Y41270D01*
X331429D01*
X331372Y41707D01*
X330713Y43298D01*
X329664Y44664D01*
X328298Y45713D01*
X326707Y46372D01*
X326270Y46429D01*
D02*
G37*
G36*
X443309Y80010D02*
X438150D01*
Y74851D01*
X438587Y74908D01*
X440178Y75567D01*
X441544Y76616D01*
X442593Y77982D01*
X443252Y79573D01*
X443309Y80010D01*
D02*
G37*
G36*
X438150Y87709D02*
Y82550D01*
X443309D01*
X443252Y82987D01*
X442593Y84578D01*
X441544Y85944D01*
X440178Y86993D01*
X438587Y87652D01*
X438150Y87709D01*
D02*
G37*
G36*
X344170Y92789D02*
X343733Y92732D01*
X342142Y92073D01*
X340776Y91024D01*
X339727Y89658D01*
X339068Y88067D01*
X339011Y87630D01*
X344170D01*
Y92789D01*
D02*
G37*
G36*
X346710D02*
Y87630D01*
X351869D01*
X351812Y88067D01*
X351153Y89658D01*
X350104Y91024D01*
X348738Y92073D01*
X347147Y92732D01*
X346710Y92789D01*
D02*
G37*
G36*
X344170Y85090D02*
X339011D01*
X339068Y84653D01*
X339727Y83062D01*
X340776Y81696D01*
X342142Y80647D01*
X343733Y79988D01*
X344170Y79931D01*
Y85090D01*
D02*
G37*
G36*
X351869D02*
X346710D01*
Y79931D01*
X347147Y79988D01*
X348738Y80647D01*
X350104Y81696D01*
X351153Y83062D01*
X351812Y84653D01*
X351869Y85090D01*
D02*
G37*
G36*
X435610Y87709D02*
X435173Y87652D01*
X433582Y86993D01*
X432216Y85944D01*
X431167Y84578D01*
X430508Y82987D01*
X430451Y82550D01*
X435610D01*
Y87709D01*
D02*
G37*
G36*
X412829Y24130D02*
X407670D01*
Y18971D01*
X408107Y19028D01*
X409698Y19687D01*
X411064Y20736D01*
X412113Y22102D01*
X412772Y23693D01*
X412829Y24130D01*
D02*
G37*
G36*
X379730Y26749D02*
X379293Y26692D01*
X377702Y26033D01*
X376336Y24984D01*
X375287Y23618D01*
X374628Y22027D01*
X374571Y21590D01*
X379730D01*
Y26749D01*
D02*
G37*
G36*
X382270D02*
Y21590D01*
X387429D01*
X387372Y22027D01*
X386713Y23618D01*
X385664Y24984D01*
X384298Y26033D01*
X382707Y26692D01*
X382270Y26749D01*
D02*
G37*
G36*
X379730Y19050D02*
X374571D01*
X374628Y18613D01*
X375287Y17022D01*
X376336Y15656D01*
X377702Y14607D01*
X379293Y13948D01*
X379730Y13891D01*
Y19050D01*
D02*
G37*
G36*
X387429D02*
X382270D01*
Y13891D01*
X382707Y13948D01*
X384298Y14607D01*
X385664Y15656D01*
X386713Y17022D01*
X387372Y18613D01*
X387429Y19050D01*
D02*
G37*
G36*
X405130Y24130D02*
X399971D01*
X400028Y23693D01*
X400687Y22102D01*
X401736Y20736D01*
X403102Y19687D01*
X404693Y19028D01*
X405130Y18971D01*
Y24130D01*
D02*
G37*
G36*
X430530Y29210D02*
X425371D01*
X425428Y28773D01*
X426087Y27182D01*
X427136Y25816D01*
X428502Y24767D01*
X430093Y24108D01*
X430530Y24051D01*
Y29210D01*
D02*
G37*
G36*
Y36909D02*
X430093Y36852D01*
X428502Y36193D01*
X427136Y35144D01*
X426087Y33778D01*
X425428Y32187D01*
X425371Y31750D01*
X430530D01*
Y36909D01*
D02*
G37*
G36*
X433070D02*
Y31750D01*
X438229D01*
X438172Y32187D01*
X437513Y33778D01*
X436464Y35144D01*
X435098Y36193D01*
X433507Y36852D01*
X433070Y36909D01*
D02*
G37*
G36*
X331429Y38730D02*
X326270D01*
Y33571D01*
X326707Y33628D01*
X328298Y34287D01*
X329664Y35336D01*
X330713Y36702D01*
X331372Y38293D01*
X331429Y38730D01*
D02*
G37*
G36*
X438229Y29210D02*
X433070D01*
Y24051D01*
X433507Y24108D01*
X435098Y24767D01*
X436464Y25816D01*
X437513Y27182D01*
X438172Y28773D01*
X438229Y29210D01*
D02*
G37*
G36*
X405130Y31829D02*
X404693Y31772D01*
X403102Y31113D01*
X401736Y30064D01*
X400687Y28698D01*
X400028Y27107D01*
X399971Y26670D01*
X405130D01*
Y31829D01*
D02*
G37*
G36*
X407670D02*
Y26670D01*
X412829D01*
X412772Y27107D01*
X412113Y28698D01*
X411064Y30064D01*
X409698Y31113D01*
X408107Y31772D01*
X407670Y31829D01*
D02*
G37*
G36*
X314429Y147730D02*
X309270D01*
Y142571D01*
X309707Y142628D01*
X311298Y143287D01*
X312664Y144336D01*
X313713Y145702D01*
X314372Y147293D01*
X314429Y147730D01*
D02*
G37*
G36*
X435410Y161910D02*
X424330D01*
Y146830D01*
X424330D01*
X423727Y144540D01*
X417710D01*
X416711Y144985D01*
X416410Y146830D01*
X416410D01*
Y161910D01*
X405330D01*
Y146830D01*
X406985D01*
Y143790D01*
X402210D01*
Y129210D01*
X415290D01*
Y131170D01*
X417710Y131460D01*
Y131460D01*
X431865D01*
Y128540D01*
X426270D01*
Y122000D01*
Y115460D01*
X431865D01*
Y101109D01*
X417253Y86497D01*
X416411Y85237D01*
X416115Y83750D01*
Y74464D01*
X413676Y73454D01*
X411056Y71444D01*
X409046Y68824D01*
X407783Y65774D01*
X407352Y62500D01*
X407783Y59226D01*
X409046Y56176D01*
X411056Y53556D01*
X413676Y51546D01*
X416726Y50283D01*
X420000Y49852D01*
X423274Y50283D01*
X426324Y51546D01*
X428944Y53556D01*
X430954Y56176D01*
X432217Y59226D01*
X432648Y62500D01*
X432217Y65774D01*
X430954Y68824D01*
X428944Y71444D01*
X426324Y73454D01*
X423885Y74464D01*
Y82141D01*
X438497Y96753D01*
X439339Y98013D01*
X439635Y99500D01*
Y146250D01*
X439339Y147737D01*
X438497Y148997D01*
X435410Y152084D01*
Y161910D01*
D02*
G37*
G36*
X306730Y155429D02*
X306293Y155372D01*
X304702Y154713D01*
X303336Y153664D01*
X302287Y152298D01*
X301628Y150707D01*
X301571Y150270D01*
X306730D01*
Y155429D01*
D02*
G37*
G36*
X314270Y137540D02*
Y132270D01*
X320290D01*
Y137540D01*
X314270D01*
D02*
G37*
G36*
X364560Y195335D02*
X360238Y194995D01*
X356023Y193983D01*
X352018Y192324D01*
X348322Y190059D01*
X345026Y187244D01*
X342211Y183948D01*
X339946Y180252D01*
X338287Y176247D01*
X337275Y172031D01*
X336935Y167710D01*
X337275Y163389D01*
X338287Y159173D01*
X339946Y155168D01*
X342211Y151472D01*
X345026Y148176D01*
X348322Y145361D01*
X352018Y143096D01*
X356023Y141437D01*
X360238Y140425D01*
X364560Y140085D01*
X368881Y140425D01*
X373097Y141437D01*
X377102Y143096D01*
X380798Y145361D01*
X384094Y148176D01*
X386909Y151472D01*
X389174Y155168D01*
X390833Y159173D01*
X391845Y163389D01*
X392185Y167710D01*
X391845Y172031D01*
X390833Y176247D01*
X389174Y180252D01*
X386909Y183948D01*
X384094Y187244D01*
X380798Y190059D01*
X377102Y192324D01*
X373097Y193983D01*
X368881Y194995D01*
X364560Y195335D01*
D02*
G37*
G36*
X306730Y147730D02*
X301571D01*
X301628Y147293D01*
X302287Y145702D01*
X303336Y144336D01*
X304702Y143287D01*
X306293Y142628D01*
X306730Y142571D01*
Y147730D01*
D02*
G37*
G36*
X318770Y171450D02*
X313611D01*
X313668Y171013D01*
X314327Y169422D01*
X315376Y168056D01*
X316742Y167007D01*
X318333Y166348D01*
X318770Y166291D01*
Y171450D01*
D02*
G37*
G36*
X326469D02*
X321310D01*
Y166291D01*
X321747Y166348D01*
X323338Y167007D01*
X324704Y168056D01*
X325753Y169422D01*
X326412Y171013D01*
X326469Y171450D01*
D02*
G37*
G36*
X351869Y110490D02*
X346710D01*
Y105331D01*
X347147Y105388D01*
X348738Y106047D01*
X350104Y107096D01*
X351153Y108462D01*
X351812Y110053D01*
X351869Y110490D01*
D02*
G37*
G36*
X374650D02*
X369491D01*
X369548Y110053D01*
X370207Y108462D01*
X371256Y107096D01*
X372622Y106047D01*
X374213Y105388D01*
X374650Y105331D01*
Y110490D01*
D02*
G37*
G36*
X382349D02*
X377190D01*
Y105331D01*
X377627Y105388D01*
X379218Y106047D01*
X380584Y107096D01*
X381633Y108462D01*
X382292Y110053D01*
X382349Y110490D01*
D02*
G37*
G36*
X310340Y98360D02*
X306070D01*
Y92090D01*
X310340D01*
Y98360D01*
D02*
G37*
G36*
X414000Y107596D02*
X412293Y107372D01*
X410702Y106713D01*
X409336Y105664D01*
X408737Y104885D01*
X393500D01*
X392013Y104589D01*
X390753Y103747D01*
X360713Y73707D01*
X358274Y74717D01*
X355000Y75148D01*
X351726Y74717D01*
X348676Y73454D01*
X346056Y71444D01*
X344046Y68824D01*
X342783Y65774D01*
X342352Y62500D01*
X342783Y59226D01*
X344046Y56176D01*
X346056Y53556D01*
X348676Y51546D01*
X351726Y50283D01*
X355000Y49852D01*
X358274Y50283D01*
X361324Y51546D01*
X363944Y53556D01*
X365954Y56176D01*
X367217Y59226D01*
X367648Y62500D01*
X367217Y65774D01*
X366207Y68213D01*
X395109Y97115D01*
X408737D01*
X409336Y96336D01*
X410702Y95287D01*
X412293Y94628D01*
X414000Y94404D01*
X415707Y94628D01*
X417298Y95287D01*
X418664Y96336D01*
X419713Y97702D01*
X420372Y99293D01*
X420596Y101000D01*
X420372Y102707D01*
X419713Y104298D01*
X418664Y105664D01*
X417298Y106713D01*
X415707Y107372D01*
X414000Y107596D01*
D02*
G37*
G36*
X344170Y110490D02*
X339011D01*
X339068Y110053D01*
X339727Y108462D01*
X340776Y107096D01*
X342142Y106047D01*
X343733Y105388D01*
X344170Y105331D01*
Y110490D01*
D02*
G37*
G36*
Y118189D02*
X343733Y118132D01*
X342142Y117473D01*
X340776Y116424D01*
X339727Y115058D01*
X339068Y113467D01*
X339011Y113030D01*
X344170D01*
Y118189D01*
D02*
G37*
G36*
X423730Y120730D02*
X417710D01*
Y115460D01*
X423730D01*
Y120730D01*
D02*
G37*
G36*
Y128540D02*
X417710D01*
Y123270D01*
X423730D01*
Y128540D01*
D02*
G37*
G36*
X320290Y129730D02*
X314270D01*
Y124460D01*
X320290D01*
Y129730D01*
D02*
G37*
G36*
X346710Y118189D02*
Y113030D01*
X351869D01*
X351812Y113467D01*
X351153Y115058D01*
X350104Y116424D01*
X348738Y117473D01*
X347147Y118132D01*
X346710Y118189D01*
D02*
G37*
G36*
X374650D02*
X374213Y118132D01*
X372622Y117473D01*
X371256Y116424D01*
X370207Y115058D01*
X369548Y113467D01*
X369491Y113030D01*
X374650D01*
Y118189D01*
D02*
G37*
G36*
X377190D02*
Y113030D01*
X382349D01*
X382292Y113467D01*
X381633Y115058D01*
X380584Y116424D01*
X379218Y117473D01*
X377627Y118132D01*
X377190Y118189D01*
D02*
G37*
G36*
X161740Y216350D02*
X152470D01*
Y207080D01*
X161740D01*
Y216350D01*
D02*
G37*
G36*
Y204540D02*
X152470D01*
Y195270D01*
X161740D01*
Y204540D01*
D02*
G37*
G36*
X149930Y216350D02*
X140660D01*
Y207080D01*
X149930D01*
Y216350D01*
D02*
G37*
G36*
X170179Y238730D02*
X165020D01*
Y233571D01*
X165457Y233628D01*
X167048Y234287D01*
X168414Y235336D01*
X169463Y236702D01*
X170122Y238293D01*
X170179Y238730D01*
D02*
G37*
G36*
X34290Y240109D02*
X33853Y240052D01*
X32262Y239393D01*
X30896Y238344D01*
X29847Y236978D01*
X29188Y235387D01*
X29131Y234950D01*
X34290D01*
Y240109D01*
D02*
G37*
G36*
X36830D02*
Y234950D01*
X41989D01*
X41932Y235387D01*
X41273Y236978D01*
X40224Y238344D01*
X38858Y239393D01*
X37267Y240052D01*
X36830Y240109D01*
D02*
G37*
G36*
X34290Y232410D02*
X29131D01*
X29188Y231973D01*
X29847Y230382D01*
X30896Y229016D01*
X32262Y227967D01*
X33853Y227308D01*
X34290Y227251D01*
Y232410D01*
D02*
G37*
G36*
X41989D02*
X36830D01*
Y227251D01*
X37267Y227308D01*
X38858Y227967D01*
X40224Y229016D01*
X41273Y230382D01*
X41932Y231973D01*
X41989Y232410D01*
D02*
G37*
G36*
X162480Y238730D02*
X157321D01*
X157378Y238293D01*
X158037Y236702D01*
X159086Y235336D01*
X160452Y234287D01*
X162043Y233628D01*
X162480Y233571D01*
Y238730D01*
D02*
G37*
G36*
X273790Y177909D02*
Y172750D01*
X278949D01*
X278892Y173187D01*
X278233Y174778D01*
X277184Y176144D01*
X275818Y177193D01*
X274227Y177852D01*
X273790Y177909D01*
D02*
G37*
G36*
X271250D02*
X270813Y177852D01*
X269222Y177193D01*
X267856Y176144D01*
X266807Y174778D01*
X266148Y173187D01*
X266091Y172750D01*
X271250D01*
Y177909D01*
D02*
G37*
G36*
X125800Y216441D02*
X123048Y216079D01*
X120485Y215017D01*
X118283Y213327D01*
X116593Y211126D01*
X115531Y208561D01*
X115169Y205810D01*
X115531Y203058D01*
X116593Y200494D01*
X118283Y198293D01*
X120485Y196603D01*
X123048Y195541D01*
X125800Y195179D01*
X128552Y195541D01*
X131116Y196603D01*
X133317Y198293D01*
X135007Y200494D01*
X136069Y203058D01*
X136431Y205810D01*
X136069Y208561D01*
X135007Y211126D01*
X133317Y213327D01*
X131116Y215017D01*
X128552Y216079D01*
X125800Y216441D01*
D02*
G37*
G36*
X149930Y204540D02*
X140660D01*
Y195270D01*
X149930D01*
Y204540D01*
D02*
G37*
G36*
X369570Y283210D02*
X364411D01*
X364468Y282773D01*
X365127Y281182D01*
X366176Y279816D01*
X367542Y278767D01*
X369133Y278108D01*
X369570Y278051D01*
Y283210D01*
D02*
G37*
G36*
X237700Y291286D02*
X235993Y291062D01*
X234402Y290403D01*
X233036Y289354D01*
X231987Y287988D01*
X231328Y286397D01*
X231104Y284690D01*
X231232Y283716D01*
X205706Y258190D01*
X180960D01*
Y244110D01*
X211440D01*
Y252936D01*
X236726Y278222D01*
X237700Y278094D01*
X239407Y278318D01*
X240998Y278977D01*
X242364Y280026D01*
X243413Y281392D01*
X244072Y282983D01*
X244296Y284690D01*
X244072Y286397D01*
X243413Y287988D01*
X242364Y289354D01*
X240998Y290403D01*
X239407Y291062D01*
X237700Y291286D01*
D02*
G37*
G36*
X273050Y285829D02*
X272613Y285772D01*
X271022Y285113D01*
X269656Y284064D01*
X268607Y282698D01*
X267948Y281107D01*
X267891Y280670D01*
X273050D01*
Y285829D01*
D02*
G37*
G36*
X306149Y278130D02*
X300990D01*
Y272971D01*
X301427Y273028D01*
X303018Y273687D01*
X304384Y274736D01*
X305433Y276102D01*
X306092Y277693D01*
X306149Y278130D01*
D02*
G37*
G36*
X273050D02*
X267891D01*
X267948Y277693D01*
X268607Y276102D01*
X269656Y274736D01*
X271022Y273687D01*
X272613Y273028D01*
X273050Y272971D01*
Y278130D01*
D02*
G37*
G36*
X280749D02*
X275590D01*
Y272971D01*
X276027Y273028D01*
X277618Y273687D01*
X278984Y274736D01*
X280033Y276102D01*
X280692Y277693D01*
X280749Y278130D01*
D02*
G37*
G36*
X298450D02*
X293291D01*
X293348Y277693D01*
X294007Y276102D01*
X295056Y274736D01*
X296422Y273687D01*
X298013Y273028D01*
X298450Y272971D01*
Y278130D01*
D02*
G37*
G36*
X75000Y292641D02*
X72249Y292279D01*
X69685Y291217D01*
X67483Y289527D01*
X65793Y287325D01*
X65201Y285895D01*
X56540D01*
Y289300D01*
X43460D01*
Y274720D01*
X56540D01*
Y278125D01*
X65201D01*
X65793Y276695D01*
X67483Y274493D01*
X69685Y272803D01*
X72249Y271741D01*
X75000Y271379D01*
X77751Y271741D01*
X80316Y272803D01*
X82517Y274493D01*
X84207Y276695D01*
X85269Y279258D01*
X85631Y282010D01*
X85269Y284762D01*
X84207Y287325D01*
X82517Y289527D01*
X80316Y291217D01*
X77751Y292279D01*
X75000Y292641D01*
D02*
G37*
G36*
X297730Y317030D02*
X271460D01*
Y290760D01*
X297730D01*
Y317030D01*
D02*
G37*
G36*
X326540D02*
X300270D01*
Y290760D01*
X326540D01*
Y317030D01*
D02*
G37*
G36*
X369570Y290909D02*
X369133Y290852D01*
X367542Y290193D01*
X366176Y289144D01*
X365127Y287778D01*
X364468Y286187D01*
X364411Y285750D01*
X369570D01*
Y290909D01*
D02*
G37*
G36*
X275590Y285829D02*
Y280670D01*
X280749D01*
X280692Y281107D01*
X280033Y282698D01*
X278984Y284064D01*
X277618Y285113D01*
X276027Y285772D01*
X275590Y285829D01*
D02*
G37*
G36*
X298450D02*
X298013Y285772D01*
X296422Y285113D01*
X295056Y284064D01*
X294007Y282698D01*
X293348Y281107D01*
X293291Y280670D01*
X298450D01*
Y285829D01*
D02*
G37*
G36*
X300990D02*
Y280670D01*
X306149D01*
X306092Y281107D01*
X305433Y282698D01*
X304384Y284064D01*
X303018Y285113D01*
X301427Y285772D01*
X300990Y285829D01*
D02*
G37*
G36*
X75000Y267241D02*
X72249Y266879D01*
X69685Y265817D01*
X67483Y264127D01*
X65793Y261926D01*
X65201Y260495D01*
X56540D01*
Y263900D01*
X43460D01*
Y249320D01*
X56540D01*
Y252725D01*
X65201D01*
X65793Y251294D01*
X67483Y249093D01*
X69685Y247403D01*
X72249Y246341D01*
X75000Y245979D01*
X77751Y246341D01*
X80316Y247403D01*
X82517Y249093D01*
X84207Y251294D01*
X85269Y253859D01*
X85631Y256610D01*
X85269Y259361D01*
X84207Y261926D01*
X82517Y264127D01*
X80316Y265817D01*
X77751Y266879D01*
X75000Y267241D01*
D02*
G37*
G36*
X92230Y267980D02*
X87071D01*
X87128Y267543D01*
X87787Y265952D01*
X88836Y264586D01*
X90202Y263537D01*
X91793Y262878D01*
X92230Y262821D01*
Y267980D01*
D02*
G37*
G36*
X99929D02*
X94770D01*
Y262821D01*
X95207Y262878D01*
X96798Y263537D01*
X98164Y264586D01*
X99213Y265952D01*
X99872Y267543D01*
X99929Y267980D01*
D02*
G37*
G36*
X369570Y262890D02*
X364411D01*
X364468Y262453D01*
X365127Y260862D01*
X366176Y259496D01*
X367542Y258447D01*
X369133Y257788D01*
X369570Y257731D01*
Y262890D01*
D02*
G37*
G36*
X162480Y246429D02*
X162043Y246372D01*
X160452Y245713D01*
X159086Y244664D01*
X158037Y243298D01*
X157378Y241707D01*
X157321Y241270D01*
X162480D01*
Y246429D01*
D02*
G37*
G36*
X165020D02*
Y241270D01*
X170179D01*
X170122Y241707D01*
X169463Y243298D01*
X168414Y244664D01*
X167048Y245713D01*
X165457Y246372D01*
X165020Y246429D01*
D02*
G37*
G36*
X369570Y250269D02*
X369133Y250212D01*
X367542Y249553D01*
X366176Y248504D01*
X365127Y247138D01*
X364468Y245547D01*
X364411Y245110D01*
X369570D01*
Y250269D01*
D02*
G37*
G36*
X94770Y275679D02*
Y270520D01*
X99929D01*
X99872Y270957D01*
X99213Y272548D01*
X98164Y273914D01*
X96798Y274963D01*
X95207Y275622D01*
X94770Y275679D01*
D02*
G37*
G36*
X162480D02*
X162043Y275622D01*
X160452Y274963D01*
X159086Y273914D01*
X158037Y272548D01*
X157378Y270957D01*
X157321Y270520D01*
X162480D01*
Y275679D01*
D02*
G37*
G36*
X165020D02*
Y270520D01*
X170179D01*
X170122Y270957D01*
X169463Y272548D01*
X168414Y273914D01*
X167048Y274963D01*
X165457Y275622D01*
X165020Y275679D01*
D02*
G37*
G36*
X92230D02*
X91793Y275622D01*
X90202Y274963D01*
X88836Y273914D01*
X87787Y272548D01*
X87128Y270957D01*
X87071Y270520D01*
X92230D01*
Y275679D01*
D02*
G37*
G36*
X162480Y267980D02*
X157321D01*
X157378Y267543D01*
X158037Y265952D01*
X159086Y264586D01*
X160452Y263537D01*
X162043Y262878D01*
X162480Y262821D01*
Y267980D01*
D02*
G37*
G36*
X170179D02*
X165020D01*
Y262821D01*
X165457Y262878D01*
X167048Y263537D01*
X168414Y264586D01*
X169463Y265952D01*
X170122Y267543D01*
X170179Y267980D01*
D02*
G37*
G36*
X369570Y270589D02*
X369133Y270532D01*
X367542Y269873D01*
X366176Y268824D01*
X365127Y267458D01*
X364468Y265867D01*
X364411Y265430D01*
X369570D01*
Y270589D01*
D02*
G37*
G36*
X278949Y170210D02*
X273790D01*
Y165051D01*
X274227Y165108D01*
X275818Y165767D01*
X277184Y166816D01*
X278233Y168182D01*
X278892Y169773D01*
X278949Y170210D01*
D02*
G37*
G36*
X271250D02*
X266091D01*
X266148Y169773D01*
X266807Y168182D01*
X267856Y166816D01*
X269222Y165767D01*
X270813Y165108D01*
X271250Y165051D01*
Y170210D01*
D02*
G37*
G36*
X257810Y298450D02*
X252651D01*
X252708Y298013D01*
X253367Y296422D01*
X254416Y295056D01*
X255782Y294007D01*
X257373Y293348D01*
X257810Y293291D01*
Y298450D01*
D02*
G37*
G36*
X372730Y438730D02*
X367571D01*
X367628Y438293D01*
X368287Y436702D01*
X369336Y435336D01*
X370702Y434287D01*
X372293Y433628D01*
X372730Y433571D01*
Y438730D01*
D02*
G37*
G36*
X73730Y331540D02*
X64460D01*
Y322270D01*
X73730D01*
Y331540D01*
D02*
G37*
G36*
X85540D02*
X76270D01*
Y322270D01*
X85540D01*
Y331540D01*
D02*
G37*
G36*
X326540Y345840D02*
X300270D01*
Y319570D01*
X326540D01*
Y345840D01*
D02*
G37*
G36*
X257810Y326469D02*
X257373Y326412D01*
X255782Y325753D01*
X254416Y324704D01*
X253367Y323338D01*
X252708Y321747D01*
X252651Y321310D01*
X257810D01*
Y326469D01*
D02*
G37*
G36*
X260350D02*
Y321310D01*
X265509D01*
X265452Y321747D01*
X264793Y323338D01*
X263744Y324704D01*
X262378Y325753D01*
X260787Y326412D01*
X260350Y326469D01*
D02*
G37*
G36*
X38730Y333230D02*
X22960D01*
Y322960D01*
X38730D01*
Y333230D01*
D02*
G37*
G36*
X57040D02*
X41270D01*
Y322960D01*
X57040D01*
Y333230D01*
D02*
G37*
G36*
X369570Y331549D02*
X369133Y331492D01*
X367542Y330833D01*
X366176Y329784D01*
X365127Y328418D01*
X364468Y326827D01*
X364411Y326390D01*
X369570D01*
Y331549D01*
D02*
G37*
G36*
X297730Y345840D02*
X271460D01*
Y319570D01*
X297730D01*
Y345840D01*
D02*
G37*
G36*
X260350Y306149D02*
Y300990D01*
X265509D01*
X265452Y301427D01*
X264793Y303018D01*
X263744Y304384D01*
X262378Y305433D01*
X260787Y306092D01*
X260350Y306149D01*
D02*
G37*
G36*
X369570Y311229D02*
X369133Y311172D01*
X367542Y310513D01*
X366176Y309464D01*
X365127Y308098D01*
X364468Y306507D01*
X364411Y306070D01*
X369570D01*
Y311229D01*
D02*
G37*
G36*
X265509Y298450D02*
X260350D01*
Y293291D01*
X260787Y293348D01*
X262378Y294007D01*
X263744Y295056D01*
X264793Y296422D01*
X265452Y298013D01*
X265509Y298450D01*
D02*
G37*
G36*
X369570Y303530D02*
X364411D01*
X364468Y303093D01*
X365127Y301502D01*
X366176Y300136D01*
X367542Y299087D01*
X369133Y298428D01*
X369570Y298371D01*
Y303530D01*
D02*
G37*
G36*
X257810Y306149D02*
X257373Y306092D01*
X255782Y305433D01*
X254416Y304384D01*
X253367Y303018D01*
X252708Y301427D01*
X252651Y300990D01*
X257810D01*
Y306149D01*
D02*
G37*
G36*
X369570Y323850D02*
X364411D01*
X364468Y323413D01*
X365127Y321822D01*
X366176Y320456D01*
X367542Y319407D01*
X369133Y318748D01*
X369570Y318691D01*
Y323850D01*
D02*
G37*
G36*
X257810Y318770D02*
X252651D01*
X252708Y318333D01*
X253367Y316742D01*
X254416Y315376D01*
X255782Y314327D01*
X257373Y313668D01*
X257810Y313611D01*
Y318770D01*
D02*
G37*
G36*
X265509D02*
X260350D01*
Y313611D01*
X260787Y313668D01*
X262378Y314327D01*
X263744Y315376D01*
X264793Y316742D01*
X265452Y318333D01*
X265509Y318770D01*
D02*
G37*
G36*
X73730Y343350D02*
X64460D01*
Y334080D01*
X73730D01*
Y343350D01*
D02*
G37*
G36*
X369570Y351869D02*
X369133Y351812D01*
X367542Y351153D01*
X366176Y350104D01*
X365127Y348738D01*
X364468Y347147D01*
X364411Y346710D01*
X369570D01*
Y351869D01*
D02*
G37*
G36*
X85540Y343350D02*
X76270D01*
Y334080D01*
X85540D01*
Y343350D01*
D02*
G37*
G36*
X369570Y344170D02*
X364411D01*
X364468Y343733D01*
X365127Y342142D01*
X366176Y340776D01*
X367542Y339727D01*
X369133Y339068D01*
X369570Y339011D01*
Y344170D01*
D02*
G37*
G36*
Y372189D02*
X369133Y372132D01*
X367542Y371473D01*
X366176Y370424D01*
X365127Y369058D01*
X364468Y367467D01*
X364411Y367030D01*
X369570D01*
Y372189D01*
D02*
G37*
G36*
Y364490D02*
X364411D01*
X364468Y364053D01*
X365127Y362462D01*
X366176Y361096D01*
X367542Y360047D01*
X369133Y359388D01*
X369570Y359331D01*
Y364490D01*
D02*
G37*
G36*
X299040Y441140D02*
X289770D01*
Y431870D01*
X299040D01*
Y441140D01*
D02*
G37*
G36*
X288290Y450730D02*
X282270D01*
Y444710D01*
X288290D01*
Y450730D01*
D02*
G37*
G36*
X287230Y441140D02*
X277960D01*
Y431870D01*
X287230D01*
Y441140D01*
D02*
G37*
G36*
X212300Y441231D02*
X209548Y440869D01*
X206985Y439807D01*
X204783Y438117D01*
X203093Y435915D01*
X202031Y433352D01*
X201669Y430600D01*
X202031Y427849D01*
X203093Y425285D01*
X204783Y423083D01*
X206985Y421393D01*
X209548Y420331D01*
X212300Y419969D01*
X215051Y420331D01*
X217616Y421393D01*
X219817Y423083D01*
X221507Y425285D01*
X222569Y427849D01*
X222931Y430600D01*
X222569Y433352D01*
X221507Y435915D01*
X219817Y438117D01*
X217616Y439807D01*
X215051Y440869D01*
X212300Y441231D01*
D02*
G37*
G36*
X237700D02*
X234949Y440869D01*
X232384Y439807D01*
X230183Y438117D01*
X228493Y435915D01*
X227431Y433352D01*
X227069Y430600D01*
X227431Y427849D01*
X228493Y425285D01*
X230183Y423083D01*
X232384Y421393D01*
X234949Y420331D01*
X237700Y419969D01*
X240452Y420331D01*
X243015Y421393D01*
X245217Y423083D01*
X246907Y425285D01*
X247969Y427849D01*
X248331Y430600D01*
X247969Y433352D01*
X246907Y435915D01*
X245217Y438117D01*
X243015Y439807D01*
X240452Y440869D01*
X237700Y441231D01*
D02*
G37*
G36*
X287230Y429330D02*
X277960D01*
Y420060D01*
X287230D01*
Y429330D01*
D02*
G37*
G36*
X161290Y405130D02*
X156131D01*
X156188Y404693D01*
X156847Y403102D01*
X157896Y401736D01*
X159262Y400687D01*
X160853Y400028D01*
X161290Y399971D01*
Y405130D01*
D02*
G37*
G36*
X168989D02*
X163830D01*
Y399971D01*
X164267Y400028D01*
X165858Y400687D01*
X167224Y401736D01*
X168273Y403102D01*
X168932Y404693D01*
X168989Y405130D01*
D02*
G37*
G36*
X163830Y392509D02*
Y387350D01*
X168989D01*
X168932Y387787D01*
X168273Y389378D01*
X167224Y390744D01*
X165858Y391793D01*
X164267Y392452D01*
X163830Y392509D01*
D02*
G37*
G36*
X161290Y412829D02*
X160853Y412772D01*
X159262Y412113D01*
X157896Y411064D01*
X156847Y409698D01*
X156188Y408107D01*
X156131Y407670D01*
X161290D01*
Y412829D01*
D02*
G37*
G36*
X163830D02*
Y407670D01*
X168989D01*
X168932Y408107D01*
X168273Y409698D01*
X167224Y411064D01*
X165858Y412113D01*
X164267Y412772D01*
X163830Y412829D01*
D02*
G37*
G36*
X161290Y392509D02*
X160853Y392452D01*
X159262Y391793D01*
X157896Y390744D01*
X156847Y389378D01*
X156188Y387787D01*
X156131Y387350D01*
X161290D01*
Y392509D01*
D02*
G37*
G36*
X155080Y332350D02*
X149060D01*
Y322330D01*
X155080D01*
Y332350D01*
D02*
G37*
G36*
X163640D02*
X157620D01*
Y322330D01*
X163640D01*
Y332350D01*
D02*
G37*
G36*
X176230Y327679D02*
X175793Y327622D01*
X174202Y326963D01*
X172836Y325914D01*
X171787Y324548D01*
X171128Y322957D01*
X171071Y322520D01*
X176230D01*
Y327679D01*
D02*
G37*
G36*
X178770D02*
Y322520D01*
X183929D01*
X183872Y322957D01*
X183213Y324548D01*
X182164Y325914D01*
X180798Y326963D01*
X179207Y327622D01*
X178770Y327679D01*
D02*
G37*
G36*
X155080Y319790D02*
X149060D01*
Y309770D01*
X155080D01*
Y319790D01*
D02*
G37*
G36*
X176230Y319980D02*
X171071D01*
X171128Y319543D01*
X171787Y317952D01*
X172836Y316586D01*
X174202Y315537D01*
X175793Y314878D01*
X176230Y314821D01*
Y319980D01*
D02*
G37*
G36*
X183929D02*
X178770D01*
Y314821D01*
X179207Y314878D01*
X180798Y315537D01*
X182164Y316586D01*
X183213Y317952D01*
X183872Y319543D01*
X183929Y319980D01*
D02*
G37*
G36*
X163640Y319790D02*
X157620D01*
Y309770D01*
X163640D01*
Y319790D01*
D02*
G37*
G36*
X283210Y382349D02*
X282773Y382292D01*
X281182Y381633D01*
X279816Y380584D01*
X278767Y379218D01*
X278108Y377627D01*
X278051Y377190D01*
X283210D01*
Y382349D01*
D02*
G37*
G36*
X285750D02*
Y377190D01*
X290909D01*
X290852Y377627D01*
X290193Y379218D01*
X289144Y380584D01*
X287778Y381633D01*
X286187Y382292D01*
X285750Y382349D01*
D02*
G37*
G36*
X318770D02*
X318333Y382292D01*
X316742Y381633D01*
X315376Y380584D01*
X314327Y379218D01*
X313668Y377627D01*
X313611Y377190D01*
X318770D01*
Y382349D01*
D02*
G37*
G36*
X290909Y374650D02*
X285750D01*
Y369491D01*
X286187Y369548D01*
X287778Y370207D01*
X289144Y371256D01*
X290193Y372622D01*
X290852Y374213D01*
X290909Y374650D01*
D02*
G37*
G36*
X318770D02*
X313611D01*
X313668Y374213D01*
X314327Y372622D01*
X315376Y371256D01*
X316742Y370207D01*
X318333Y369548D01*
X318770Y369491D01*
Y374650D01*
D02*
G37*
G36*
X326469D02*
X321310D01*
Y369491D01*
X321747Y369548D01*
X323338Y370207D01*
X324704Y371256D01*
X325753Y372622D01*
X326412Y374213D01*
X326469Y374650D01*
D02*
G37*
G36*
X161290Y384810D02*
X156131D01*
X156188Y384373D01*
X156847Y382782D01*
X157896Y381416D01*
X159262Y380367D01*
X160853Y379708D01*
X161290Y379651D01*
Y384810D01*
D02*
G37*
G36*
X168989D02*
X163830D01*
Y379651D01*
X164267Y379708D01*
X165858Y380367D01*
X167224Y381416D01*
X168273Y382782D01*
X168932Y384373D01*
X168989Y384810D01*
D02*
G37*
G36*
X321310Y382349D02*
Y377190D01*
X326469D01*
X326412Y377627D01*
X325753Y379218D01*
X324704Y380584D01*
X323338Y381633D01*
X321747Y382292D01*
X321310Y382349D01*
D02*
G37*
G36*
X283210Y374650D02*
X278051D01*
X278108Y374213D01*
X278767Y372622D01*
X279816Y371256D01*
X281182Y370207D01*
X282773Y369548D01*
X283210Y369491D01*
Y374650D01*
D02*
G37*
G36*
X174540Y355980D02*
X164270D01*
Y340210D01*
X174540D01*
Y355980D01*
D02*
G37*
G36*
X211440Y364180D02*
X180960D01*
Y358410D01*
Y345710D01*
X211440D01*
Y348865D01*
X213050D01*
X214537Y349161D01*
X215797Y350003D01*
X216196Y350402D01*
X217170Y350274D01*
X218877Y350498D01*
X220468Y351157D01*
X221834Y352206D01*
X222883Y353572D01*
X223542Y355163D01*
X223766Y356870D01*
X223542Y358577D01*
X222883Y360168D01*
X221834Y361534D01*
X220468Y362583D01*
X218877Y363242D01*
X217170Y363466D01*
X215463Y363242D01*
X213872Y362583D01*
X211440Y363918D01*
Y364180D01*
D02*
G37*
G36*
X161730Y355980D02*
X151460D01*
Y340210D01*
X161730D01*
Y355980D01*
D02*
G37*
G36*
X194930Y372490D02*
X180960D01*
Y366720D01*
X194930D01*
Y372490D01*
D02*
G37*
G36*
X211440D02*
X197470D01*
Y366720D01*
X211440D01*
Y372490D01*
D02*
G37*
G36*
X161730Y374290D02*
X151460D01*
Y358520D01*
X161730D01*
Y374290D01*
D02*
G37*
G36*
X174540D02*
X164270D01*
Y358520D01*
X174540D01*
Y374290D01*
D02*
G37*
%LPD*%
D10*
X164000Y458000D02*
D03*
Y474000D02*
D03*
X297000Y115000D02*
D03*
Y131000D02*
D03*
X313000Y115000D02*
D03*
Y131000D02*
D03*
X425000Y138000D02*
D03*
Y122000D02*
D03*
D11*
X148000Y473000D02*
D03*
Y457000D02*
D03*
D12*
X37500Y407000D02*
D03*
Y433000D02*
D03*
D13*
Y413500D02*
D03*
Y420000D02*
D03*
Y426500D02*
D03*
D14*
X10750Y382500D02*
D03*
Y457500D02*
D03*
D15*
Y408500D02*
D03*
Y431500D02*
D03*
D16*
X207000Y486000D02*
D03*
X223000D02*
D03*
X314000Y488000D02*
D03*
X298000D02*
D03*
X359000D02*
D03*
X375000D02*
D03*
X34000Y256610D02*
D03*
X50000D02*
D03*
X34000Y282010D02*
D03*
X50000D02*
D03*
X408750Y136500D02*
D03*
X392750D02*
D03*
D17*
X248500Y478000D02*
D03*
X277500D02*
D03*
X103400Y375920D02*
D03*
X74400D02*
D03*
X134000Y357250D02*
D03*
X163000D02*
D03*
D18*
X265000Y452000D02*
D03*
X281000D02*
D03*
X314000Y472000D02*
D03*
X298000D02*
D03*
X358000D02*
D03*
X374000D02*
D03*
X358000Y456000D02*
D03*
X374000D02*
D03*
D19*
Y220800D02*
D03*
X361300D02*
D03*
X348600D02*
D03*
X335900D02*
D03*
X323200D02*
D03*
X310500D02*
D03*
X297800D02*
D03*
X285100D02*
D03*
X272400D02*
D03*
X259700D02*
D03*
X247000D02*
D03*
X234300D02*
D03*
X221600D02*
D03*
X208900D02*
D03*
Y396000D02*
D03*
X221600D02*
D03*
X234300D02*
D03*
X247000D02*
D03*
X259700D02*
D03*
X348600D02*
D03*
X361300D02*
D03*
X374000D02*
D03*
D20*
X196200Y251150D02*
D03*
Y352750D02*
D03*
Y365450D02*
D03*
D21*
X299000Y318300D02*
D03*
D22*
X40000Y305500D02*
D03*
Y334500D02*
D03*
D23*
X156350Y321060D02*
D03*
X133350D02*
D03*
X110350D02*
D03*
D24*
X133350Y258060D02*
D03*
D25*
X300000Y50250D02*
D03*
Y19750D02*
D03*
D26*
X295300Y75630D02*
D03*
X314300D02*
D03*
X304800Y99630D02*
D03*
X410870Y154370D02*
D03*
X429870D02*
D03*
X420370Y178370D02*
D03*
D27*
X59000Y80000D02*
X59000Y80000D01*
X59000Y115000D02*
X84000Y140000D01*
X117500D01*
X59000Y45000D02*
X84001Y20000D01*
X117500D01*
X59000Y80000D02*
X94250D01*
X109250Y95000D01*
X244500D01*
X259500Y80000D01*
D28*
X239500Y20000D02*
X299750D01*
D29*
X259700Y396000D02*
Y404480D01*
X196200Y352750D02*
X213050D01*
X208900Y396000D02*
Y403240D01*
X198120Y414020D02*
X208900Y403240D01*
X198120Y414020D02*
Y419380D01*
X186900Y430600D02*
X198120Y419380D01*
X221600Y381620D02*
Y396000D01*
X339302Y485199D02*
X349309D01*
X213050Y352750D02*
X217170Y356870D01*
X285100Y188610D02*
Y220800D01*
X323200Y203820D02*
Y220800D01*
X326390Y194310D02*
X335900Y203820D01*
Y220800D01*
X312420Y185420D02*
Y193040D01*
X323200Y203820D01*
X303530Y243840D02*
X310500Y236870D01*
Y220800D02*
Y236870D01*
X196200Y251150D02*
X204160D01*
X237700Y284690D01*
X221600Y203820D02*
Y220800D01*
X127250Y258060D02*
X133350D01*
X326390Y422910D02*
X334010Y415290D01*
X348600Y396000D02*
Y404510D01*
X259700Y404480D02*
X266700Y411480D01*
X294780D01*
X313900Y430600D01*
X23440Y353750D02*
Y353810D01*
Y363435D01*
X219230Y379250D02*
X221600Y381620D01*
X201750Y379250D02*
X219230D01*
X193700Y387300D02*
X201750Y379250D01*
X193700Y387300D02*
Y398400D01*
X161500Y430600D02*
X193700Y398400D01*
X370840Y223960D02*
Y243840D01*
Y223960D02*
X374000Y220800D01*
X336750Y245000D02*
X342750D01*
X348600Y239150D01*
Y220800D02*
Y239150D01*
X416250Y188250D02*
X429750D01*
X272400Y191350D02*
Y220800D01*
Y191350D02*
X294640Y169110D01*
X320460Y259500D02*
X327660Y266700D01*
X234300Y220800D02*
Y239550D01*
X254250Y259500D01*
X320460D01*
X208900Y220800D02*
X212250Y224150D01*
Y234840D01*
X229870Y252460D01*
Y257810D01*
X313690Y36190D02*
Y73660D01*
X302850Y25350D02*
X313690Y36190D01*
X429870Y152130D02*
Y154370D01*
X420000Y62500D02*
Y83750D01*
X181250Y213720D02*
X193720Y201250D01*
X219030D01*
X221600Y203820D01*
X410870Y140120D02*
Y154370D01*
X410000Y139250D02*
X410870Y140120D01*
X420000Y83750D02*
X435750Y99500D01*
Y146250D01*
X429870Y152130D02*
X435750Y146250D01*
X285100Y188610D02*
X340710Y133000D01*
X389250D01*
X392751Y136502D01*
X294640Y143860D02*
Y169110D01*
Y143860D02*
X296750Y141750D01*
X295300Y75630D02*
Y113300D01*
X297000Y115000D01*
X313000D01*
X50000Y282010D02*
X75000D01*
X50000Y256610D02*
X75000D01*
X149000Y474000D02*
X164000D01*
X148000Y473000D02*
X149000Y474000D01*
X164000D02*
X166000D01*
X173000Y467000D01*
X179780D01*
X186900Y459880D01*
X134000Y457000D02*
X148000D01*
X148000Y457000D01*
X10750Y382500D02*
Y408500D01*
Y431500D01*
Y457500D01*
Y474750D01*
X15240Y479240D01*
Y487680D01*
X349309Y485199D02*
X352108Y487998D01*
X374000Y487000D02*
X375000Y488000D01*
X374000Y472000D02*
Y487000D01*
X330880Y465000D02*
X336000Y459880D01*
X358000Y472000D02*
Y472960D01*
X326390Y422910D02*
Y438390D01*
X336000Y448000D01*
Y459880D01*
X337820Y415290D02*
X348600Y404510D01*
X334010Y415290D02*
X337820D01*
X321500Y465000D02*
X330880D01*
X317000Y485000D02*
X329040Y472960D01*
X186900Y485280D02*
X198280D01*
X200998Y487998D01*
X411250Y137000D02*
X422000D01*
X182310Y471690D02*
X196478D01*
X198710Y469458D01*
Y466290D02*
Y469458D01*
Y466290D02*
X204000Y461000D01*
X355000Y62500D02*
X393500Y101000D01*
X112730Y456230D02*
X139500Y483000D01*
X171000D01*
X182310Y471690D01*
X282500Y472000D02*
X298000D01*
X281000Y473500D02*
X282500Y472000D01*
X298000Y451000D02*
Y472000D01*
X416250Y188250D02*
X420370Y184130D01*
Y178370D02*
Y184130D01*
X393500Y101000D02*
X414000D01*
X200998Y487998D02*
X208998D01*
X409500Y138750D02*
X411250Y137000D01*
X422000D02*
X424250Y139250D01*
X300750Y485750D02*
X314250Y472250D01*
X321500Y465000D01*
X296750Y131000D02*
Y141750D01*
X352108Y487998D02*
X359998D01*
X329040Y472960D02*
X358000D01*
X374000Y456000D02*
Y472000D01*
D30*
X41910Y307410D02*
X75000D01*
X133350Y258060D02*
Y289560D01*
X75000Y307410D02*
X89390D01*
X107240Y289560D01*
X133350D01*
X75000Y205810D02*
X127250Y258060D01*
X133350Y289560D02*
Y321060D01*
X123190Y400050D02*
Y445770D01*
X103400Y375920D02*
Y380260D01*
X123190Y400050D01*
X103400Y353060D02*
X110350Y346110D01*
Y321060D02*
Y346110D01*
X112730Y456230D02*
X123190Y445770D01*
X106680Y462280D02*
X112730Y456230D01*
X40000Y305500D02*
X41910Y307410D01*
X54000Y462280D02*
X106680D01*
X103400Y353750D02*
Y375920D01*
X133350Y321060D02*
Y357250D01*
D31*
Y289560D02*
X196850D01*
X297490Y52760D02*
Y55570D01*
X297720Y47970D02*
X300000Y50250D01*
X14787Y345157D02*
X23440Y353810D01*
Y353750D02*
X103400D01*
X14787Y207463D02*
Y345157D01*
X239500Y140000D02*
X261375Y161875D01*
X261625D01*
X361300Y378785D02*
Y396000D01*
X196850Y289560D02*
X262890Y355600D01*
X338115D01*
X361300Y378785D01*
X49600Y188875D02*
Y205810D01*
X14787Y207463D02*
X35500Y186750D01*
X236750D01*
X261625Y161875D01*
X140500Y436750D02*
X149520Y445770D01*
X284000Y52760D02*
X292930D01*
X261625Y161875D02*
X284000Y139500D01*
Y52760D02*
Y139500D01*
X34000Y256610D02*
Y282010D01*
Y299500D01*
X40000Y305500D01*
X164000Y446770D02*
Y458000D01*
X149520Y445770D02*
X165000D01*
X358000Y456000D02*
Y472000D01*
Y430000D02*
X361300Y426700D01*
Y396000D02*
Y426700D01*
X374000Y396000D02*
Y440000D01*
Y456000D01*
X164000Y446770D02*
X165000Y445770D01*
X281000Y438100D02*
Y452000D01*
Y438100D02*
X288500Y430600D01*
X281000Y452000D02*
Y473500D01*
X248500Y452000D02*
Y478000D01*
X165000Y445770D02*
X201770D01*
X208000Y452000D01*
X248500D01*
X263100D01*
X134000Y357250D02*
Y385000D01*
X140500Y391500D01*
Y436750D01*
X292930Y52760D02*
X297720Y47970D01*
X358000Y430000D02*
Y456000D01*
X263100Y430600D02*
Y452000D01*
D32*
X186900Y485280D02*
D03*
X336000D02*
D03*
X75000Y256610D02*
D03*
Y282010D02*
D03*
Y307410D02*
D03*
X161500Y430600D02*
D03*
X339300D02*
D03*
X313900D02*
D03*
X212300D02*
D03*
X186900D02*
D03*
X237700D02*
D03*
X263100D02*
D03*
X49600Y205810D02*
D03*
X75000D02*
D03*
X100400D02*
D03*
X125800D02*
D03*
D33*
X186900Y459880D02*
D03*
X336000D02*
D03*
D34*
X75000Y332810D02*
D03*
X288500Y430600D02*
D03*
X151200Y205810D02*
D03*
D35*
X85160Y424250D02*
D03*
X364560Y167710D02*
D03*
D36*
X259500Y80000D02*
D03*
D37*
X117500Y20000D02*
D03*
X239500Y140000D02*
D03*
X117500Y140000D02*
D03*
D38*
X239500Y20000D02*
D03*
D39*
X59000Y115000D02*
D03*
D40*
Y80000D02*
D03*
Y45000D02*
D03*
D41*
X355000Y62500D02*
D03*
X420000D02*
D03*
D42*
X327660Y266700D02*
D03*
X217170Y356870D02*
D03*
X326390Y194310D02*
D03*
X312420Y185420D02*
D03*
X303530Y243840D02*
D03*
X237700Y284690D02*
D03*
X229870Y257810D02*
D03*
X23440Y363435D02*
D03*
X177500Y321250D02*
D03*
X35560Y467360D02*
D03*
X76200Y487680D02*
D03*
X96520D02*
D03*
X116840D02*
D03*
X55880Y391160D02*
D03*
X162560Y406400D02*
D03*
Y386080D02*
D03*
X370840Y365760D02*
D03*
Y345440D02*
D03*
Y325120D02*
D03*
Y304800D02*
D03*
Y284480D02*
D03*
Y264160D02*
D03*
Y243840D02*
D03*
X320040Y172720D02*
D03*
X436880Y81280D02*
D03*
X375920Y111760D02*
D03*
X345440D02*
D03*
X308000Y149000D02*
D03*
X163750Y240000D02*
D03*
X259080Y320040D02*
D03*
X299720Y279400D02*
D03*
X259080Y299720D02*
D03*
X274320Y279400D02*
D03*
X320040Y375920D02*
D03*
X284480D02*
D03*
X35560Y233680D02*
D03*
X15240Y177800D02*
D03*
X431800Y30480D02*
D03*
X406400Y25400D02*
D03*
X381000Y20320D02*
D03*
X345440Y86360D02*
D03*
X336750Y245000D02*
D03*
X416250Y188250D02*
D03*
X272520Y171480D02*
D03*
X163750Y269250D02*
D03*
X325000Y40000D02*
D03*
X93500Y269250D02*
D03*
X234250Y171480D02*
D03*
X58250Y171000D02*
D03*
X181250Y213720D02*
D03*
X284000Y52760D02*
D03*
X350000Y40000D02*
D03*
X134000Y457000D02*
D03*
X55880Y487680D02*
D03*
X35560D02*
D03*
X15240D02*
D03*
X374000Y440000D02*
D03*
X204000Y461000D02*
D03*
X231999Y476999D02*
D03*
X414000Y101000D02*
D03*
M02*
