G04 Layer_Color=2752767*
%FSLAX44Y44*%
%MOMM*%
G71*
G01*
G75*
%ADD82C,0.0508*%
%ADD83C,0.0677*%
D82*
X184868Y483248D02*
Y487312D01*
X188932D01*
Y483248D01*
X184868D01*
Y457848D02*
Y461912D01*
X188932D01*
Y457848D01*
X184868D01*
X333968Y483248D02*
Y487312D01*
X338032D01*
Y483248D01*
X333968D01*
Y457848D02*
Y461912D01*
X338032D01*
Y457848D01*
X333968D01*
X72968Y254578D02*
Y258642D01*
X77032D01*
Y254578D01*
X72968D01*
Y279978D02*
Y284042D01*
X77032D01*
Y279978D01*
X72968D01*
Y305378D02*
Y309442D01*
X77032D01*
Y305378D01*
X72968D01*
Y330778D02*
Y334842D01*
X77032D01*
Y330778D01*
X72968D01*
X159468Y428568D02*
Y432632D01*
X163532D01*
Y428568D01*
X159468D01*
X337268D02*
Y432632D01*
X341332D01*
Y428568D01*
X337268D01*
X311868D02*
Y432632D01*
X315932D01*
Y428568D01*
X311868D01*
X210268D02*
Y432632D01*
X214332D01*
Y428568D01*
X210268D01*
X184868D02*
Y432632D01*
X188932D01*
Y428568D01*
X184868D01*
X286468D02*
Y432632D01*
X290532D01*
Y428568D01*
X286468D01*
X235668D02*
Y432632D01*
X239732D01*
Y428568D01*
X235668D01*
X261068D02*
Y432632D01*
X265132D01*
Y428568D01*
X261068D01*
X47568Y203778D02*
Y207842D01*
X51632D01*
Y203778D01*
X47568D01*
X72968D02*
Y207842D01*
X77032D01*
Y203778D01*
X72968D01*
X98368D02*
Y207842D01*
X102432D01*
Y203778D01*
X98368D01*
X123768D02*
Y207842D01*
X127832D01*
Y203778D01*
X123768D01*
X149168D02*
Y207842D01*
X153232D01*
Y203778D01*
X149168D01*
X259500Y77968D02*
X257468Y82032D01*
X261532D01*
X259500Y77968D01*
X117500Y17968D02*
X115468Y22032D01*
X119532D01*
X117500Y17968D01*
X239500D02*
X237468Y22032D01*
X241532D01*
X239500Y17968D01*
Y137968D02*
X237468Y142032D01*
X241532D01*
X239500Y137968D01*
X117500Y137968D02*
X115468Y142032D01*
X119532D01*
X117500Y137968D01*
X59000Y112968D02*
X60016Y113984D01*
X61032D01*
X60016Y115000D01*
X61032Y116016D01*
X60016D01*
X59000Y117032D01*
X57984Y116016D01*
X56968D01*
X57984Y115000D01*
X56968Y113984D01*
X57984D01*
X59000Y112968D01*
Y77968D02*
X60016Y78984D01*
X61032D01*
X60016Y80000D01*
X61032Y81016D01*
X60016D01*
X59000Y82032D01*
X57984Y81016D01*
X56968D01*
X57984Y80000D01*
X56968Y78984D01*
X57984D01*
X59000Y77968D01*
Y42968D02*
X60016Y43984D01*
X61032D01*
X60016Y45000D01*
X61032Y46016D01*
X60016D01*
X59000Y47032D01*
X57984Y46016D01*
X56968D01*
X57984Y45000D01*
X56968Y43984D01*
X57984D01*
X59000Y42968D01*
X352968Y60468D02*
X353984Y62500D01*
X352968Y64532D01*
X355000Y63516D01*
X357032Y64532D01*
X356016Y62500D01*
X357032Y60468D01*
X355000Y61484D01*
X352968Y60468D01*
X417968D02*
X418984Y62500D01*
X417968Y64532D01*
X420000Y63516D01*
X422032Y64532D01*
X421016Y62500D01*
X422032Y60468D01*
X420000Y61484D01*
X417968Y60468D01*
X326644Y265684D02*
Y264668D01*
X328676D01*
Y265684D01*
X329692D01*
Y267716D01*
X328676D01*
Y268732D01*
X326644D01*
Y267716D01*
X325628D01*
Y265684D01*
X326644D01*
X216154Y355854D02*
Y354838D01*
X218186D01*
Y355854D01*
X219202D01*
Y357886D01*
X218186D01*
Y358902D01*
X216154D01*
Y357886D01*
X215138D01*
Y355854D01*
X216154D01*
X325374Y193294D02*
Y192278D01*
X327406D01*
Y193294D01*
X328422D01*
Y195326D01*
X327406D01*
Y196342D01*
X325374D01*
Y195326D01*
X324358D01*
Y193294D01*
X325374D01*
X311404Y184404D02*
Y183388D01*
X313436D01*
Y184404D01*
X314452D01*
Y186436D01*
X313436D01*
Y187452D01*
X311404D01*
Y186436D01*
X310388D01*
Y184404D01*
X311404D01*
X302514Y242824D02*
Y241808D01*
X304546D01*
Y242824D01*
X305562D01*
Y244856D01*
X304546D01*
Y245872D01*
X302514D01*
Y244856D01*
X301498D01*
Y242824D01*
X302514D01*
X236684Y283674D02*
Y282658D01*
X238716D01*
Y283674D01*
X239732D01*
Y285706D01*
X238716D01*
Y286722D01*
X236684D01*
Y285706D01*
X235668D01*
Y283674D01*
X236684D01*
X228854Y256794D02*
Y255778D01*
X230886D01*
Y256794D01*
X231902D01*
Y258826D01*
X230886D01*
Y259842D01*
X228854D01*
Y258826D01*
X227838D01*
Y256794D01*
X228854D01*
X22424Y362419D02*
Y361403D01*
X24456D01*
Y362419D01*
X25472D01*
Y364451D01*
X24456D01*
Y365467D01*
X22424D01*
Y364451D01*
X21408D01*
Y362419D01*
X22424D01*
X176484Y320234D02*
Y319218D01*
X178516D01*
Y320234D01*
X179532D01*
Y322266D01*
X178516D01*
Y323282D01*
X176484D01*
Y322266D01*
X175468D01*
Y320234D01*
X176484D01*
X34544Y466344D02*
Y465328D01*
X36576D01*
Y466344D01*
X37592D01*
Y468376D01*
X36576D01*
Y469392D01*
X34544D01*
Y468376D01*
X33528D01*
Y466344D01*
X34544D01*
X75184Y486664D02*
Y485648D01*
X77216D01*
Y486664D01*
X78232D01*
Y488696D01*
X77216D01*
Y489712D01*
X75184D01*
Y488696D01*
X74168D01*
Y486664D01*
X75184D01*
X95504D02*
Y485648D01*
X97536D01*
Y486664D01*
X98552D01*
Y488696D01*
X97536D01*
Y489712D01*
X95504D01*
Y488696D01*
X94488D01*
Y486664D01*
X95504D01*
X115824D02*
Y485648D01*
X117856D01*
Y486664D01*
X118872D01*
Y488696D01*
X117856D01*
Y489712D01*
X115824D01*
Y488696D01*
X114808D01*
Y486664D01*
X115824D01*
X54864Y390144D02*
Y389128D01*
X56896D01*
Y390144D01*
X57912D01*
Y392176D01*
X56896D01*
Y393192D01*
X54864D01*
Y392176D01*
X53848D01*
Y390144D01*
X54864D01*
X161544Y405384D02*
Y404368D01*
X163576D01*
Y405384D01*
X164592D01*
Y407416D01*
X163576D01*
Y408432D01*
X161544D01*
Y407416D01*
X160528D01*
Y405384D01*
X161544D01*
Y385064D02*
Y384048D01*
X163576D01*
Y385064D01*
X164592D01*
Y387096D01*
X163576D01*
Y388112D01*
X161544D01*
Y387096D01*
X160528D01*
Y385064D01*
X161544D01*
X369824Y364744D02*
Y363728D01*
X371856D01*
Y364744D01*
X372872D01*
Y366776D01*
X371856D01*
Y367792D01*
X369824D01*
Y366776D01*
X368808D01*
Y364744D01*
X369824D01*
Y344424D02*
Y343408D01*
X371856D01*
Y344424D01*
X372872D01*
Y346456D01*
X371856D01*
Y347472D01*
X369824D01*
Y346456D01*
X368808D01*
Y344424D01*
X369824D01*
Y324104D02*
Y323088D01*
X371856D01*
Y324104D01*
X372872D01*
Y326136D01*
X371856D01*
Y327152D01*
X369824D01*
Y326136D01*
X368808D01*
Y324104D01*
X369824D01*
Y303784D02*
Y302768D01*
X371856D01*
Y303784D01*
X372872D01*
Y305816D01*
X371856D01*
Y306832D01*
X369824D01*
Y305816D01*
X368808D01*
Y303784D01*
X369824D01*
Y283464D02*
Y282448D01*
X371856D01*
Y283464D01*
X372872D01*
Y285496D01*
X371856D01*
Y286512D01*
X369824D01*
Y285496D01*
X368808D01*
Y283464D01*
X369824D01*
Y263144D02*
Y262128D01*
X371856D01*
Y263144D01*
X372872D01*
Y265176D01*
X371856D01*
Y266192D01*
X369824D01*
Y265176D01*
X368808D01*
Y263144D01*
X369824D01*
Y242824D02*
Y241808D01*
X371856D01*
Y242824D01*
X372872D01*
Y244856D01*
X371856D01*
Y245872D01*
X369824D01*
Y244856D01*
X368808D01*
Y242824D01*
X369824D01*
X319024Y171704D02*
Y170688D01*
X321056D01*
Y171704D01*
X322072D01*
Y173736D01*
X321056D01*
Y174752D01*
X319024D01*
Y173736D01*
X318008D01*
Y171704D01*
X319024D01*
X435864Y80264D02*
Y79248D01*
X437896D01*
Y80264D01*
X438912D01*
Y82296D01*
X437896D01*
Y83312D01*
X435864D01*
Y82296D01*
X434848D01*
Y80264D01*
X435864D01*
X374904Y110744D02*
Y109728D01*
X376936D01*
Y110744D01*
X377952D01*
Y112776D01*
X376936D01*
Y113792D01*
X374904D01*
Y112776D01*
X373888D01*
Y110744D01*
X374904D01*
X344424D02*
Y109728D01*
X346456D01*
Y110744D01*
X347472D01*
Y112776D01*
X346456D01*
Y113792D01*
X344424D01*
Y112776D01*
X343408D01*
Y110744D01*
X344424D01*
X306984Y147984D02*
Y146968D01*
X309016D01*
Y147984D01*
X310032D01*
Y150016D01*
X309016D01*
Y151032D01*
X306984D01*
Y150016D01*
X305968D01*
Y147984D01*
X306984D01*
X162734Y238984D02*
Y237968D01*
X164766D01*
Y238984D01*
X165782D01*
Y241016D01*
X164766D01*
Y242032D01*
X162734D01*
Y241016D01*
X161718D01*
Y238984D01*
X162734D01*
X258064Y319024D02*
Y318008D01*
X260096D01*
Y319024D01*
X261112D01*
Y321056D01*
X260096D01*
Y322072D01*
X258064D01*
Y321056D01*
X257048D01*
Y319024D01*
X258064D01*
X298704Y278384D02*
Y277368D01*
X300736D01*
Y278384D01*
X301752D01*
Y280416D01*
X300736D01*
Y281432D01*
X298704D01*
Y280416D01*
X297688D01*
Y278384D01*
X298704D01*
X258064Y298704D02*
Y297688D01*
X260096D01*
Y298704D01*
X261112D01*
Y300736D01*
X260096D01*
Y301752D01*
X258064D01*
Y300736D01*
X257048D01*
Y298704D01*
X258064D01*
X273304Y278384D02*
Y277368D01*
X275336D01*
Y278384D01*
X276352D01*
Y280416D01*
X275336D01*
Y281432D01*
X273304D01*
Y280416D01*
X272288D01*
Y278384D01*
X273304D01*
X319024Y374904D02*
Y373888D01*
X321056D01*
Y374904D01*
X322072D01*
Y376936D01*
X321056D01*
Y377952D01*
X319024D01*
Y376936D01*
X318008D01*
Y374904D01*
X319024D01*
X283464D02*
Y373888D01*
X285496D01*
Y374904D01*
X286512D01*
Y376936D01*
X285496D01*
Y377952D01*
X283464D01*
Y376936D01*
X282448D01*
Y374904D01*
X283464D01*
X34544Y232664D02*
Y231648D01*
X36576D01*
Y232664D01*
X37592D01*
Y234696D01*
X36576D01*
Y235712D01*
X34544D01*
Y234696D01*
X33528D01*
Y232664D01*
X34544D01*
X14224Y176784D02*
Y175768D01*
X16256D01*
Y176784D01*
X17272D01*
Y178816D01*
X16256D01*
Y179832D01*
X14224D01*
Y178816D01*
X13208D01*
Y176784D01*
X14224D01*
X430784Y29464D02*
Y28448D01*
X432816D01*
Y29464D01*
X433832D01*
Y31496D01*
X432816D01*
Y32512D01*
X430784D01*
Y31496D01*
X429768D01*
Y29464D01*
X430784D01*
X405384Y24384D02*
Y23368D01*
X407416D01*
Y24384D01*
X408432D01*
Y26416D01*
X407416D01*
Y27432D01*
X405384D01*
Y26416D01*
X404368D01*
Y24384D01*
X405384D01*
X379984Y19304D02*
Y18288D01*
X382016D01*
Y19304D01*
X383032D01*
Y21336D01*
X382016D01*
Y22352D01*
X379984D01*
Y21336D01*
X378968D01*
Y19304D01*
X379984D01*
X344424Y85344D02*
Y84328D01*
X346456D01*
Y85344D01*
X347472D01*
Y87376D01*
X346456D01*
Y88392D01*
X344424D01*
Y87376D01*
X343408D01*
Y85344D01*
X344424D01*
X335734Y243984D02*
Y242968D01*
X337766D01*
Y243984D01*
X338782D01*
Y246016D01*
X337766D01*
Y247032D01*
X335734D01*
Y246016D01*
X334718D01*
Y243984D01*
X335734D01*
X415234Y187234D02*
Y186218D01*
X417266D01*
Y187234D01*
X418282D01*
Y189266D01*
X417266D01*
Y190282D01*
X415234D01*
Y189266D01*
X414218D01*
Y187234D01*
X415234D01*
X271504Y170464D02*
Y169448D01*
X273536D01*
Y170464D01*
X274552D01*
Y172496D01*
X273536D01*
Y173512D01*
X271504D01*
Y172496D01*
X270488D01*
Y170464D01*
X271504D01*
X162734Y268234D02*
Y267218D01*
X164766D01*
Y268234D01*
X165782D01*
Y270266D01*
X164766D01*
Y271282D01*
X162734D01*
Y270266D01*
X161718D01*
Y268234D01*
X162734D01*
X323984Y38984D02*
Y37968D01*
X326016D01*
Y38984D01*
X327032D01*
Y41016D01*
X326016D01*
Y42032D01*
X323984D01*
Y41016D01*
X322968D01*
Y38984D01*
X323984D01*
X92484Y268234D02*
Y267218D01*
X94516D01*
Y268234D01*
X95532D01*
Y270266D01*
X94516D01*
Y271282D01*
X92484D01*
Y270266D01*
X91468D01*
Y268234D01*
X92484D01*
X233234Y170464D02*
Y169448D01*
X235266D01*
Y170464D01*
X236282D01*
Y172496D01*
X235266D01*
Y173512D01*
X233234D01*
Y172496D01*
X232218D01*
Y170464D01*
X233234D01*
X57234Y169984D02*
Y168968D01*
X59266D01*
Y169984D01*
X60282D01*
Y172016D01*
X59266D01*
Y173032D01*
X57234D01*
Y172016D01*
X56218D01*
Y169984D01*
X57234D01*
X180234Y212704D02*
Y211688D01*
X182266D01*
Y212704D01*
X183282D01*
Y214736D01*
X182266D01*
Y215752D01*
X180234D01*
Y214736D01*
X179218D01*
Y212704D01*
X180234D01*
X282984Y51744D02*
Y50728D01*
X285016D01*
Y51744D01*
X286032D01*
Y53776D01*
X285016D01*
Y54792D01*
X282984D01*
Y53776D01*
X281968D01*
Y51744D01*
X282984D01*
X348984Y38984D02*
Y37968D01*
X351016D01*
Y38984D01*
X352032D01*
Y41016D01*
X351016D01*
Y42032D01*
X348984D01*
Y41016D01*
X347968D01*
Y38984D01*
X348984D01*
X132984Y455984D02*
Y454968D01*
X135016D01*
Y455984D01*
X136032D01*
Y458016D01*
X135016D01*
Y459032D01*
X132984D01*
Y458016D01*
X131968D01*
Y455984D01*
X132984D01*
X54864Y486664D02*
Y485648D01*
X56896D01*
Y486664D01*
X57912D01*
Y488696D01*
X56896D01*
Y489712D01*
X54864D01*
Y488696D01*
X53848D01*
Y486664D01*
X54864D01*
X34544D02*
Y485648D01*
X36576D01*
Y486664D01*
X37592D01*
Y488696D01*
X36576D01*
Y489712D01*
X34544D01*
Y488696D01*
X33528D01*
Y486664D01*
X34544D01*
X14224D02*
Y485648D01*
X16256D01*
Y486664D01*
X17272D01*
Y488696D01*
X16256D01*
Y489712D01*
X14224D01*
Y488696D01*
X13208D01*
Y486664D01*
X14224D01*
X372984Y438984D02*
Y437968D01*
X375016D01*
Y438984D01*
X376032D01*
Y441016D01*
X375016D01*
Y442032D01*
X372984D01*
Y441016D01*
X371968D01*
Y438984D01*
X372984D01*
X202984Y459984D02*
Y458968D01*
X205016D01*
Y459984D01*
X206032D01*
Y462016D01*
X205016D01*
Y463032D01*
X202984D01*
Y462016D01*
X201968D01*
Y459984D01*
X202984D01*
X230984Y475983D02*
Y474967D01*
X233015D01*
Y475983D01*
X234032D01*
Y478015D01*
X233015D01*
Y479031D01*
X230984D01*
Y478015D01*
X229967D01*
Y475983D01*
X230984D01*
X412984Y99984D02*
Y98968D01*
X415016D01*
Y99984D01*
X416032D01*
Y102016D01*
X415016D01*
Y103032D01*
X412984D01*
Y102016D01*
X411968D01*
Y99984D01*
X412984D01*
D83*
X87192Y424250D02*
G03*
X87192Y424250I-2032J0D01*
G01*
X366592Y167710D02*
G03*
X366592Y167710I-2032J0D01*
G01*
M02*
